<?xml version="1.0" encoding="UTF-8"?>
<svg version="1.1" xmlns="http://www.w3.org/2000/svg" width="1531" height="980">
<path d="M0 0 C505.23 0 1010.46 0 1531 0 C1531 323.4 1531 646.8 1531 980 C1025.77 980 520.54 980 0 980 C0 656.6 0 333.2 0 0 Z " fill="#DADBDC" transform="translate(0,0)"/>
<path d="M0 0 C0.33 0 0.66 0 1 0 C1.09147617 52.69006939 1.16199834 105.38013079 1.20426132 158.07026391 C1.20926438 164.28520537 1.21444165 170.50014667 1.21972656 176.71508789 C1.2207758 177.95241547 1.22182505 179.18974306 1.22290608 180.46456542 C1.24033017 200.52172806 1.27187887 220.57884502 1.30861118 240.63598052 C1.3459649 261.20334786 1.36822404 281.77069121 1.37635398 302.33809108 C1.38185333 315.03803802 1.3992471 327.73785589 1.43166587 340.43776312 C1.45274505 349.13645302 1.45921506 357.83507582 1.45400551 366.53378943 C1.45143342 371.55893595 1.45548542 376.5838563 1.4768219 381.60896301 C1.49619008 386.20384096 1.49733386 390.7983392 1.48359558 395.3932341 C1.48189595 397.06084797 1.48705244 398.72848489 1.49953273 400.39605293 C1.5154496 402.65292954 1.50701977 404.9084126 1.49219131 407.16526508 C1.4937102 408.42175966 1.49522908 409.67825423 1.49679399 410.97282439 C1 414 1 414 -0.82763696 415.83732718 C-3.18283748 417.09785665 -5.58708355 418.16890454 -8.0625 419.171875 C-10.85852356 420.36694959 -13.52207361 421.79878731 -16.203125 423.23046875 C-18 424 -18 424 -21 424 C-21 422.68 -21 421.36 -21 420 C-21.66 420 -22.32 420 -23 420 C-24.76611319 415.35233371 -26.46873849 410.6879651 -28.125 406 C-35.68440177 384.62374857 -35.68440177 384.62374857 -44.73828125 363.859375 C-46.51230425 359.83898851 -47.67337684 355.69821283 -48.88623047 351.48095703 C-49.9865899 348.04191172 -51.30964485 344.83643238 -52.77734375 341.5390625 C-56.31652121 333.4523568 -59.28751708 325.18840722 -62.25268555 316.87817383 C-64.86654954 309.57062687 -67.58942938 302.38521441 -70.92041016 295.36767578 C-73.24608881 290.26717113 -75 285.62560224 -75 280 C-75.66 280 -76.32 280 -77 280 C-79.60710653 273.3827258 -82.06241296 266.84614089 -84 260 C-84.96961725 257.49164234 -85.98655379 255.00497096 -87.00390625 252.515625 C-87.87454224 250.31684235 -88.649431 248.12469324 -89.375 245.875 C-90.81453736 241.46147337 -92.39121181 237.10405979 -94 232.75 C-94.24927246 232.06405762 -94.49854492 231.37811523 -94.75537109 230.67138672 C-95.85820437 227.71000819 -97.00487773 224.99194769 -98.64453125 222.28515625 C-100.66989234 218.8706426 -100.66768312 215.92133917 -101 212 C-101.66 212 -102.32 212 -103 212 C-103 210.68 -103 209.36 -103 208 C-103.66 208 -104.32 208 -105 208 C-105.67413211 206.08594633 -106.3390332 204.16863974 -107 202.25 C-107.37125 201.18265625 -107.7425 200.1153125 -108.125 199.015625 C-109 196 -109 196 -109 192 C-109.66 192 -110.32 192 -111 192 C-111.66 190.02 -112.32 188.04 -113 186 C-113.99 186 -114.98 186 -116 186 C-116.37125 186.804375 -116.37125 186.804375 -116.75 187.625 C-118.30652537 190.5823982 -120.03435673 193.29724051 -122 196 C-122.66 196 -123.32 196 -124 196 C-124.23976563 196.71542969 -124.47953125 197.43085938 -124.7265625 198.16796875 C-126.19521644 201.43414699 -128.01855331 203.61669449 -130.375 206.3125 C-134.42507863 211.03125533 -138.23424102 215.87980862 -141.9375 220.875 C-145.84614546 226.14172347 -149.80695957 231.35520754 -153.875 236.5 C-160.6752264 245.07502314 -160.6752264 245.07502314 -167 254 C-167.66 254 -168.32 254 -169 254 C-169.33 255.32 -169.66 256.64 -170 258 C-170.66 258 -171.32 258 -172 258 C-172 258.66 -172 259.32 -172 260 C-172.66 260 -173.32 260 -174 260 C-174.268125 260.721875 -174.53625 261.44375 -174.8125 262.1875 C-176.47433736 266.1234306 -178.16781475 269.19093101 -181.25 272.1875 C-184.49451586 275.50575486 -186.90295046 279.12088927 -189.44921875 282.98828125 C-189.96097656 283.65214844 -190.47273438 284.31601562 -191 285 C-191.66 285 -192.32 285 -193 285 C-193.0825 285.5775 -193.165 286.155 -193.25 286.75 C-194 289 -194 289 -195.66796875 290.6484375 C-198.80647603 293.81323043 -201.38669822 297.31718791 -204.0625 300.875 C-208.81975715 307.15951219 -213.62924454 313.39306267 -218.57250977 319.53271484 C-220.72621858 322.23847804 -222.62058166 324.81731969 -224 328 C-224.66 328 -225.32 328 -226 328 C-226.2578125 328.55171875 -226.515625 329.1034375 -226.78125 329.671875 C-228.17963125 332.34314175 -229.78763305 334.76851909 -231.5 337.25 C-232.1084375 338.14203125 -232.716875 339.0340625 -233.34375 339.953125 C-233.8903125 340.62859375 -234.436875 341.3040625 -235 342 C-235.66 342 -236.32 342 -237 342 C-237.268125 342.804375 -237.53625 343.60875 -237.8125 344.4375 C-238.204375 345.283125 -238.59625 346.12875 -239 347 C-239.99 347.33 -240.98 347.66 -242 348 C-242.268125 348.680625 -242.53625 349.36125 -242.8125 350.0625 C-244.89245759 355.20765824 -248.41735437 359.45900294 -252.375 363.3125 C-257.42570262 368.48345744 -261.50246704 374.59587512 -265.375 380.6875 C-265.91125 381.450625 -266.4475 382.21375 -267 383 C-267.66 383 -268.32 383 -269 383 C-269.185625 383.66 -269.37125 384.32 -269.5625 385 C-271.21958268 388.45825951 -273.31616014 390.74492682 -275.875 393.5703125 C-278.3660989 396.41859102 -280.69622687 399.37529541 -283 402.375 C-283.42539063 402.92824951 -283.85078125 403.48149902 -284.2890625 404.05151367 C-287.56413839 408.34942289 -290.64379646 412.76189417 -293.625 417.26953125 C-294.07875 417.84058594 -294.5325 418.41164063 -295 419 C-295.66 419 -296.32 419 -297 419 C-297.268125 419.78375 -297.53625 420.5675 -297.8125 421.375 C-299 424 -299 424 -302 426 C-306.76275691 421.23724309 -306.55753457 407.62172402 -307 401 C-307.66 401 -308.32 401 -309 401 C-309.19335938 399.83082031 -309.38671875 398.66164063 -309.5859375 397.45703125 C-309.84866686 395.90880468 -310.11170392 394.3606303 -310.375 392.8125 C-310.50132813 392.04357422 -310.62765625 391.27464844 -310.7578125 390.48242188 C-311.46082451 386.38737694 -312.41691052 382.85365607 -314 379 C-314.48329381 376.67571994 -314.91510311 374.34049704 -315.3125 372 C-316.64812977 364.43649391 -318.36711534 356.99280822 -320.19848633 349.53515625 C-321.44137985 344.4516186 -322.53723082 339.37565442 -323.45288086 334.22216797 C-324.02029474 331.9175713 -324.92242334 330.10525068 -326 328 C-326.53943409 325.51747347 -327.01687501 323.06461778 -327.4375 320.5625 C-329.53691793 308.48184937 -332.55576412 296.60089228 -335.4375 284.6875 C-335.74679443 283.40713867 -336.05608887 282.12677734 -336.37475586 280.80761719 C-337.91353425 274.44889525 -339.46471524 268.09414539 -341.0625 261.75 C-341.52065143 259.91739428 -341.9787612 258.08477799 -342.43603516 256.25195312 C-342.87085519 254.51568471 -343.3085915 252.78014646 -343.74755859 251.04492188 C-344.59104491 247.69887692 -345.42125937 244.34972471 -346.25 241 C-346.52078369 239.93620117 -346.79156738 238.87240234 -347.07055664 237.77636719 C-348.48258506 232.01904086 -349.31350182 226.92803437 -349 221 C-338.0918395 216.11013495 -327.12155142 211.38414781 -316 207 C-305.11992273 202.71084822 -305.11992273 202.71084822 -294.38671875 198.0703125 C-291.18960809 196.63658366 -287.97052793 195.25504768 -284.75 193.875 C-283.58984375 193.37742187 -282.4296875 192.87984375 -281.234375 192.3671875 C-278.5011047 191.21181962 -275.75693711 190.09710019 -273 189 C-271.948125 188.54625 -270.89625 188.0925 -269.8125 187.625 C-264.34992299 185.27207181 -258.80959109 183.10851872 -253.27734375 180.92578125 C-252.40207031 180.57902344 -251.52679687 180.23226562 -250.625 179.875 C-249.83351563 179.56304687 -249.04203125 179.25109375 -248.2265625 178.9296875 C-244.99762166 177.58146308 -242.4928024 176.4928024 -240 174 C-239.01 174 -238.02 174 -237 174 C-237.57067312 182.73369314 -238.75379137 191.25548747 -240.25 199.875 C-240.58563451 201.84632945 -240.92126018 203.81766044 -241.25637817 205.78907776 C-241.60340761 207.82724291 -241.95251997 209.86504426 -242.30175781 211.90283203 C-242.99228575 215.94228828 -243.66658805 219.98433025 -244.3359375 224.02734375 C-247.87114815 245.37815547 -247.87114815 245.37815547 -249.5 254.4375 C-250.46832863 259.8269405 -251.363008 265.22503645 -252.22265625 270.6328125 C-252.33229706 271.3208345 -252.44193787 272.00885651 -252.55490112 272.71772766 C-253.10791158 276.19119735 -253.65676298 279.6652473 -254.19921875 283.14038086 C-255.20979059 289.51761683 -256.27898053 295.77419224 -258 302 C-251.0954999 296.50458156 -246.17796533 290.16708906 -241.1875 282.9375 C-240.465625 281.968125 -239.74375 280.99875 -239 280 C-238.34 280 -237.68 280 -237 280 C-236.78601562 279.47664063 -236.57203125 278.95328125 -236.3515625 278.4140625 C-234.45030544 275.01817562 -231.94091025 272.28660963 -229.375 269.375 C-224.91724191 264.2652797 -220.63453494 259.09004375 -216.5234375 253.6953125 C-216.02070312 253.13585937 -215.51796875 252.57640625 -215 252 C-214.34 252 -213.68 252 -213 252 C-212.731875 251.360625 -212.46375 250.72125 -212.1875 250.0625 C-211 248 -211 248 -208 247 C-207.62529242 245.6776978 -207.29698124 244.34189829 -207 243 C-205.83251953 241.27661133 -205.83251953 241.27661133 -204.3828125 239.58203125 C-203.85816406 238.96779297 -203.33351563 238.35355469 -202.79296875 237.72070312 C-202.24253906 237.09099609 -201.69210937 236.46128906 -201.125 235.8125 C-200.58230469 235.17119141 -200.03960938 234.52988281 -199.48046875 233.86914062 C-195.3856355 229.12854517 -195.3856355 229.12854517 -192 228 C-191.63451555 226.67511887 -191.3062434 225.33981486 -191 224 C-189.5625 221.75 -189.5625 221.75 -188 220 C-187.34 220 -186.68 220 -186 220 C-186 219.34 -186 218.68 -186 218 C-185.34 218 -184.68 218 -184 218 C-184 217.34 -184 216.68 -184 216 C-183.34 216 -182.68 216 -182 216 C-181.75378906 215.27039063 -181.50757813 214.54078125 -181.25390625 213.7890625 C-179.86442138 210.6984326 -178.26386052 208.8285513 -175.9375 206.375 C-172.64035249 202.81894187 -169.48512151 199.20998982 -166.4375 195.4375 C-162.98442536 191.16802417 -159.41849243 187.0368178 -155.7265625 182.97265625 C-153.94957149 181.00939461 -153.94957149 181.00939461 -152.3984375 178.74609375 C-151.93695312 178.16988281 -151.47546875 177.59367188 -151 177 C-150.34 177 -149.68 177 -149 177 C-148.6596875 176.2265625 -148.6596875 176.2265625 -148.3125 175.4375 C-146.51782382 172.10452995 -144.50034985 168.85296329 -142 166 C-141.34 166 -140.68 166 -140 166 C-140 165.34 -140 164.68 -140 164 C-139.34 164 -138.68 164 -138 164 C-138 163.34 -138 162.68 -138 162 C-137.34 162 -136.68 162 -136 162 C-135.67 160.68 -135.34 159.36 -135 158 C-134.34 158 -133.68 158 -133 158 C-132.7421875 157.43796875 -132.484375 156.8759375 -132.21875 156.296875 C-130.85830223 153.73295421 -129.27211038 151.54773635 -127.5 149.25 C-126.8915625 148.45078125 -126.283125 147.6515625 -125.65625 146.828125 C-125.1096875 146.22484375 -124.563125 145.6215625 -124 145 C-123.34 145 -122.68 145 -122 145 C-121.73058594 144.41089844 -121.46117187 143.82179688 -121.18359375 143.21484375 C-119.99834654 140.99690589 -118.75150104 139.41668451 -117.0625 137.5625 C-113.80838525 133.92794594 -110.64102971 130.23198009 -107.5 126.5 C-104.47134369 122.90615833 -101.43024248 119.32977012 -98.3125 115.8125 C-93.82309381 110.72019993 -89.64633234 105.36805934 -85.453125 100.03125 C-84.34624026 98.65089962 -83.17978624 97.31858462 -82 96 C-81.34 96 -80.68 96 -80 96 C-79.6596875 94.948125 -79.6596875 94.948125 -79.3125 93.875 C-77.66158712 90.25871465 -75.7091165 87.91230024 -73 85 C-72.34 85 -71.68 85 -71 85 C-70.731875 84.42765625 -70.46375 83.8553125 -70.1875 83.265625 C-68.95867364 80.92115366 -67.57477824 78.87595062 -66 76.75 C-65.484375 76.04359375 -64.96875 75.3371875 -64.4375 74.609375 C-63.7259375 73.81273437 -63.7259375 73.81273437 -63 73 C-62.34 73 -61.68 73 -61 73 C-61 72.34 -61 71.68 -61 71 C-59.33333333 69.33333333 -57.66666667 67.66666667 -56 66 C-55.34 65.01 -54.68 64.02 -54 63 C-51.92576532 59.88864798 -49.64408025 57.64031375 -47 55 C-45.0003622 52.76401632 -43.06238268 50.47747267 -41.125 48.1875 C-40.06288809 46.93847197 -39.00039042 45.68977186 -37.9375 44.44140625 C-37.17759766 43.54832764 -37.17759766 43.54832764 -36.40234375 42.63720703 C-34.6672529 40.61152471 -32.89892211 38.61670272 -31.125 36.625 C-28.26862781 33.39848667 -25.7366398 29.99466492 -23.26171875 26.46875 C-22.84535156 25.9840625 -22.42898438 25.499375 -22 25 C-21.34 25 -20.68 25 -20 25 C-19.5359375 24.071875 -19.5359375 24.071875 -19.0625 23.125 C-18.375 21.75 -17.6875 20.375 -17 19 C-16.34 19 -15.68 19 -15 19 C-14.62875 18.17242187 -14.62875 18.17242187 -14.25 17.328125 C-12.75765526 14.54863293 -10.96327477 12.2185293 -9 9.75 C-8.29875 8.85796875 -7.5975 7.9659375 -6.875 7.046875 C-6.25625 6.37140625 -5.6375 5.6959375 -5 5 C-4.34 5 -3.68 5 -3 5 C-2.690625 4.360625 -2.38125 3.72125 -2.0625 3.0625 C-1 1 -1 1 0 0 Z " fill="#A3A4A8" transform="translate(1530,122)"/>
<path d="M0 0 C3.97914456 1.67370204 4.89267655 3.52374281 6.6875 7.421875 C8.30373197 10.59661636 10.22808703 13.53140632 12.1875 16.5 C15.57520804 21.65964253 18.70260113 26.91010596 21.6875 32.3125 C25.30363815 38.85148282 29.24791797 45.03899305 33.51171875 51.17578125 C33.98222656 51.88089844 34.45273437 52.58601563 34.9375 53.3125 C35.35902344 53.92738281 35.78054688 54.54226563 36.21484375 55.17578125 C37.23032512 57.53513348 36.87839824 58.62686883 36 61 C35.05607981 62.69905634 34.04349839 64.36021682 33 66 C32.59136719 66.680625 32.18273437 67.36125 31.76171875 68.0625 C31.32472656 68.784375 30.88773438 69.50625 30.4375 70.25 C30.02371094 70.93578125 29.60992188 71.6215625 29.18359375 72.328125 C28 74 28 74 26 75 C24.97520995 77.2079259 24.97520995 77.2079259 24.0625 79.8125 C22.76279924 83.37483772 21.32433728 86.01512719 19 89 C18.28182151 90.63222385 17.56734111 92.26652637 16.89453125 93.91796875 C15.12498984 98.03659569 13.03290358 102.00650956 11 106 C10.34 106 9.68 106 9 106 C8.76667969 106.81210937 8.53335938 107.62421875 8.29296875 108.4609375 C6.71029166 112.79297813 4.58721781 116.62381667 2.3125 120.625 C1.86479248 121.42188232 1.41708496 122.21876465 0.95581055 123.03979492 C-1.55088174 127.48839867 -4.1010789 131.90970591 -6.6875 136.3125 C-9.14977181 140.5059653 -11.54629641 144.73100932 -13.875 149 C-14.73738281 150.5778125 -14.73738281 150.5778125 -15.6171875 152.1875 C-16.76275321 154.51746416 -17.52496957 156.46650437 -18 159 C-18.66 159 -19.32 159 -20 159 C-20.268125 159.9075 -20.53625 160.815 -20.8125 161.75 C-21.91768218 164.77470911 -23.0632447 166.49835774 -25 169 C-25.2990625 169.75023437 -25.598125 170.50046875 -25.90625 171.2734375 C-27.07233024 174.18030895 -28.47783002 176.82639946 -30 179.5625 C-31.73027234 182.68131589 -33.43200367 185.79616134 -35 189 C-35.66 189 -36.32 189 -37 189 C-37.38285156 190.25683594 -37.38285156 190.25683594 -37.7734375 191.5390625 C-39.11768918 195.33207838 -40.79014193 198.80224791 -42.625 202.375 C-42.94984375 203.01566406 -43.2746875 203.65632812 -43.609375 204.31640625 C-44.40257407 205.87947501 -45.20077031 207.44000622 -46 209 C-46.66 209 -47.32 209 -48 209 C-48.20625 209.763125 -48.4125 210.52625 -48.625 211.3125 C-51.09017658 217.92365536 -54.6807991 224.01712062 -58.5 229.9375 C-60.59554236 233.20171021 -62.30365176 236.5746003 -64 240.0625 C-65.9822908 244.11326817 -68.07546133 247.66588557 -70.79296875 251.24609375 C-72.73697245 254.07087582 -74.11834548 257.1554511 -75.60546875 260.23828125 C-77.69802134 264.38235599 -80.07625652 268.34767726 -82.44921875 272.3359375 C-84.01642181 274.85048455 -84.01642181 274.85048455 -84.796875 277.16796875 C-86.71191711 280.0840556 -89.36668807 280.69296051 -92.5625 281.9375 C-97.69234014 283.9883823 -102.50543961 286.24422523 -107.23046875 289.1171875 C-109 290 -109 290 -112 290 C-117.50665376 258.5999002 -123.00616495 227.20000701 -128.21479797 195.74880981 C-128.45072814 194.33160865 -128.6892204 192.9148315 -128.93034363 191.49850464 C-129.57290139 187.70247191 -130.15708284 183.90705959 -130.67089844 180.09130859 C-130.78746796 179.27905319 -130.90403748 178.46679779 -131.0241394 177.62992859 C-131.24642604 176.07513825 -131.45279946 174.51795613 -131.64016724 172.95857239 C-132.54917818 166.80580379 -135.12002082 164.35173678 -139.76098633 160.56201172 C-140.27943115 160.18834473 -140.79787598 159.81467773 -141.33203125 159.4296875 C-141.90244141 159.00816406 -142.47285156 158.58664062 -143.06054688 158.15234375 C-144.24499447 157.28876657 -145.43259257 156.4294966 -146.62304688 155.57421875 C-148.13512402 154.45096144 -149.57456179 153.23134486 -151 152 C-151 151.01 -151 150.02 -151 149 C-150.34 149 -149.68 149 -149 149 C-148.67 148.01 -148.34 147.02 -148 146 C-147.34 146 -146.68 146 -146 146 C-145.5978125 145.0409375 -145.5978125 145.0409375 -145.1875 144.0625 C-144 142 -144 142 -141 141 C-140.67 140.01 -140.34 139.02 -140 138 C-139.34 138 -138.68 138 -138 138 C-137.7525 137.4225 -137.505 136.845 -137.25 136.25 C-135.81700012 133.67060021 -134.21575324 131.93878408 -132 130 C-131.34 130 -130.68 130 -130 130 C-129.773125 129.4225 -129.54625 128.845 -129.3125 128.25 C-127.66216522 125.42085466 -125.56741423 124.01725404 -123 122 C-121.9171875 120.63875 -121.9171875 120.63875 -120.8125 119.25 C-120.214375 118.5075 -119.61625 117.765 -119 117 C-118.34 117 -117.68 117 -117 117 C-116.505 115.515 -116.505 115.515 -116 114 C-115.34 114 -114.68 114 -114 114 C-113.731875 113.360625 -113.46375 112.72125 -113.1875 112.0625 C-112 110 -112 110 -109 109 C-109 108.34 -109 107.68 -109 107 C-107.69796753 105.72044373 -107.69796753 105.72044373 -105.79638672 104.16967773 C-100.23936985 99.43962961 -95.15905258 94.25524105 -90.02951431 89.07411385 C-88.22485871 87.2518815 -86.41652157 85.43337577 -84.60714722 83.61582947 C-79.46944743 78.45381879 -74.33763297 73.2859849 -69.20996094 68.11401367 C-66.06026651 64.9376197 -62.90578435 61.76604716 -59.74825668 58.59744072 C-58.54783225 57.3907974 -57.34931004 56.18225863 -56.15271378 54.97181892 C-54.48926608 53.2892677 -52.81985286 51.61286295 -51.14892578 49.93774414 C-50.65439407 49.43445084 -50.15986237 48.93115753 -49.65034485 48.41261292 C-46.22789983 45 -46.22789983 45 -44 45 C-44 44.34 -44 43.68 -44 43 C-42.50390625 41.5625 -42.50390625 41.5625 -40.5625 40 C-37.84811762 37.85474956 -37.84811762 37.85474956 -36 35 C-35.34 35 -34.68 35 -34 35 C-34 34.34 -34 33.68 -34 33 C-32.35648543 31.63823078 -30.68477344 30.31037934 -29 29 C-26.52446315 26.64522105 -24.26086492 24.341823 -22.1875 21.625 C-19.72434879 18.66921855 -17.00378478 16.32293866 -14.0859375 13.828125 C-10.90160678 11.03736325 -7.95995447 8.02461367 -5 5 C-4.02206887 4.01959935 -3.04304287 3.04028853 -2.0625 2.0625 C-1.381875 1.381875 -0.70125 0.70125 0 0 Z " fill="#9C9EA2" transform="translate(498,291)"/>
<path d="M0 0 C2.65925632 3.20944728 4.88295373 6.41730631 7 10 C7.97372759 11.4619706 8.95348197 12.91993574 9.9375 14.375 C17 24.94233167 17 24.94233167 17 29 C17.66 29 18.32 29 19 29 C19.99 31.97 19.99 31.97 21 35 C21.66 35 22.32 35 23 35 C24.50519387 37.62214328 26.00431319 40.24744208 27.5 42.875 C28.14388672 43.99455078 28.14388672 43.99455078 28.80078125 45.13671875 C29.20683594 45.85214844 29.61289062 46.56757812 30.03125 47.3046875 C30.59682617 48.2944458 30.59682617 48.2944458 31.17382812 49.30419922 C32 51 32 51 32 53 C32.66 53 33.32 53 34 53 C34.804375 54.7015625 34.804375 54.7015625 35.625 56.4375 C37.64398803 60.49703109 40.05780241 64.1620193 42.62109375 67.89453125 C44 70 44 70 45.625 73.3125 C46.8324423 76.04198279 46.8324423 76.04198279 48.8984375 77.79296875 C52.0492277 81.1018841 53.54401174 85.00872117 55.4375 89.125 C57.35084864 92.6455615 59.72987828 94.87100291 62.6875 97.5 C64.30898363 99.35312415 64.58504652 100.57943804 65 103 C65.185625 104.0725 65.37125 105.145 65.5625 106.25 C65.7790625 107.61125 65.7790625 107.61125 66 109 C66.66 109 67.32 109 68 109 C69.4375 111.1875 69.4375 111.1875 71 114 C71.556875 114.886875 72.11375 115.77375 72.6875 116.6875 C74 119 74 119 74 121 C1.4 121 -71.2 121 -146 121 C-145.34 119.68 -144.68 118.36 -144 117 C-143.34 117 -142.68 117 -142 117 C-141.443125 116.401875 -140.88625 115.80375 -140.3125 115.1875 C-138.15180051 113.14359508 -136.98970424 112.46888196 -134.3125 111.4375 C-133.219375 110.963125 -132.12625 110.48875 -131 110 C-130.67 109.01 -130.34 108.02 -130 107 C-128.35666496 105.96210419 -126.68756133 104.96432076 -125 104 C-124.53335938 103.51789063 -124.06671875 103.03578125 -123.5859375 102.5390625 C-121.83280808 100.83774972 -120.19570593 99.93126762 -118 98.875 C-116.9790625 98.37613281 -116.9790625 98.37613281 -115.9375 97.8671875 C-114 97 -114 97 -111 96 C-110.505 94.515 -110.505 94.515 -110 93 C-107.75397796 91.42226395 -105.53334646 89.97472315 -103.1875 88.5625 C-97.79889035 85.29182905 -93.56260936 82.34391404 -90 77 C-89.01 77 -88.02 77 -87 77 C-87 76.34 -87 75.68 -87 75 C-86.01 75 -85.02 75 -84 75 C-84 74.34 -84 73.68 -84 73 C-83.195625 72.773125 -82.39125 72.54625 -81.5625 72.3125 C-80.716875 71.879375 -79.87125 71.44625 -79 71 C-78.10613836 68.45224694 -78.10613836 68.45224694 -78 66 C-77.01 65.67 -76.02 65.34 -75 65 C-74.34 65.33 -73.68 65.66 -73 66 C-72.67 64.35 -72.34 62.7 -72 61 C-69.69 61 -67.38 61 -65 61 C-65 60.34 -65 59.68 -65 59 C-64.34 59 -63.68 59 -63 59 C-63 57.35 -63 55.7 -63 54 C-59.71303767 53.20046862 -58.28976808 52.90341064 -55 54 C-54.67 53.01 -54.34 52.02 -54 51 C-49.66666667 48 -49.66666667 48 -47 48 C-46.67 46.68 -46.34 45.36 -46 44 C-45.34 44 -44.68 44 -44 44 C-43.34 43.01 -42.68 42.02 -42 41 C-41.21625 40.690625 -40.4325 40.38125 -39.625 40.0625 C-36.9240835 39.16792665 -36.9240835 39.16792665 -35.125 37.125 C-33.21535356 35.21535356 -31.76503287 34.21105572 -29.4375 32.9375 C-25.80502384 30.91264301 -25.80502384 30.91264301 -23 28 C-23 27.34 -23 26.68 -23 26 C-22.030625 25.731875 -21.06125 25.46375 -20.0625 25.1875 C-19.051875 24.795625 -18.04125 24.40375 -17 24 C-16.67 23.01 -16.34 22.02 -16 21 C-14.0625 20.4375 -14.0625 20.4375 -12 20 C-11.34 19.34 -10.68 18.68 -10 18 C-5.38461538 15 -5.38461538 15 -3 15 C-3 14.34 -3 13.68 -3 13 C-2.34 13 -1.68 13 -1 13 C-1 12.34 -1 11.68 -1 11 C-0.34 11 0.32 11 1 11 C1.08912219 7.16774573 0.87867729 3.73437848 0 0 Z M-76 66 C-76.33 66.66 -76.66 67.32 -77 68 C-76.34 68 -75.68 68 -75 68 C-75.33 67.34 -75.66 66.68 -76 66 Z " fill="#828285" transform="translate(847,859)"/>
<path d="M0 0 C79.2 0 158.4 0 240 0 C232 6 232 6 228 6 C228 6.66 228 7.32 228 8 C226.35 8.33 224.7 8.66 223 9 C223 9.66 223 10.32 223 11 C220.85457371 12.22988164 218.70870926 13.45898587 216.5625 14.6875 C215.60114136 15.23833252 215.60114136 15.23833252 214.62036133 15.80029297 C211.16150265 17.77839984 207.68971614 19.7243311 204.1875 21.625 C200.25229413 23.78016882 196.59943489 26.2634845 192.9453125 28.86328125 C191 30 191 30 188 30 C188 30.66 188 31.32 188 32 C187.28714844 32.38671875 186.57429687 32.7734375 185.83984375 33.171875 C179.34723836 36.69989405 179.34723836 36.69989405 172.9375 40.375 C170 42 170 42 168 42 C168 42.66 168 43.32 168 44 C165.35261084 45.4606285 164.10551666 46 161 46 C161 46.66 161 47.32 161 48 C160.01 48 159.02 48 158 48 C158 48.66 158 49.32 158 50 C155.03 50.99 155.03 50.99 152 52 C152 52.66 152 53.32 152 54 C151.26910156 54.27457031 150.53820312 54.54914062 149.78515625 54.83203125 C147.15046403 55.93690218 144.86461272 57.18852176 142.4375 58.6875 C137.58561893 61.64931994 132.69362607 64.53312374 127.77734375 67.38671875 C126.09889285 68.3616839 124.42346247 69.34191182 122.75390625 70.33203125 C118.21930212 73 118.21930212 73 116 73 C116 73.66 116 74.32 116 75 C114.68 75 113.36 75 112 75 C112 75.66 112 76.32 112 77 C109.79714532 78.46856978 107.60526465 79.80996666 105.3125 81.125 C103.92792281 81.93540808 102.54381629 82.74662076 101.16015625 83.55859375 C100.46035645 83.96706543 99.76055664 84.37553711 99.03955078 84.79638672 C96.07796345 86.54412739 93.1667434 88.36585159 90.25 90.1875 C74.50677362 99.89355819 74.50677362 99.89355819 69 101 C67.49428254 98.87885041 65.99531321 96.75346385 64.5 94.625 C64.07074219 94.02171875 63.64148438 93.4184375 63.19921875 92.796875 C60 88.2265625 60 88.2265625 60 86 C59.34 86 58.68 86 58 86 C56.7109375 84.3203125 56.7109375 84.3203125 55.375 82.125 C54.92898437 81.40570313 54.48296875 80.68640625 54.0234375 79.9453125 C53 78 53 78 53 76 C52.34 76 51.68 76 51 76 C50.0234375 74.2421875 49.046875 72.484375 48.0703125 70.7265625 C46.99102726 68.8387386 46.99102726 68.8387386 45 67 C45 66.01 45 65.02 45 64 C44.34 64 43.68 64 43 64 C40.70351351 61.4385343 40 60.52032428 40 57 C39.01 56.67 38.02 56.34 37 56 C35.61328125 54.22265625 35.61328125 54.22265625 34.3125 52.0625 C33.87550781 51.35222656 33.43851563 50.64195313 32.98828125 49.91015625 C32 48 32 48 32 46 C31.34 46 30.68 46 30 46 C28.34375 43.76953125 28.34375 43.76953125 26.5 40.8125 C25.8915625 39.84957031 25.283125 38.88664062 24.65625 37.89453125 C23.17379596 35.30373304 22.02309993 32.79817831 21 30 C20.34 30 19.68 30 19 30 C17.55036041 28.09625645 16.18815677 26.12532841 14.875 24.125 C14.15054688 23.03445312 13.42609375 21.94390625 12.6796875 20.8203125 C11 18 11 18 11 16 C10.34 16 9.68 16 9 16 C7.7109375 14.3203125 7.7109375 14.3203125 6.375 12.125 C5.92898437 11.40570313 5.48296875 10.68640625 5.0234375 9.9453125 C4 8 4 8 4 6 C3.34 6 2.68 6 2 6 C0 3 0 3 0 0 Z " fill="#CDCED0" transform="translate(194,0)"/>
<path d="M0 0 C4.32617054 0.86523411 7.84675004 2.08934509 11.8125 3.875 C12.4926416 4.17672119 13.1727832 4.47844238 13.87353516 4.78930664 C21.27238446 8.08773615 28.62784553 11.48319583 35.98681641 14.86938477 C42.93191125 18.06294214 49.89981875 21.19854154 56.89257812 24.28613281 C61.24151417 26.20900949 65.56515216 28.17793781 69.875 30.1875 C73.85980128 32.04275166 77.86472647 33.78478031 81.9375 35.4375 C87.78790534 37.82907715 93.36110093 40.64201174 98.96875 43.546875 C101.81884507 45.03974408 101.81884507 45.03974408 104.34375 45.578125 C104.8903125 45.71734375 105.436875 45.8565625 106 46 C106.33 46.66 106.66 47.32 107 48 C108.56364431 48.41697182 110.12805894 48.83118114 111.6953125 49.234375 C116.70359045 50.89814191 121.3265706 53.57429898 126 56 C127.33200971 56.66930736 128.66476011 57.33716015 130 58 C126.73318581 59.8847005 123.74305571 60.59314612 120 61 C119.34 60.67 118.68 60.34 118 60 C110.76527256 61.73531381 104.71788506 65.23461509 98.58203125 69.31640625 C89.86542923 75 89.86542923 75 85 75 C85 75.66 85 76.32 85 77 C80.61538462 80 80.61538462 80 78 80 C78 80.66 78 81.32 78 82 C76.02 82.33 74.04 82.66 72 83 C72 83.66 72 84.32 72 85 C66 88 66 88 63.75 89 C61.6645898 90.0186339 61.6645898 90.0186339 60 93 C56.87109375 94.5078125 56.87109375 94.5078125 53 95 C49.99099273 93.77111002 47.60567798 91.87461156 45.0625 89.875 C44.3288623 89.3274707 43.59522461 88.77994141 42.83935547 88.21582031 C40.54396363 86.49685635 38.27261267 84.74891727 36 83 C34.57636289 81.93203163 33.15064089 80.86683576 31.72265625 79.8046875 C29.03023003 77.80014218 26.34534086 75.78632651 23.66796875 73.76171875 C18.11163578 69.56670899 12.51516489 65.41127977 6.7734375 61.47265625 C5.15181761 60.35819637 3.56992878 59.18616841 2 58 C2 57.34 2 56.68 2 56 C1.34 56 0.68 56 0 56 C0 37.52 0 19.04 0 0 Z " fill="#A1A2A5" transform="translate(0,131)"/>
<path d="M0 0 C0.99 0.66 1.98 1.32 3 2 C1.8905928 5.48670834 0.73662334 8.77484237 -1 12 C-1.66 12 -2.32 12 -3 12 C-3.20625 12.763125 -3.4125 13.52625 -3.625 14.3125 C-5.19989523 18.53608267 -7.26062821 22.29513359 -9.46484375 26.21875 C-10.50980475 28.11191089 -11.50716369 30.03195607 -12.4609375 31.97265625 C-14.04465793 35.08784238 -15.81562407 37.98730204 -17.6875 40.9375 C-22.77977944 49.07297432 -27.29869593 57.52216568 -31.54296875 66.12890625 C-32.91901713 68.8404225 -34.4156912 71.40604352 -36 74 C-40.32941777 81.47724604 -44.58350539 88.98766474 -48.67578125 96.59765625 C-49.62027383 98.31111625 -50.61149274 99.99916158 -51.6328125 101.66796875 C-53.08622325 103.89636992 -53.08622325 103.89636992 -53.5625 106.25 C-53.706875 106.8275 -53.85125 107.405 -54 108 C-54.99 108.495 -54.99 108.495 -56 109 C-56.75855431 110.68201174 -57.51054999 112.36788876 -58.203125 114.078125 C-59.32776789 116.79049903 -60.66205834 119.38782819 -62 122 C-62.66 122 -63.32 122 -64 122 C-64.226875 122.804375 -64.45375 123.60875 -64.6875 124.4375 C-66.06844968 128.18579199 -67.84529022 131.41917201 -69.82421875 134.875 C-71.10102098 137.18257612 -72.11816798 139.51483702 -73 142 C-79.875 138.375 -79.875 138.375 -81 135 C-82.31403276 134.29605388 -83.6520257 133.63654342 -85 133 C-87.61059887 131.05878546 -89.94925815 129.05109545 -92.2421875 126.7421875 C-94.21695167 124.77861179 -96.19632936 122.88954055 -98.26171875 121.02734375 C-98.82310547 120.52009766 -99.38449219 120.01285156 -99.96289062 119.49023438 C-101.12105069 118.44749683 -102.28256808 117.40847721 -103.44726562 116.37304688 C-108.63903148 111.66144433 -108.63903148 111.66144433 -110 108 C-108.47005208 106.76302083 -106.94010417 105.52604167 -105.41015625 104.2890625 C-103.86733563 103.0333609 -103.86733563 103.0333609 -103 101 C-102.34 101 -101.68 101 -101 101 C-100.67 100.01 -100.34 99.02 -100 98 C-98.328125 96.3515625 -98.328125 96.3515625 -96.25 94.625 C-91.32775173 90.43455502 -86.96763885 85.96754617 -82.6875 81.125 C-79.26642274 77.28838423 -75.70932584 73.89832174 -71.78125 70.59375 C-70.08342364 69.07464221 -68.67526466 67.52289018 -67.25 65.75 C-65.2816571 63.34424757 -63.62589571 61.62986631 -61 60 C-60.34 60 -59.68 60 -59 60 C-59 59.34 -59 58.68 -59 58 C-58.34 58 -57.68 58 -57 58 C-57 57.34 -57 56.68 -57 56 C-55.56846187 54.76821138 -54.13043707 53.54270643 -52.65234375 52.3671875 C-50.76735273 50.856551 -50.76735273 50.856551 -48.375 48.3125 C-46 46 -46 46 -43.75 44.9375 C-43.1725 44.628125 -42.595 44.31875 -42 44 C-41.814375 43.071875 -41.814375 43.071875 -41.625 42.125 C-40.79013633 39.28646351 -39.17182875 38.79606415 -36.77670288 37.26318359 C-33.33948849 34.81942506 -30.47765901 31.74035374 -27.51953125 28.75 C-26.82486252 28.05487305 -26.13019379 27.35974609 -25.41447449 26.64355469 C-23.95403231 25.18010405 -22.49600856 23.71423639 -21.0402832 22.24609375 C-18.81449737 20.00201379 -16.58077556 17.76607696 -14.34570312 15.53125 C-12.92400588 14.10463817 -11.50276607 12.6775703 -10.08203125 11.25 C-9.4163765 10.58323242 -8.75072174 9.91646484 -8.06489563 9.22949219 C-7.44382431 8.60204102 -6.82275299 7.97458984 -6.18286133 7.328125 C-5.63914383 6.7805957 -5.09542633 6.23306641 -4.53523254 5.66894531 C-2.88013092 3.86969079 -1.43555024 1.977213 0 0 Z " fill="#C5C6C7" transform="translate(641,150)"/>
<path d="M0 0 C-6.12095197 2.45841514 -12.19610996 4.11508655 -18.625 5.5625 C-24.18562396 6.82734615 -29.60152802 8.1440346 -35 10 C-38.08986309 10.77732405 -41.18894444 11.50033431 -44.29296875 12.21875 C-47.18664327 12.90614777 -47.18664327 12.90614777 -50 15 C-50.66 14.67 -51.32 14.34 -52 14 C-54.2922138 14.51141894 -54.2922138 14.51141894 -56.8125 15.375 C-60.19871762 16.47129436 -63.50387771 17.33540167 -67 18 C-68.43990228 18.34426983 -69.87765907 18.69770993 -71.3125 19.0625 C-73.1378125 19.5265625 -73.1378125 19.5265625 -75 20 C-74.505 20.99 -74.505 20.99 -74 22 C-79.28 22.33 -84.56 22.66 -90 23 C-90 23.66 -90 24.32 -90 25 C-90.763125 25.28875 -91.52625 25.5775 -92.3125 25.875 C-95.15029308 26.96269013 -95.15029308 26.96269013 -98 29 C-100.5 29.125 -100.5 29.125 -103 29 C-103.99 29 -104.98 29 -106 29 C-106.66 28.67 -107.32 28.34 -108 28 C-108 28.99 -108 29.98 -108 31 C-108.66 30.67 -109.32 30.34 -110 30 C-110 29.01 -110 28.02 -110 27 C-109.37432129 26.823479 -108.74864258 26.64695801 -108.10400391 26.46508789 C-105.2770813 25.66628919 -102.45103491 24.86443328 -99.625 24.0625 C-98.14773437 23.64581055 -98.14773437 23.64581055 -96.640625 23.22070312 C-95.69960937 22.95322266 -94.75859375 22.68574219 -93.7890625 22.41015625 C-92.91975098 22.16402588 -92.05043945 21.91789551 -91.15478516 21.66430664 C-88.97999742 21.05827253 -88.97999742 21.05827253 -87 20 C-84.3276379 19.86584528 -81.67749512 19.95681459 -79 20 C-79 18.68 -79 17.36 -79 16 C-73.25 14.875 -73.25 14.875 -71 16 C-68.90063122 15.59839935 -66.81886038 15.10348078 -64.75 14.56640625 C-63.5021875 14.24736328 -62.254375 13.92832031 -60.96875 13.59960938 C-59.64573499 13.25428281 -58.32281939 12.90857518 -57 12.5625 C-54.41750289 11.89381771 -51.83388534 11.22972806 -49.25 10.56640625 C-48.10015625 10.26677979 -46.9503125 9.96715332 -45.765625 9.65844727 C-43 9 -43 9 -41 9 C-40.67 8.34 -40.34 7.68 -40 7 C-40 7.66 -40 8.32 -40 9 C-38.93523437 8.67386719 -37.87046875 8.34773437 -36.7734375 8.01171875 C-28.5787818 5.53386744 -20.45890659 3.31712787 -12.05078125 1.67578125 C-8.93639614 1.05230902 -8.93639614 1.05230902 -5.79296875 -0.14453125 C-3 -1 -3 -1 0 0 Z " fill="#AEAFB1" transform="translate(129,841)"/>
<path d="M0 0 C0.495 1.485 0.495 1.485 1 3 C0.0925 3.391875 -0.815 3.78375 -1.75 4.1875 C-5.18966748 6.1057761 -6.7151104 7.84842814 -9 11 C-9.5775 11.495 -10.155 11.99 -10.75 12.5 C-12.53030442 14.6363653 -12.21811874 16.30986889 -12 19 C-12.99 19 -13.98 19 -15 19 C-15 19.66 -15 20.32 -15 21 C-16.65 21.33 -18.3 21.66 -20 22 C-21.3721042 25.28941438 -21.3721042 25.28941438 -20 30 C-23.63 30.33 -27.26 30.66 -31 31 C-31.33 32.65 -31.66 34.3 -32 36 C-33.5 37.625 -33.5 37.625 -35 39 C-35.33 39.99 -35.66 40.98 -36 42 C-37.32 42 -38.64 42 -40 42 C-40 42.99 -40 43.98 -40 45 C-41.98 45.66 -43.96 46.32 -46 47 C-46 47.66 -46 48.32 -46 49 C-47.65071396 50.02611949 -49.31970006 51.02308143 -51 52 C-52.75149165 53.58245275 -52.75149165 53.58245275 -54 55 C-54.66 54.67 -55.32 54.34 -56 54 C-55.34 53.01 -54.68 52.02 -54 51 C-53.34 51 -52.68 51 -52 51 C-51.5978125 50.0409375 -51.5978125 50.0409375 -51.1875 49.0625 C-50 47 -50 47 -47 46 C-47 45.34 -47 44.68 -47 44 C-45.55953979 42.58201599 -45.55953979 42.58201599 -43.55029297 40.92358398 C-38.84761809 36.92212177 -34.52668242 32.6190474 -30.1953125 28.22265625 C-28.54439971 26.55911688 -26.8933543 24.89570912 -25.2421875 23.23242188 C-22.66607372 20.63133808 -20.09159838 18.02866959 -17.51953125 15.42358398 C-15.01992967 12.89396639 -12.51429813 10.37045016 -10.0078125 7.84765625 C-8.84694626 6.66660057 -8.84694626 6.66660057 -7.66262817 5.46168518 C-6.94783295 4.7435112 -6.23303772 4.02533722 -5.49658203 3.28540039 C-4.86785187 2.6492128 -4.2391217 2.01302521 -3.59133911 1.3575592 C-2 0 -2 0 0 0 Z " fill="#858689" transform="translate(436,354)"/>
<path d="M0 0 C0.66 0.66 1.32 1.32 2 2 C-1.35444564 7.13872523 -4.79497535 12.16982591 -8.515625 17.05078125 C-9.47489046 18.31044827 -10.42363089 19.57823182 -11.359375 20.85546875 C-14.82569264 25.5778397 -18.53152188 30.07685067 -22.30957031 34.55078125 C-25.33014012 38.14330686 -28.15489852 41.82619208 -30.84375 45.671875 C-31.2253125 46.11015625 -31.606875 46.5484375 -32 47 C-32.66 47 -33.32 47 -34 47 C-31.96158013 42.58342362 -29.44742258 38.44742258 -26 35 C-25.67 34.34 -25.34 33.68 -25 33 C-23.72469009 31.51248861 -22.44660148 30.02723652 -21.15209961 28.55639648 C-13.29488219 19.62757576 -6.00094353 10.29554848 0 0 Z " fill="#B6B7B9" transform="translate(698,648)"/>
<path d="M0 0 C0.99 0.33 1.98 0.66 3 1 C2.34 2.65 1.68 4.3 1 6 C2.32 6.33 3.64 6.66 5 7 C5 7.99 5 8.98 5 10 C6.17369141 10.07347656 6.17369141 10.07347656 7.37109375 10.1484375 C8.38300781 10.22320312 9.39492188 10.29796875 10.4375 10.375 C11.44683594 10.44460938 12.45617187 10.51421875 13.49609375 10.5859375 C14.32238281 10.72257812 15.14867187 10.85921875 16 11 C16.33 11.66 16.66 12.32 17 13 C16.34 13 15.68 13 15 13 C15 13.99 15 14.98 15 16 C15.99 16.33 16.98 16.66 18 17 C18 20.3 18 23.6 18 27 C17.34 26.67 16.68 26.34 16 26 C15.79375 24.95328125 15.5875 23.9065625 15.375 22.828125 C14.03741264 17.71289834 10.19032732 15.59238986 6 12.75 C4.53873571 11.72813686 3.08027389 10.7022514 1.625 9.671875 C0.97789062 9.2294043 0.33078125 8.78693359 -0.3359375 8.33105469 C-2 7 -2 7 -4 4 C-3.01 3.67 -2.02 3.34 -1 3 C-0.67 2.01 -0.34 1.02 0 0 Z " fill="#8B8B8D" transform="translate(350,437)"/>
<path d="M0 0 C0.33 0.66 0.66 1.32 1 2 C0.34 2 -0.32 2 -1 2 C-1 2.66 -1 3.32 -1 4 C-1.66 4 -2.32 4 -3 4 C-2.938125 4.721875 -2.87625 5.44375 -2.8125 6.1875 C-3.09722944 10.45844161 -5.0281492 13.0281492 -8 16 C-8.99 16 -9.98 16 -11 16 C-12.36176581 17.98075027 -13.69593116 19.98079663 -15 22 C-15.66 22 -16.32 22 -17 22 C-17.2475 22.53625 -17.495 23.0725 -17.75 23.625 C-20.23648136 28.34931458 -23.08423608 32.3639335 -27 36 C-27 34.68 -27 33.36 -27 32 C-25.69417053 30.96434215 -24.35622245 29.96873032 -23 29 C-21.96210419 27.35666496 -20.96432076 25.68756133 -20 24 C-19.34 23.21625 -18.68 22.4325 -18 21.625 C-15.80886032 18.99430236 -15.80886032 18.99430236 -14.5625 15.375 C-12.74798898 11.4556562 -11.61784245 11.10339677 -8 9 C-6.33044355 6.98090587 -4.82569129 4.89400381 -3.33203125 2.7421875 C-2 1 -2 1 0 0 Z " fill="#ACADAF" transform="translate(662,696)"/>
<path d="M0 0 C-0.99 0.33 -1.98 0.66 -3 1 C-2.505 1.99 -2.505 1.99 -2 3 C-9.92 3.495 -9.92 3.495 -18 4 C-18 4.66 -18 5.32 -18 6 C-18.763125 6.28875 -19.52625 6.5775 -20.3125 6.875 C-23.15029308 7.96269013 -23.15029308 7.96269013 -26 10 C-28.5 10.125 -28.5 10.125 -31 10 C-31.99 10 -32.98 10 -34 10 C-34.66 9.67 -35.32 9.34 -36 9 C-36 9.99 -36 10.98 -36 12 C-36.66 11.67 -37.32 11.34 -38 11 C-38 10.01 -38 9.02 -38 8 C-4.90525833 -1.67355873 -4.90525833 -1.67355873 0 0 Z " fill="#79787D" transform="translate(57,860)"/>
<path d="M0 0 C1.32 0 2.64 0 4 0 C4.33 0.99 4.66 1.98 5 3 C5.99 2.34 6.98 1.68 8 1 C8.33 1.99 8.66 2.98 9 4 C8.34 4.66 7.68 5.32 7 6 C7.33 6.598125 7.66 7.19625 8 7.8125 C9 10 9 10 9 13 C9.66 13.33 10.32 13.66 11 14 C12.10546875 15.77734375 12.10546875 15.77734375 13.1875 17.9375 C13.55230469 18.64777344 13.91710937 19.35804688 14.29296875 20.08984375 C14.52628906 20.72019531 14.75960937 21.35054687 15 22 C14.67 22.66 14.34 23.32 14 24 C12.35 24 10.7 24 9 24 C9.0825 22.783125 9.165 21.56625 9.25 20.3125 C9.28050848 15.99554964 7.92110028 14.19495343 5 11 C5 10.01 5 9.02 5 8 C4.01 8 3.02 8 2 8 C0.74335022 5.09399739 0 3.20395416 0 0 Z " fill="#BEBFC1" transform="translate(767,728)"/>
<path d="M0 0 C3 1 3 1 4.02734375 2.59375 C4.32769531 3.2228125 4.62804687 3.851875 4.9375 4.5 C6.411072 7.41802626 6.411072 7.41802626 9.25 8.9375 C9.8275 8.958125 10.405 8.97875 11 9 C10.34 9 9.68 9 9 9 C9.495 9.37125 9.99 9.7425 10.5 10.125 C12.59755514 12.74694393 12.21743835 14.73842472 12 18 C12.66 18.33 13.32 18.66 14 19 C14.66 19.99 15.32 20.98 16 22 C18.05925139 22.72382467 18.05925139 22.72382467 20 23 C19.39816251 25.02045442 18.72693904 27.02111039 18 29 C17.34 29.33 16.68 29.66 16 30 C15.67 28.02 15.34 26.04 15 24 C14.34 24 13.68 24 13 24 C10.95830515 21.09451118 10 19.59857954 10 16 C9.34 16 8.68 16 8 16 C8 15.01 8 14.02 8 13 C7.34 12.67 6.68 12.34 6 12 C4.90389102 10.38991245 3.8696934 8.73714081 2.875 7.0625 C2.33617187 6.16660156 1.79734375 5.27070312 1.2421875 4.34765625 C0 2 0 2 0 0 Z " fill="#B0B1B3" transform="translate(796,776)"/>
<path d="M0 0 C0.66 0 1.32 0 2 0 C0.34710721 3.58126772 -1.78322183 6.74410707 -4 10 C-4.99 11.485 -4.99 11.485 -6 13 C-6.66 13 -7.32 13 -8 13 C-7.38821244 9.34603593 -5.8335544 7.13957441 -3.5625 4.25 C-2.94503906 3.45078125 -2.32757812 2.6515625 -1.69140625 1.828125 C-1.13324219 1.22484375 -0.57507813 0.6215625 0 0 Z M-11 13 C-10.01 13.33 -9.02 13.66 -8 14 C-10.04003827 16.52215492 -12.08233455 19.04247252 -14.125 21.5625 C-14.69476562 22.26697266 -15.26453125 22.97144531 -15.8515625 23.69726562 C-19.4987094 28.19403197 -23.21304535 32.62025458 -27 37 C-27 33.0763785 -25.68716498 32.08856677 -23.1875 29.125 C-21.00959877 26.53056029 -19.06546466 24.11280545 -17.36328125 21.1796875 C-16.91339844 20.46039063 -16.46351563 19.74109375 -16 19 C-15.34 19 -14.68 19 -14 19 C-13.690625 18.38125 -13.38125 17.7625 -13.0625 17.125 C-12.375 15.75 -11.6875 14.375 -11 13 Z " fill="#EDEEEE" transform="translate(894,403)"/>
<path d="M0 0 C1.98 0 3.96 0 6 0 C4.49079343 3.01841313 1.99339947 3.56086564 -1 5 C-2.299375 5.804375 -2.299375 5.804375 -3.625 6.625 C-5.82351547 7.89782475 -7.57286305 8.39321576 -10 9 C-10.33 9.66 -10.66 10.32 -11 11 C-11.88429688 11.14179688 -12.76859375 11.28359375 -13.6796875 11.4296875 C-18.40530566 12.24138191 -22.03275848 14.52190481 -26.1953125 16.8203125 C-29 18 -29 18 -31.3671875 17.6796875 C-32.17542969 17.34324219 -32.17542969 17.34324219 -33 17 C-30.21807928 14.75281919 -27.65528839 13.31671851 -24.3125 12.0625 C-20.23205176 10.48895471 -16.22974147 8.81146049 -12.24609375 7.0078125 C-10.66277938 6.29738622 -9.07065793 5.6064301 -7.47265625 4.9296875 C-6.65667969 4.58164062 -5.84070313 4.23359375 -5 3.875 C-4.2575 3.56304687 -3.515 3.25109375 -2.75 2.9296875 C-0.81858346 2.12055868 -0.81858346 2.12055868 0 0 Z " fill="#BABABC" transform="translate(915,336)"/>
<path d="M0 0 C2.31 0 4.62 0 7 0 C7.93065133 2.60582371 8.14917407 3.64198224 7.0625 6.25 C6.5365625 7.11625 6.5365625 7.11625 6 8 C6.99 8.33 7.98 8.66 9 9 C8.649375 9.78375 8.29875 10.5675 7.9375 11.375 C7.628125 12.24125 7.31875 13.1075 7 14 C7.33 14.66 7.66 15.32 8 16 C7.34 16.66 6.68 17.32 6 18 C2.69800644 12.0564116 1.04481337 6.70880162 0 0 Z " fill="#88898B" transform="translate(1479,464)"/>
<path d="M0 0 C7 8.44827586 7 8.44827586 7 12 C5.35 12 3.7 12 2 12 C1.34 13.32 0.68 14.64 0 16 C-0.66 16 -1.32 16 -2 16 C-2.598125 16.598125 -3.19625 17.19625 -3.8125 17.8125 C-6.06346882 20.06346882 -8.19076507 21.5214553 -11 23 C-11.66 23 -12.32 23 -13 23 C-12.3125 20.625 -12.3125 20.625 -11 18 C-8.5625 16.75 -8.5625 16.75 -6 16 C-5.01 15.67 -4.02 15.34 -3 15 C-3 14.34 -3 13.68 -3 13 C-2.34 13 -1.68 13 -1 13 C-1 12.34 -1 11.68 -1 11 C-0.34 11 0.32 11 1 11 C1.08912219 7.16774573 0.87867729 3.73437848 0 0 Z " fill="#67686A" transform="translate(847,859)"/>
<path d="M0 0 C0.99 0.33 1.98 0.66 3 1 C4.17625195 3.94062988 4.01329631 6.46137675 3.625 9.5625 C3.53476563 10.32691406 3.44453125 11.09132813 3.3515625 11.87890625 C3 14 3 14 2 17 C2.66 17 3.32 17 4 17 C4 17.66 4 18.32 4 19 C2 18 0 17 -2 16 C-2.20674944 10.21101581 -1.59162079 5.57067277 0 0 Z " fill="#E6E7E9" transform="translate(1284,352)"/>
<path d="M0 0 C-0.2475 0.66 -0.495 1.32 -0.75 2 C-1.10622633 6.27471599 0.51223057 9.54296976 3 13 C3.99 13.33 4.98 13.66 6 14 C6.84454356 17.37817425 7.10844919 19.67465243 6 23 C4.50693984 20.51452003 3.01644597 18.02767308 1.53515625 15.53515625 C-1.79678166 9.93926992 -1.79678166 9.93926992 -5.375 4.5 C-7 2 -7 2 -7 0 C-2.25 -1.125 -2.25 -1.125 0 0 Z " fill="#BFBFC1" transform="translate(888,913)"/>
<path d="M0 0 C1.32 0.33 2.64 0.66 4 1 C0.34714813 5.48304547 -4.73140091 7.85385947 -10 10 C-10.99 10 -11.98 10 -13 10 C-13.33 8.02 -13.66 6.04 -14 4 C-12.68 3.67 -11.36 3.34 -10 3 C-10 2.34 -10 1.68 -10 1 C-8.68 1 -7.36 1 -6 1 C-5.67 1.99 -5.34 2.98 -5 4 C-4.34 4.33 -3.68 4.66 -3 5 C-2.67 4.01 -2.34 3.02 -2 2 C-1.34 2 -0.68 2 0 2 C0 1.34 0 0.68 0 0 Z " fill="#76777A" transform="translate(1522,536)"/>
<path d="M0 0 C2.62544877 2.38249679 4.28425517 4.94378381 6.0625 8 C7.65396099 10.7212768 9.25037567 13.37556351 11 16 C10.65084845 19.49151548 8.86101593 22.0871055 7 25 C5.75453595 22.50907189 6.2232422 21.58919267 7 19 C6.34 18.67 5.68 18.34 5 18 C4.71080072 16.00773831 4.42735449 14.01277818 4.24609375 12.0078125 C4.0424937 9.79670732 4.0424937 9.79670732 3 7 C2.34 7 1.68 7 1 7 C0.67 4.69 0.34 2.38 0 0 Z " fill="#B4B5B7" transform="translate(524,332)"/>
<path d="M0 0 C0.66 0.33 1.32 0.66 2 1 C0.92319498 2.13125022 -0.16175635 3.25474919 -1.25 4.375 C-1.85328125 5.00148438 -2.4565625 5.62796875 -3.078125 6.2734375 C-4.9700588 7.97310161 -6.68201309 8.98459866 -9 10 C-8.67 10.99 -8.34 11.98 -8 13 C-7.01 13.33 -6.02 13.66 -5 14 C-5.33 15.32 -5.66 16.64 -6 18 C-11.78461538 14.67692308 -11.78461538 14.67692308 -12.875 11.25 C-12.91625 10.5075 -12.9575 9.765 -13 9 C-11.89626579 8.20773051 -10.79199348 7.41621065 -9.6875 6.625 C-8.76517578 5.96371094 -8.76517578 5.96371094 -7.82421875 5.2890625 C-5.25239143 3.47171129 -2.62014959 1.7467664 0 0 Z " fill="#AAABAD" transform="translate(1061,712)"/>
<path d="M0 0 C0 3.54404336 -0.60989485 4.10267905 -2.875 6.6875 C-3.40867187 7.31011719 -3.94234375 7.93273437 -4.4921875 8.57421875 C-6 10 -6 10 -8 10 C-7.67 11.98 -7.34 13.96 -7 16 C-9.31 15.67 -11.62 15.34 -14 15 C-13.1875 12.5625 -13.1875 12.5625 -12 10 C-11.01 9.67 -10.02 9.34 -9 9 C-9 8.34 -9 7.68 -9 7 C-7.5390625 5.52734375 -7.5390625 5.52734375 -5.625 3.9375 C-4.99851562 3.41027344 -4.37203125 2.88304687 -3.7265625 2.33984375 C-2 1 -2 1 0 0 Z " fill="#959698" transform="translate(463,327)"/>
<path d="M0 0 C4.77216051 4.24192045 8.7158519 9.67804014 10 16 C7.69 16 5.38 16 3 16 C1.99767319 12.99301956 1.61866999 10.14593862 1.25390625 7.0078125 C0.95494304 4.6437034 0.50910214 2.32732406 0 0 Z " fill="#828385" transform="translate(830,832)"/>
<path d="M0 0 C0.66 0.33 1.32 0.66 2 1 C1.34773438 1.51949219 0.69546875 2.03898438 0.0234375 2.57421875 C-0.85054687 3.27160156 -1.72453125 3.96898437 -2.625 4.6875 C-3.53507812 5.41324219 -4.44515625 6.13898437 -5.3828125 6.88671875 C-7.45430933 8.55937514 -9.4850284 10.26070859 -11.5 12 C-14 14 -14 14 -16 14 C-16.33 14.99 -16.66 15.98 -17 17 C-17.99 17 -18.98 17 -20 17 C-20.33 17.66 -20.66 18.32 -21 19 C-21.99 18.67 -22.98 18.34 -24 18 C-22.37363466 16.20243831 -20.90230064 14.94273395 -18.80078125 13.7109375 C-15.46405429 11.6726022 -12.44822536 9.34766646 -9.375 6.9375 C-6.29998988 4.53774548 -3.24823355 2.16548904 0 0 Z " fill="#BFC0C2" transform="translate(1088,692)"/>
<path d="M0 0 C0.99 0.33 1.98 0.66 3 1 C2.34 2.65 1.68 4.3 1 6 C2.32 6.33 3.64 6.66 5 7 C5 7.99 5 8.98 5 10 C7.97 10.495 7.97 10.495 11 11 C10.01 12.485 10.01 12.485 9 14 C7.38991848 13.09376275 5.78714075 12.17454201 4.1875 11.25 C3.29417969 10.73953125 2.40085937 10.2290625 1.48046875 9.703125 C-0.97930611 8.01420872 -2.37834834 6.47827164 -4 4 C-3.01 3.67 -2.02 3.34 -1 3 C-0.67 2.01 -0.34 1.02 0 0 Z " fill="#838385" transform="translate(350,437)"/>
<path d="M0 0 C0.66 0.33 1.32 0.66 2 1 C1.42296506 4.61448275 0.04967457 6.2471512 -2.5 8.8125 C-5.963504 12.58764853 -6.89415451 14.91941629 -7 20 C-8.65 20.66 -10.3 21.32 -12 22 C-10.39369175 17.75707468 -8.4231838 13.72974893 -6.375 9.6875 C-6.05015625 9.04232422 -5.7253125 8.39714844 -5.390625 7.73242188 C-4.59558044 6.15402459 -3.79804366 4.57688306 -3 3 C-2.34 3 -1.68 3 -1 3 C-0.67 2.01 -0.34 1.02 0 0 Z " fill="#C7C8CA" transform="translate(510,394)"/>
<path d="M0 0 C0.66 0 1.32 0 2 0 C4.6237974 4.59665269 7.0330708 9.082677 9 14 C9.556875 14.70125 10.11375 15.4025 10.6875 16.125 C11.120625 16.74375 11.55375 17.3625 12 18 C11.67 18.99 11.34 19.98 11 21 C8.5625 20 8.5625 20 6 18 C5.70897831 16.02751966 5.42910058 14.04878229 5.30859375 12.05859375 C4.8211558 8.80695075 2.90084416 6.61366072 1 4 C0.25 1.625 0.25 1.625 0 0 Z " fill="#B3B4B6" transform="translate(675,578)"/>
<path d="M0 0 C0.66 0 1.32 0 2 0 C6 6.625 6 6.625 6 10 C3.69 10 1.38 10 -1 10 C-2.15837626 5.94568308 -1.83691257 3.78187881 0 0 Z " fill="#5C5E60" transform="translate(858,878)"/>
<path d="M0 0 C2.94897721 2.74559948 5.26205705 5.34117274 7 9 C6.6875 11.3125 6.6875 11.3125 6 13 C4.02 13.33 2.04 13.66 0 14 C0.185625 12.989375 0.37125 11.97875 0.5625 10.9375 C0.99768247 7.02085773 0.70853021 3.85755337 0 0 Z " fill="#7F8082" transform="translate(840,848)"/>
<path d="M0 0 C0.99 0.33 1.98 0.66 3 1 C1.02 1.99 1.02 1.99 -1 3 C-0.67 2.01 -0.34 1.02 0 0 Z M-1 3 C-1.5976674 6.54615991 -2.95894574 8.50132351 -5.3125 11.1875 C-6.20388672 12.22970703 -6.20388672 12.22970703 -7.11328125 13.29296875 C-9.11916104 15.10781237 -10.35856894 15.60932477 -13 16 C-12.34 14.35 -11.68 12.7 -11 11 C-10.34 11 -9.68 11 -9 11 C-8.7525 10.4225 -8.505 9.845 -8.25 9.25 C-6.58207452 6.24773413 -4.67725381 3 -1 3 Z " fill="#848587" transform="translate(369,418)"/>
<path d="M0 0 C0.33 0.99 0.66 1.98 1 3 C-0.07421875 4.796875 -0.07421875 4.796875 -1.6875 6.75 C-5.01192981 10.94032781 -7.60510775 15.2102155 -10 20 C-12.5625 20.625 -12.5625 20.625 -15 21 C-12.17197426 15.76815237 -8.97894074 11.18697375 -5.25 6.5625 C-4.74339844 5.92634766 -4.23679687 5.29019531 -3.71484375 4.63476562 C-2.48083259 3.08643087 -1.24102317 1.54272018 0 0 Z " fill="#CBCCCE" transform="translate(1401,325)"/>
<path d="M0 0 C0.66 0.33 1.32 0.66 2 1 C-1.95553125 3.82537946 -5.41015864 5.49947494 -10 7 C-12.53768009 8.21367309 -15.03764584 9.48712138 -17.53515625 10.78125 C-19.98224786 11.9912224 -22.45340404 13.01949247 -25 14 C-25.33 13.34 -25.66 12.68 -26 12 C-22.9802079 10.56030542 -19.95897965 9.12364913 -16.9375 7.6875 C-15.66616211 7.08131836 -15.66616211 7.08131836 -14.36914062 6.46289062 C-11.91733776 5.29852093 -9.46037528 4.14613121 -7 3 C-6.30277832 2.67080566 -5.60555664 2.34161133 -4.88720703 2.00244141 C-3.2850956 1.27262295 -1.64514126 0.62682235 0 0 Z " fill="#ACADAF" transform="translate(949,322)"/>
<path d="M0 0 C2.97 0.99 5.94 1.98 9 3 C5.4321711 6.5678289 3.91813673 6.66081816 -1 7 C-3.9375 6.5625 -3.9375 6.5625 -6 6 C-4.6875 4 -4.6875 4 -3 2 C-2.01 2 -1.02 2 0 2 C0 1.34 0 0.68 0 0 Z " fill="#B8B9BB" transform="translate(121,185)"/>
<path d="M0 0 C0.66 0.33 1.32 0.66 2 1 C1.360625 1.845625 0.72125 2.69125 0.0625 3.5625 C-2.1966273 6.90728565 -2.67791759 9.97396992 -3 14 C-4.65 14.66 -6.3 15.32 -8 16 C-8.35040379 12.26600966 -8.2806564 10.44479027 -6.25 7.2265625 C-5.5075 6.36804688 -4.765 5.50953125 -4 4.625 C-3.2575 3.75101563 -2.515 2.87703125 -1.75 1.9765625 C-1.1725 1.32429687 -0.595 0.67203125 0 0 Z " fill="#EBEDEF" transform="translate(1251,519)"/>
<path d="M0 0 C3.14040799 6.28081598 2.11923294 12.28460238 1 19 C0.34 19 -0.32 19 -1 19 C-1 20.32 -1 21.64 -1 23 C-2.32 23 -3.64 23 -5 23 C-5 21.68 -5 20.36 -5 19 C-4.01 18.67 -3.02 18.34 -2 18 C-1.34 12.06 -0.68 6.12 0 0 Z " fill="#B2B3B5" transform="translate(630,957)"/>
<path d="M0 0 C0.66 0.66 1.32 1.32 2 2 C-8.85106383 19.23404255 -8.85106383 19.23404255 -16 24 C-14.66755645 21.1591298 -13.16070533 18.73597145 -11.25 16.25 C-10.46109375 15.21359375 -10.46109375 15.21359375 -9.65625 14.15625 C-8 12 -8 12 -6.34375 9.84375 C-5.8178125 9.1528125 -5.291875 8.461875 -4.75 7.75 C-4.27046875 7.12609375 -3.7909375 6.5021875 -3.296875 5.859375 C-1.98332389 3.97609088 -0.97383721 2.07629443 0 0 Z " fill="#ACADAF" transform="translate(698,648)"/>
<path d="M0 0 C1.32 0.33 2.64 0.66 4 1 C4 2.98 4 4.96 4 7 C0.92677456 7.91058531 -1.80097361 8.08886184 -5 8 C-3.62845496 5.04590299 -2.01136276 2.55991624 0 0 Z " fill="#949597" transform="translate(1484,176)"/>
<path d="M0 0 C2.97 0.495 2.97 0.495 6 1 C6 1.99 6 2.98 6 4 C6.185625 4.845625 6.37125 5.69125 6.5625 6.5625 C7 9 7 9 6 11 C5.34 11 4.68 11 4 11 C2.67578125 9.35546875 2.67578125 9.35546875 1.3125 7.1875 C0.85488281 6.47980469 0.39726563 5.77210938 -0.07421875 5.04296875 C-1 3 -1 3 0 0 Z " fill="#C0C1C3" transform="translate(873,897)"/>
<path d="M0 0 C-0.33 0.66 -0.66 1.32 -1 2 C-1.9075 2.268125 -2.815 2.53625 -3.75 2.8125 C-7.58366857 4.21326352 -9.2442131 6.03222949 -12 9 C-14.625 11.375 -14.625 11.375 -17 13 C-17.99 12.67 -18.98 12.34 -20 12 C-19.46890625 11.61328125 -18.9378125 11.2265625 -18.390625 10.828125 C-13.92027592 7.53536562 -13.92027592 7.53536562 -9.8125 3.8125 C-6.62399745 0.62399745 -4.45890441 -1.48630147 0 0 Z M-21 13 C-21 16 -21 16 -21 16 Z " fill="#626365" transform="translate(832,886)"/>
<path d="M0 0 C0.33 0 0.66 0 1 0 C0.55247375 6.60815349 0.10312371 13.21643281 -0.5 19.8125 C-0.5721875 20.60269531 -0.644375 21.39289063 -0.71875 22.20703125 C-1 24 -1 24 -2 25 C-2.23075082 26.34747084 -2.41153063 27.70377565 -2.5625 29.0625 C-2.706875 30.361875 -2.85125 31.66125 -3 33 C-3.33 33 -3.66 33 -4 33 C-4.30358452 25.39562942 -3.40531527 18.33836351 -2 10.875 C-1.80921875 9.823125 -1.6184375 8.77125 -1.421875 7.6875 C-0.95568717 5.12346691 -0.48162053 2.56117085 0 0 Z " fill="#E6E7E9" transform="translate(1311,185)"/>
<path d="M0 0 C0.66 0.33 1.32 0.66 2 1 C1.5153125 1.29245605 1.030625 1.58491211 0.53125 1.88623047 C-1.65045514 3.20836476 -3.82523351 4.54148609 -6 5.875 C-7.1446875 6.56529297 -7.1446875 6.56529297 -8.3125 7.26953125 C-9.034375 7.71425781 -9.75625 8.15898437 -10.5 8.6171875 C-11.50546875 9.22989502 -11.50546875 9.22989502 -12.53125 9.85498047 C-13.0159375 10.23283691 -13.500625 10.61069336 -14 11 C-14 11.66 -14 12.32 -14 13 C-16.76264289 13.59732819 -19.16032769 14 -22 14 C-19.95797483 10.93696224 -19.29681143 10.43629197 -16.125 9 C-13.88372062 7.93960975 -11.98829985 6.99122489 -10 5.5 C-6.95335991 3.21501993 -3.57377865 1.33049768 0 0 Z " fill="#EAEBEB" transform="translate(402,19)"/>
<path d="M0 0 C0.99 0.33 1.98 0.66 3 1 C1.63055898 3.94956528 0.12169591 6.52468811 -2 9 C-2.66 9 -3.32 9 -4 9 C-4.66 10.65 -5.32 12.3 -6 14 C-6.66 13.34 -7.32 12.68 -8 12 C-5.6163187 7.65829477 -3.21880117 3.7935871 0 0 Z " fill="#929396" transform="translate(1441,226)"/>
<path d="M0 0 C3.81832118 3.81832118 4.125 8.7642297 4.125 13.9375 C4.09334369 15.29193765 4.05525226 16.64631959 4 18 C3.67 17.01 3.34 16.02 3 15 C2.34 14.67 1.68 14.34 1 14 C-1.74939047 9.36944763 -0.81715601 5.06857578 0 0 Z " fill="#EBEBED" transform="translate(369,490)"/>
<path d="M0 0 C0.33 0.99 0.66 1.98 1 3 C0.0925 3.391875 -0.815 3.78375 -1.75 4.1875 C-5.22686369 6.12652014 -6.61635503 7.87146597 -9 11 C-10.93758343 12.76013148 -12.94950064 14.36892096 -15 16 C-15.66 15.67 -16.32 15.34 -17 15 C-14.54976242 12.49195282 -12.08852402 9.9949924 -9.625 7.5 C-8.57699219 6.42685547 -8.57699219 6.42685547 -7.5078125 5.33203125 C-6.8375 4.65527344 -6.1671875 3.97851562 -5.4765625 3.28125 C-4.85861816 2.65283203 -4.24067383 2.02441406 -3.60400391 1.37695312 C-2 0 -2 0 0 0 Z " fill="#8F9093" transform="translate(436,354)"/>
<path d="M0 0 C-0.99 0.33 -1.98 0.66 -3 1 C-2.67 1.66 -2.34 2.32 -2 3 C-4.22899787 3.16890918 -6.45820662 3.33503687 -8.6875 3.5 C-10.54955078 3.63921875 -10.54955078 3.63921875 -12.44921875 3.78125 C-15.31499329 3.95779937 -18.13099957 4.04388528 -21 4 C-17.61847808 2.10203794 -14.26563452 1.19776958 -10.5 0.3125 C-9.3759375 0.04050781 -8.251875 -0.23148438 -7.09375 -0.51171875 C-4.2315358 -0.9634571 -2.67758663 -0.97784414 0 0 Z " fill="#8F9092" transform="translate(57,860)"/>
<path d="M0 0 C0.61875 0.804375 1.2375 1.60875 1.875 2.4375 C3.74164041 5.03874519 3.74164041 5.03874519 6 6 C7.10546875 7.77734375 7.10546875 7.77734375 8.1875 9.9375 C8.55230469 10.64777344 8.91710937 11.35804688 9.29296875 12.08984375 C9.52628906 12.72019531 9.75960937 13.35054687 10 14 C9.67 14.66 9.34 15.32 9 16 C7.35 16 5.7 16 4 16 C4.0825 14.783125 4.165 13.56625 4.25 12.3125 C4.28050848 7.99554964 2.92110028 6.19495343 0 3 C0 2.01 0 1.02 0 0 Z " fill="#A6A7A9" transform="translate(772,736)"/>
<path d="M0 0 C2.99332739 0.9977758 3.94766315 1.7522025 6 4 C5.01 4.495 5.01 4.495 4 5 C4.22816406 5.60328125 4.45632813 6.2065625 4.69140625 6.828125 C5.12259766 8.02695312 5.12259766 8.02695312 5.5625 9.25 C5.85253906 10.03890625 6.14257812 10.8278125 6.44140625 11.640625 C7.05384098 14.22741227 6.72332269 15.49494634 6 18 C4.99600476 15.37646482 3.99665555 12.75132205 3 10.125 C2.57074219 9.00544922 2.57074219 9.00544922 2.1328125 7.86328125 C0 2.2265625 0 2.2265625 0 0 Z " fill="#78797B" transform="translate(1497,512)"/>
<path d="M0 0 C-2.68841859 2.25245881 -4.64641875 3.88213958 -8 5 C-9.21869929 7.50447516 -9.21869929 7.50447516 -10 10 C-10.66 9.67 -11.32 9.34 -12 9 C-12 7.02 -12 5.04 -12 3 C-10.5682384 2.30062798 -9.12932968 1.61587282 -7.6875 0.9375 C-6.48673828 0.36322266 -6.48673828 0.36322266 -5.26171875 -0.22265625 C-3 -1 -3 -1 0 0 Z " fill="#818284" transform="translate(1193,340)"/>
<path d="M0 0 C0.33 0.66 0.66 1.32 1 2 C0.67 2.66 0.34 3.32 0 4 C-0.66 4 -1.32 4 -2 4 C-2.144375 4.639375 -2.28875 5.27875 -2.4375 5.9375 C-3 8 -3 8 -4 9 C-5.99958364 9.04080783 -8.00045254 9.04254356 -10 9 C-9.34 7.68 -8.68 6.36 -8 5 C-7.34 5 -6.68 5 -6 5 C-4.64567325 3.68799596 -3.31266518 2.35368596 -2 1 C-1.34 0.67 -0.68 0.34 0 0 Z " fill="#98999B" transform="translate(711,971)"/>
<path d="M0 0 C5.75 1.625 5.75 1.625 8 5 C7.625 8.6875 7.625 8.6875 7 12 C5.66104368 10.33784732 4.32869858 8.67036393 3 7 C2.4225 6.29875 1.845 5.5975 1.25 4.875 C0 3 0 3 0 0 Z " fill="#A2A3A5" transform="translate(600,748)"/>
<path d="M0 0 C0.66 0 1.32 0 2 0 C3.4375 2.1171875 3.4375 2.1171875 5 4.875 C7.16744189 8.68883379 7.16744189 8.68883379 10 12 C10 13.32 10 14.64 10 16 C9.34 16 8.68 16 8 16 C5.70105526 13.70105526 5.18356494 12.02466596 4 9 C2.9588597 6.87767553 1.88706895 4.77343315 0.8046875 2.671875 C0 1 0 1 0 0 Z M7 16 C7.33 16.66 7.66 17.32 8 18 C7.34 17.67 6.68 17.34 6 17 C6.33 16.67 6.66 16.34 7 16 Z " fill="#B4B5B7" transform="translate(741,686)"/>
<path d="M0 0 C0.66 0.33 1.32 0.66 2 1 C2.875 3.75 2.875 3.75 3 7 C1.1875 9.875 1.1875 9.875 -1 12 C-1.66 12 -2.32 12 -3 12 C-2.14285714 3.42857143 -2.14285714 3.42857143 0 0 Z " fill="#E0E1E5" transform="translate(1275,412)"/>
<path d="M0 0 C0.66 0 1.32 0 2 0 C3.25664978 2.90600261 4 4.79604584 4 8 C3.34 8 2.68 8 2 8 C1.87625 8.804375 1.7525 9.60875 1.625 10.4375 C1.41875 11.283125 1.2125 12.12875 1 13 C0.01 13.495 0.01 13.495 -1 14 C-0.67 9.38 -0.34 4.76 0 0 Z " fill="#E7E8EA" transform="translate(1290,312)"/>
<path d="M0 0 C-1.71008716 2.10128357 -2.59265657 2.92819709 -5.3046875 3.40625 C-6.15289062 3.4371875 -7.00109375 3.468125 -7.875 3.5 C-12.00217786 3.78359263 -14.63666239 4.42144116 -18 7 C-18 6.01 -18 5.02 -18 4 C-11.70185861 0.6312267 -7.11871364 -0.13958262 0 0 Z " fill="#8D8D90" transform="translate(18,869)"/>
<path d="M0 0 C3 1 3 1 4.5 2.5625 C6.01472806 4.34595268 6.01472806 4.34595268 9 4 C8.979375 4.94875 8.95875 5.8975 8.9375 6.875 C8.77448174 9.90666283 8.77448174 9.90666283 10 12 C7.16582109 11.64880827 6.18351911 11.21508776 4.296875 9.00390625 C3.78640625 8.19824219 3.2759375 7.39257812 2.75 6.5625 C1.96882812 5.35787109 1.96882812 5.35787109 1.171875 4.12890625 C0 2 0 2 0 0 Z " fill="#C0C1C3" transform="translate(839,845)"/>
<path d="M0 0 C0.66 0 1.32 0 2 0 C2 0.66 2 1.32 2 2 C3.65 1.34 5.3 0.68 7 0 C7 3.33333333 7 6.66666667 7 10 C3.60582235 6.87378374 1.3937282 4.43458973 0 0 Z " fill="#AFB1B1" transform="translate(592,736)"/>
<path d="M0 0 C0.33 0.66 0.66 1.32 1 2 C0.34 2 -0.32 2 -1 2 C-1 2.66 -1 3.32 -1 4 C-1.66 4 -2.32 4 -3 4 C-2.938125 4.721875 -2.87625 5.44375 -2.8125 6.1875 C-3.09722944 10.45844161 -5.0281492 13.0281492 -8 16 C-8.66 15.34 -9.32 14.68 -10 14 C-9.566875 13.484375 -9.13375 12.96875 -8.6875 12.4375 C-6.82044626 9.93178844 -6.82044626 9.93178844 -5.5625 6.4375 C-4.03139356 3.06906583 -3.12178521 1.83001202 0 0 Z " fill="#CFD0D2" transform="translate(662,696)"/>
<path d="M0 0 C0.66 0.33 1.32 0.66 2 1 C-0.73929378 2.54074107 -3.49287839 4.05392858 -6.25 5.5625 C-7.02730469 6.00013672 -7.80460938 6.43777344 -8.60546875 6.88867188 C-9.73662109 7.50258789 -9.73662109 7.50258789 -10.890625 8.12890625 C-11.58188477 8.51119385 -12.27314453 8.89348145 -12.98535156 9.28735352 C-15.40070408 10.14174203 -16.62077693 9.84205836 -19 9 C-16.15147334 6.69091719 -13.48437914 5.23981764 -10.0625 3.9375 C-8.81146484 3.45603516 -8.81146484 3.45603516 -7.53515625 2.96484375 C-6.69855469 2.64644531 -5.86195313 2.32804687 -5 2 C-4.11183594 1.60941406 -3.22367188 1.21882813 -2.30859375 0.81640625 C-1.54675781 0.54699219 -0.78492188 0.27757812 0 0 Z " fill="#C2C3C5" transform="translate(901,344)"/>
<path d="M0 0 C0 2.66666667 0 5.33333333 0 8 C-1.98 8.99 -3.96 9.98 -6 11 C-5.55530671 5.96014269 -3.28656638 3.62365012 0 0 Z M-7 11 C-7 11.99 -7 12.98 -7 14 C-7.99 14.495 -7.99 14.495 -9 15 C-8.34 13.68 -7.68 12.36 -7 11 Z " fill="#E8E9EB" transform="translate(433,800)"/>
<path d="M0 0 C2.475 0.495 2.475 0.495 5 1 C5.70074844 4.153368 6 6.72724974 6 10 C3 9 3 9 1.3125 6.125 C0 3 0 3 0 0 Z " fill="#EAEAEC" transform="translate(514,312)"/>
<path d="M0 0 C0.66 0.33 1.32 0.66 2 1 C2 1.99 2 2.98 2 4 C2.99 4.33 3.98 4.66 5 5 C6.1875 8.0625 6.1875 8.0625 7 11 C6.01 10.34 5.02 9.68 4 9 C3.34 9 2.68 9 2 9 C1.34 9 0.68 9 0 9 C-0.87890625 2.84765625 -0.87890625 2.84765625 -1 1 C-0.67 0.67 -0.34 0.34 0 0 Z " fill="#8B8C8E" transform="translate(817,810)"/>
<path d="M0 0 C0.99 0.33 1.98 0.66 3 1 C3.33 2.65 3.66 4.3 4 6 C4.33 5.34 4.66 4.68 5 4 C5.33 4.99 5.66 5.98 6 7 C5.01 7.66 4.02 8.32 3 9 C0.95880212 7.38405168 -1.04072937 5.7143618 -3 4 C-3 3.34 -3 2.68 -3 2 C-2.01 1.34 -1.02 0.68 0 0 Z " fill="#C6C7C9" transform="translate(723,426)"/>
<path d="M0 0 C0.66 0.33 1.32 0.66 2 1 C1.34 2.98 0.68 4.96 0 7 C-0.99 7 -1.98 7 -3 7 C-3.28875 7.639375 -3.5775 8.27875 -3.875 8.9375 C-5 11 -5 11 -7 12 C-6.67566492 6.64847115 -3.50295176 3.71719957 0 0 Z " fill="#A9AAAC" transform="translate(494,294)"/>
<path d="M0 0 C2.15142093 2.50999108 3.84029897 4.57080348 5 7.6875 C5.80796657 10.1614224 5.80796657 10.1614224 8.125 11.3125 C8.74375 11.539375 9.3625 11.76625 10 12 C9.67 13.32 9.34 14.64 9 16 C6.2175651 14.60878255 5.44789935 12.69835788 4 10 C4 9.34 4 8.68 4 8 C3.34 7.67 2.68 7.34 2 7 C0.42451317 4.37418862 0 3.12900213 0 0 Z " fill="#ABACAE" transform="translate(782,752)"/>
<path d="M0 0 C0.66 0 1.32 0 2 0 C2.9765625 1.72526042 3.953125 3.45052083 4.9296875 5.17578125 C5.89428581 6.81982289 6.94267059 8.41400588 8 10 C8 10.99 8 11.98 8 13 C7.34 13 6.68 13 6 13 C5.01 11.02 4.02 9.04 3 7 C2.01 7 1.02 7 0 7 C0 4.69 0 2.38 0 0 Z " fill="#AAABAD" transform="translate(755,709)"/>
<path d="M0 0 C0.99 0 1.98 0 3 0 C3.55808089 1.43120744 4.09596462 2.87030355 4.625 4.3125 C4.92664062 5.11300781 5.22828125 5.91351562 5.5390625 6.73828125 C5.69117188 7.48464844 5.84328125 8.23101563 6 9 C5.01 10.485 5.01 10.485 4 12 C1.24331998 8.04476345 0.4682121 4.77576339 0 0 Z " fill="#C9CACC" transform="translate(1496,518)"/>
<path d="M0 0 C5 3 5 3 6.0625 4.875 C5.96678868 8.12918495 4.13218912 9.67397551 2 12 C1.34 8.04 0.68 4.08 0 0 Z " fill="#F6F7F7" transform="translate(1010,106)"/>
<path d="M0 0 C2 0 2 0 3.5 1.4375 C3.995 1.953125 4.49 2.46875 5 3 C5.66 3.33 6.32 3.66 7 4 C7.99444068 7.34493684 8.10348268 9.68955197 7 13 C4.37528381 8.8004541 2.17220877 4.44365551 0 0 Z " fill="#B9B9BB" transform="translate(887,923)"/>
<path d="M0 0 C2.54379491 1.84205838 4.83312509 3.72478134 7 6 C6.34 7.65 5.68 9.3 5 11 C2 7.25 2 7.25 2 5 C1.34 5 0.68 5 0 5 C-0.5625 3.0625 -0.5625 3.0625 -1 1 C-0.67 0.67 -0.34 0.34 0 0 Z " fill="#BDBEC0" transform="translate(864,883)"/>
<path d="M0 0 C0.86625 0.2784375 0.86625 0.2784375 1.75 0.5625 C4.20692525 1.04023546 5.64397534 0.75729364 8 0 C7.25 2.9375 7.25 2.9375 6 6 C3.875 6.875 3.875 6.875 2 7 C2 6.01 2 5.02 2 4 C1.34 4 0.68 4 0 4 C0 2.68 0 1.36 0 0 Z " fill="#747579" transform="translate(1504,530)"/>
<path d="M0 0 C0.721875 0.165 1.44375 0.33 2.1875 0.5 C1.04534096 3.92647711 -0.05987607 5.20614672 -2.8125 7.5 C-5.5625 8.25 -5.5625 8.25 -7.8125 8.5 C-3.69871444 0.65754923 -3.69871444 0.65754923 0 0 Z " fill="#919294" transform="translate(726.8125,959.5)"/>
<path d="M0 0 C0.66 0.33 1.32 0.66 2 1 C0.85485202 6.41342681 -0.34012809 8.9342948 -5 12 C-5 10.35 -5 8.7 -5 7 C-3.68 6.34 -2.36 5.68 -1 5 C-1.33 4.01 -1.66 3.02 -2 2 C-1.34 1.34 -0.68 0.68 0 0 Z " fill="#BEBFC1" transform="translate(325,960)"/>
<path d="M0 0 C1.91385532 2.87078299 2.96432952 5.33411656 4.125 8.5625 C4.47820312 9.53316406 4.83140625 10.50382812 5.1953125 11.50390625 C6 14 6 14 6 16 C5.01 15.67 4.02 15.34 3 15 C2.67 14.34 2.34 13.68 2 13 C2.66 13 3.32 13 4 13 C4 12.34 4 11.68 4 11 C3.01 10.67 2.02 10.34 1 10 C0.67 6.7 0.34 3.4 0 0 Z " fill="#C7C8CA" transform="translate(1490,496)"/>
<path d="M0 0 C4 1 4 1 6 3 C5.75 6.0625 5.75 6.0625 5 9 C4.01 9.495 4.01 9.495 3 10 C2.01 6.7 1.02 3.4 0 0 Z " fill="#7C7D80" transform="translate(1490,494)"/>
<path d="M0 0 C0 3.72207387 -1.17964568 5.46395589 -3 8.6875 C-3.8353125 10.17830078 -3.8353125 10.17830078 -4.6875 11.69921875 C-5.3371875 12.83810547 -5.3371875 12.83810547 -6 14 C-7.31538327 9.84228506 -6.34433068 7.1120703 -5 3 C-4.34 3 -3.68 3 -3 3 C-2.67 2.34 -2.34 1.68 -2 1 C-1.34 0.67 -0.68 0.34 0 0 Z " fill="#B0B1B4" transform="translate(471,462)"/>
<path d="M0 0 C0.66 0 1.32 0 2 0 C3.125 5.625 3.125 5.625 2 9 C0.0625 8.6875 0.0625 8.6875 -2 8 C-3 5 -3 5 -1.6875 2.3125 C-1.130625 1.549375 -0.57375 0.78625 0 0 Z " fill="#EEEFF2" transform="translate(1301,455)"/>
<path d="M0 0 C1.32 0.33 2.64 0.66 4 1 C4.75 3.125 4.75 3.125 5 6 C3.0625 9.3125 3.0625 9.3125 1 12 C-0.60031344 8.79937313 0.96826309 6.27728194 2 3 C1.34 3 0.68 3 0 3 C0 2.01 0 1.02 0 0 Z " fill="#BABBBD" transform="translate(530,345)"/>
<path d="M0 0 C0.66 0.33 1.32 0.66 2 1 C1.34 2.65 0.68 4.3 0 6 C-0.99 6 -1.98 6 -3 6 C-3 6.66 -3 7.32 -3 8 C-4.65 8.33 -6.3 8.66 -8 9 C-8 8.34 -8 7.68 -8 7 C-6.25 5.2734375 -6.25 5.2734375 -4 3.375 C-3.2575 2.74335938 -2.515 2.11171875 -1.75 1.4609375 C-1.1725 0.97882813 -0.595 0.49671875 0 0 Z " fill="#A3A4A6" transform="translate(486,303)"/>
<path d="M0 0 C0.66 0 1.32 0 2 0 C2 2.64 2 5.28 2 8 C0.35 8.66 -1.3 9.32 -3 10 C-3.2295711 6.63295715 -3.33943529 4.58629732 -1.625 1.625 C-1.08875 1.08875 -0.5525 0.5525 0 0 Z " fill="#98999B" transform="translate(1493,165)"/>
<path d="M0 0 C0.66 0 1.32 0 2 0 C2.67408308 1.26691507 3.33900497 2.53870749 4 3.8125 C4.556875 4.87404297 4.556875 4.87404297 5.125 5.95703125 C6 8 6 8 6 11 C4.02 10.34 2.04 9.68 0 9 C0.33 8.01 0.66 7.02 1 6 C0.72428861 3.99124558 0.39764263 1.98821313 0 0 Z " fill="#8C8D8F" transform="translate(824,821)"/>
<path d="M0 0 C5.01508715 1.54058233 9.6147081 3.02931839 14 6 C13.67 6.66 13.34 7.32 13 8 C11.824375 7.505 11.824375 7.505 10.625 7 C8.15667503 5.88133489 8.15667503 5.88133489 6 6 C5.67 5.34 5.34 4.68 5 4 C3.35636866 3.27840576 1.68949614 2.60648579 0 2 C0 1.34 0 0.68 0 0 Z " fill="#97989A" transform="translate(67,161)"/>
<path d="M0 0 C0.66 0.33 1.32 0.66 2 1 C-0.99110224 3.01361785 -3.99364942 5.00924012 -7 7 C-8.423125 7.9590625 -8.423125 7.9590625 -9.875 8.9375 C-12 10 -12 10 -15 9 C-14.01 8.67 -13.02 8.34 -12 8 C-12 7.34 -12 6.68 -12 6 C-10.04669132 4.96958487 -8.08718472 3.9509107 -6.125 2.9375 C-5.03445313 2.36902344 -3.94390625 1.80054687 -2.8203125 1.21484375 C-1.42425781 0.61349609 -1.42425781 0.61349609 0 0 Z " fill="#E7E9E8" transform="translate(434,0)"/>
<path d="M0 0 C0 3.07868526 -0.43386841 4.35430616 -1.75 7.0625 C-2.07484375 7.75472656 -2.3996875 8.44695313 -2.734375 9.16015625 C-4.23126884 11.33619637 -5.58150096 12.0193901 -8 13 C-8 12.01 -8 11.02 -8 10 C-7.34 10 -6.68 10 -6 10 C-5.7525 9.0925 -5.505 8.185 -5.25 7.25 C-3.96018658 3.89648511 -2.68028958 2.32291764 0 0 Z " fill="#B2B3B5" transform="translate(629,737)"/>
<path d="M0 0 C0.66 0.33 1.32 0.66 2 1 C-3.91684902 7.70459519 -3.91684902 7.70459519 -8.4375 8.9375 C-9.283125 8.958125 -10.12875 8.97875 -11 9 C-7.72570907 4.66637965 -5.23013834 1.97583004 0 0 Z " fill="#B6B7B9" transform="translate(1061,712)"/>
<path d="M0 0 C1.9375 0.625 1.9375 0.625 4 2 C4.75 5.125 4.75 5.125 5 8 C2.69 9.65 0.38 11.3 -2 13 C-1 9 -1 9 1.0625 7.75 C1.701875 7.5025 2.34125 7.255 3 7 C2.505 6.21625 2.01 5.4325 1.5 4.625 C0 2 0 2 0 0 Z " fill="#B1B2B4" transform="translate(707,630)"/>
<path d="M0 0 C0.99 0.33 1.98 0.66 3 1 C3 4 3 4 1.0625 6 C0.381875 6.66 -0.29875 7.32 -1 8 C-1.33 8.99 -1.66 9.98 -2 11 C-5.0625 12.6875 -5.0625 12.6875 -8 14 C-7.1875 12.0625 -7.1875 12.0625 -6 10 C-5.01 9.67 -4.02 9.34 -3 9 C-1.97718482 6.90280128 -1.97718482 6.90280128 -1.3125 4.4375 C-1.06113281 3.61121094 -0.80976562 2.78492188 -0.55078125 1.93359375 C-0.36902344 1.29550781 -0.18726563 0.65742188 0 0 Z " fill="#EBECED" transform="translate(1034,228)"/>
<path d="M0 0 C0.99 0.33 1.98 0.66 3 1 C1.35 2.65 -0.3 4.3 -2 6 C-1.34 4.02 -0.68 2.04 0 0 Z M-3 6 C-2.67 6.66 -2.34 7.32 -2 8 C-2.9375 10.125 -2.9375 10.125 -4 12 C-4.66 12 -5.32 12 -6 12 C-4.125 7.125 -4.125 7.125 -3 6 Z M-7 12 C-7 12.99 -7 13.98 -7 15 C-7.99 15.495 -7.99 15.495 -9 16 C-8.34 14.68 -7.68 13.36 -7 12 Z " fill="#E6E7E9" transform="translate(411,832)"/>
<path d="M0 0 C1.485 0.99 1.485 0.99 3 2 C3 2.99 3 3.98 3 5 C3.66 5 4.32 5 5 5 C8.07692308 10.41538462 8.07692308 10.41538462 7.6875 13.375 C7.460625 13.91125 7.23375 14.4475 7 15 C6.67 14.01 6.34 13.02 6 12 C5.34 11.67 4.68 11.34 4 11 C3.30341637 9.34561387 2.63903117 7.67745682 2 6 C1.34 5.01 0.68 4.02 0 3 C0 2.01 0 1.02 0 0 Z " fill="#B8B9BB" transform="translate(733,672)"/>
<path d="M0 0 C0.93065133 2.60582371 1.14917407 3.64198224 0.0625 6.25 C-0.4634375 7.11625 -0.4634375 7.11625 -1 8 C-2.32 8 -3.64 8 -5 8 C-5.33 8.66 -5.66 9.32 -6 10 C-5.35389319 6.51102321 -3.98128683 3.93230451 -2 1 C-1.34 0.67 -0.68 0.34 0 0 Z " fill="#EBEFF1" transform="translate(1263,504)"/>
<path d="M0 0 C0.66 0 1.32 0 2 0 C2 0.99 2 1.98 2 3 C-0.31 4.32 -2.62 5.64 -5 7 C-6.125 3.25 -6.125 3.25 -5 1 C-3.35 1 -1.7 1 0 1 C0 0.67 0 0.34 0 0 Z " fill="#B6B7B9" transform="translate(734,952)"/>
<path d="M0 0 C0.33 0.66 0.66 1.32 1 2 C0.01 3.485 0.01 3.485 -1 5 C-1.66 5 -2.32 5 -3 5 C-3.103125 5.78375 -3.20625 6.5675 -3.3125 7.375 C-4 10 -4 10 -7 12 C-7.3125 9.8125 -7.3125 9.8125 -7 7 C-4.625 4.3125 -4.625 4.3125 -2 2 C-1.34 1.34 -0.68 0.68 0 0 Z " fill="#C1C2C4" transform="translate(351,923)"/>
<path d="M0 0 C4.69350812 1.24239921 6.77517676 3.77007922 9.66796875 7.44140625 C10.93649295 9.13049223 10.93649295 9.13049223 13 10 C12.67 10.66 12.34 11.32 12 12 C6.88327027 8.49777237 3.09355668 5.41372419 0 0 Z " fill="#BEBFC1" transform="translate(1066,740)"/>
<path d="M0 0 C0.66 0.33 1.32 0.66 2 1 C2 1.99 2 2.98 2 4 C1.0925 4.4125 0.185 4.825 -0.75 5.25 C-3.79665618 6.89050718 -5.71126806 8.44718361 -8 11 C-8.66 10.67 -9.32 10.34 -10 10 C-6.7 6.7 -3.4 3.4 0 0 Z " fill="#8B8C8F" transform="translate(408,380)"/>
<path d="M0 0 C1.0625 1.8125 1.0625 1.8125 2 4 C1.67 4.99 1.34 5.98 1 7 C-0.65 6.67 -2.3 6.34 -4 6 C-3.6875 4.125 -3.6875 4.125 -3 2 C-2.01 1.34 -1.02 0.68 0 0 Z " fill="#959698" transform="translate(1430,241)"/>
<path d="M0 0 C2.66666667 0.66666667 5.33333333 1.33333333 8 2 C7.34 3.32 6.68 4.64 6 6 C4.35 6 2.7 6 1 6 C0 3 0 3 0 0 Z " fill="#909195" transform="translate(103,178)"/>
<path d="M0 0 C3.93846154 4.30769231 3.93846154 4.30769231 4.25 7.8125 C4.1675 8.534375 4.085 9.25625 4 10 C3.34 10 2.68 10 2 10 C1.67 10.99 1.34 11.98 1 13 C0.34 13 -0.32 13 -1 13 C-1 12.34 -1 11.68 -1 11 C-0.34 11 0.32 11 1 11 C1.08912219 7.16774573 0.87867729 3.73437848 0 0 Z " fill="#7D7E80" transform="translate(847,859)"/>
<path d="M0 0 C0 0.66 0 1.32 0 2 C-4.41225737 3.47075246 -7.48281619 4.36884358 -12 3 C-8.40198016 -0.59801984 -4.84291279 -0.09137571 0 0 Z " fill="#848388" transform="translate(39,864)"/>
<path d="M0 0 C3.465 1.98 3.465 1.98 7 4 C6.67 4.66 6.34 5.32 6 6 C3.23723823 5.47731534 0.6739124 4.89130413 -2 4 C-1.34 2.68 -0.68 1.36 0 0 Z " fill="#EBECEE" transform="translate(1401,746)"/>
<path d="M0 0 C1.09658936 3.28976808 0.79953138 4.71303767 0 8 C-1.32 8 -2.64 8 -4 8 C-4.33 7.01 -4.66 6.02 -5 5 C-3.35 3.35 -1.7 1.7 0 0 Z " fill="#EFF0F2" transform="translate(1239,536)"/>
<path d="M0 0 C0.66 0 1.32 0 2 0 C2 1.32 2 2.64 2 4 C1.34 4 0.68 4 0 4 C0.66 5.65 1.32 7.3 2 9 C0.35 9.33 -1.3 9.66 -3 10 C-2.39009109 6.44219804 -1.4216319 3.3171411 0 0 Z " fill="#E2E3E7" transform="translate(445,509)"/>
<path d="M0 0 C1.65 0.33 3.3 0.66 5 1 C4.75 2.875 4.75 2.875 4 5 C1.9375 6.25 1.9375 6.25 0 7 C-1.125 2.25 -1.125 2.25 0 0 Z M1 3 C2 5 2 5 2 5 Z " fill="#E2E3E5" transform="translate(1353,321)"/>
<path d="M0 0 C4.24822374 0.47202486 6.19989709 2.96655518 9 6 C8.67 6.66 8.34 7.32 8 8 C6.35 8 4.7 8 3 8 C3.061875 7.236875 3.12375 6.47375 3.1875 5.6875 C3.25898085 2.95474688 3.25898085 2.95474688 1.5 1.1875 C1.005 0.795625 0.51 0.40375 0 0 Z " fill="#F3F3F3" transform="translate(533,264)"/>
<path d="M0 0 C0.66 0.33 1.32 0.66 2 1 C-2.625 4 -2.625 4 -6 4 C-6.33 4.99 -6.66 5.98 -7 7 C-10 9 -10 9 -12.1875 8.625 C-12.785625 8.41875 -13.38375 8.2125 -14 8 C-9.25 5 -9.25 5 -7 5 C-7 4.34 -7 3.68 -7 3 C-4.69631264 1.93347808 -2.35981813 0.93578995 0 0 Z " fill="#C3C4C6" transform="translate(92,203)"/>
<path d="M0 0 C0.66 0.33 1.32 0.66 2 1 C1.09827532 2.17825358 0.17798498 3.34231577 -0.75 4.5 C-1.51570313 5.47453125 -1.51570313 5.47453125 -2.296875 6.46875 C-4 8 -4 8 -8 8 C-6.49776416 3.79373966 -3.71449966 2.26099979 0 0 Z " fill="#969799" transform="translate(1508,151)"/>
<path d="M0 0 C0.66 0.33 1.32 0.66 2 1 C-0.30718811 5.28477792 -2.32966073 8.72291137 -6 12 C-6.3125 9.8125 -6.3125 9.8125 -6 7 C-3.5625 4.3125 -3.5625 4.3125 -1 2 C-0.67 1.34 -0.34 0.68 0 0 Z " fill="#C2C3C5" transform="translate(334,948)"/>
<path d="M0 0 C4.60209225 -0.17700355 6.78370866 -0.10814567 11 2 C7.37 2.66 3.74 3.32 0 4 C0 2.68 0 1.36 0 0 Z " fill="#BBBABF" transform="translate(16,865)"/>
<path d="M0 0 C2.475 0.495 2.475 0.495 5 1 C4.67 3.31 4.34 5.62 4 8 C3.01 7.67 2.02 7.34 1 7 C0.67 4.69 0.34 2.38 0 0 Z " fill="#B2B3B7" transform="translate(792,768)"/>
<path d="M0 0 C2.99324263 1.0975223 3.84610901 1.67682892 5.25 4.625 C5.4975 5.40875 5.745 6.1925 6 7 C5.34 7 4.68 7 4 7 C4 6.34 4 5.68 4 5 C2.35 5 0.7 5 -1 5 C-1.33 4.01 -1.66 3.02 -2 2 C-1.34 1.34 -0.68 0.68 0 0 Z " fill="#B4B4B6" transform="translate(498,291)"/>
<path d="M0 0 C0.66 0 1.32 0 2 0 C2.875 3.1875 2.875 3.1875 3 7 C1.21974097 9.21299892 -0.60637719 10.38796831 -3 12 C-2.690625 11.13375 -2.38125 10.2675 -2.0625 9.375 C-1.07508101 6.23849262 -0.46418941 3.24932587 0 0 Z " fill="#E0E1E3" transform="translate(1442,216)"/>
<path d="M0 0 C2 1 2 1 3.125 3.1875 C4.08328236 6.26769331 4.14915816 8.79309948 4 12 C3.01 12.495 3.01 12.495 2 13 C-0.28571429 4.57142857 -0.28571429 4.57142857 0 0 Z " fill="#F6F8F7" transform="translate(1001,59)"/>
<path d="M0 0 C0.99 0.33 1.98 0.66 3 1 C2.01 1.33 1.02 1.66 0 2 C-0.33 2.99 -0.66 3.98 -1 5 C-1.99 5 -2.98 5 -4 5 C-4.33 5.66 -4.66 6.32 -5 7 C-5.99 6.67 -6.98 6.34 -8 6 C-5.63055987 3.38114512 -3.16266898 1.58133449 0 0 Z " fill="#B6B7BA" transform="translate(1072,704)"/>
<path d="M0 0 C1.66666667 0 3.33333333 0 5 0 C6.25541557 3.76624671 5.37061958 5.37188934 4 9 C3.71125 8.38125 3.4225 7.7625 3.125 7.125 C2.06279958 4.86674235 2.06279958 4.86674235 0 3 C0 2.01 0 1.02 0 0 Z " fill="#C4C5C7" transform="translate(728,664)"/>
<path d="M0 0 C-0.33 0.66 -0.66 1.32 -1 2 C-3.28515625 2.4140625 -3.28515625 2.4140625 -6.0625 2.625 C-6.98160156 2.69976563 -7.90070312 2.77453125 -8.84765625 2.8515625 C-9.55792969 2.90054688 -10.26820312 2.94953125 -11 3 C-11 2.01 -11 1.02 -11 0 C-7.01803543 -1.05404945 -4.01804691 -0.84098656 0 0 Z " fill="#BBBCBE" transform="translate(61,857)"/>
<path d="M0 0 C2.97 0.495 2.97 0.495 6 1 C5.34 2.65 4.68 4.3 4 6 C3.01 6 2.02 6 1 6 C0.67 4.02 0.34 2.04 0 0 Z " fill="#717174" transform="translate(1508,540)"/>
<path d="M0 0 C1.98 0.495 1.98 0.495 4 1 C4.6875 2.8125 4.6875 2.8125 5 5 C3.5625 6.75 3.5625 6.75 2 8 C1.34 7.67 0.68 7.34 0 7 C0.66 6.01 1.32 5.02 2 4 C1.01 3.67 0.02 3.34 -1 3 C-0.67 2.01 -0.34 1.02 0 0 Z " fill="#E1E2E5" transform="translate(369,409)"/>
<path d="M0 0 C2.5 1.375 2.5 1.375 5 3 C5 3.66 5 4.32 5 5 C5.66 5.33 6.32 5.66 7 6 C5.00045254 6.04254356 2.99958364 6.04080783 1 6 C0 5 0 5 -0.0625 2.4375 C-0.041875 1.633125 -0.02125 0.82875 0 0 Z " fill="#BDBFBE" transform="translate(880,218)"/>
<path d="M0 0 C0.33 0.66 0.66 1.32 1 2 C1.639375 2.309375 2.27875 2.61875 2.9375 2.9375 C5 4 5 4 7 7 C4.69 7 2.38 7 0 7 C0 4.69 0 2.38 0 0 Z " fill="#BFC0C2" transform="translate(872,209)"/>
<path d="M0 0 C0.66 0.33 1.32 0.66 2 1 C1.67 2.32 1.34 3.64 1 5 C0.34 5 -0.32 5 -1 5 C-1.66 6.32 -2.32 7.64 -3 9 C-3.75 7.3125 -3.75 7.3125 -4 5 C-2.0625 2.25 -2.0625 2.25 0 0 Z " fill="#8E8F92" transform="translate(1462,202)"/>
<path d="M0 0 C-3.90102388 2.78644563 -7.38486888 4.68139111 -12 6 C-12 5.34 -12 4.68 -12 4 C-10.56988027 3.13353333 -9.13059381 2.28218171 -7.6875 1.4375 C-6.48673828 0.72400391 -6.48673828 0.72400391 -5.26171875 -0.00390625 C-3 -1 -3 -1 0 0 Z " fill="#E8E9EB" transform="translate(418,12)"/>
<path d="M0 0 C3 1 3 1 3 1 Z M-4 2 C-3.01 2.33 -2.02 2.66 -1 3 C-2.12073862 3.83905565 -3.24674547 4.67107831 -4.375 5.5 C-5.00148438 5.9640625 -5.62796875 6.428125 -6.2734375 6.90625 C-8 8 -8 8 -10 8 C-10 7.34 -10 6.68 -10 6 C-7.1875 3.8125 -7.1875 3.8125 -4 2 Z " fill="#727274" transform="translate(796,910)"/>
<path d="M0 0 C2.92879371 0.62759865 5.36095629 1.58622659 8 3 C5.525 4.485 5.525 4.485 3 6 C0 2.25 0 2.25 0 0 Z " fill="#BFC3C4" transform="translate(856,872)"/>
<path d="M0 0 C1.32 0.66 2.64 1.32 4 2 C2.02 4.97 2.02 4.97 0 8 C-0.66 7.01 -1.32 6.02 -2 5 C-1.125 2.3125 -1.125 2.3125 0 0 Z " fill="#CDCED0" transform="translate(427,801)"/>
<path d="M0 0 C0.99 0.33 1.98 0.66 3 1 C2.55090939 2.48199902 2.09043436 3.96055236 1.625 5.4375 C1.36976563 6.26121094 1.11453125 7.08492187 0.8515625 7.93359375 C0 10 0 10 -2 11 C-1.67 9.02 -1.34 7.04 -1 5 C-0.34 5 0.32 5 1 5 C0.34 3.68 -0.32 2.36 -1 1 C-0.67 0.67 -0.34 0.34 0 0 Z " fill="#ADAEB2" transform="translate(443,506)"/>
<path d="M0 0 C0.66 0.99 1.32 1.98 2 3 C2.99 3 3.98 3 5 3 C3.68 4.32 2.36 5.64 1 7 C1 6.34 1 5.68 1 5 C0.34 5 -0.32 5 -1 5 C-1 5.99 -1 6.98 -1 8 C-1.66 8 -2.32 8 -3 8 C-2.690625 7.236875 -2.38125 6.47375 -2.0625 5.6875 C-1.32106407 3.81210323 -0.63771783 1.91315348 0 0 Z " fill="#D0D1D3" transform="translate(483,440)"/>
<path d="M0 0 C0.66 0.33 1.32 0.66 2 1 C1.3125 3.4375 1.3125 3.4375 0 6 C-2.625 6.8125 -2.625 6.8125 -5 7 C-5 5 -5 5 -2.5 2.375 C-1.675 1.59125 -0.85 0.8075 0 0 Z " fill="#AFB0B4" transform="translate(1277,419)"/>
<path d="M0 0 C0.66 0.33 1.32 0.66 2 1 C-2.38512875 4.31558515 -5.37458159 5.54996653 -11 6 C-11 5.34 -11 4.68 -11 4 C-9.39125 3.566875 -9.39125 3.566875 -7.75 3.125 C-4.16546862 2.17357654 -4.16546862 2.17357654 -1.6875 0.8125 C-1.130625 0.544375 -0.57375 0.27625 0 0 Z " fill="#C2C2C4" transform="translate(880,354)"/>
<path d="M0 0 C2 3 2 3 2 5 C-0.31 4.67 -2.62 4.34 -5 4 C-4.67 3.01 -4.34 2.02 -4 1 C-1.9375 0.3125 -1.9375 0.3125 0 0 Z " fill="#8F9092" transform="translate(454,338)"/>
<path d="M0 0 C0 0.99 0 1.98 0 3 C-0.99 3.33 -1.98 3.66 -3 4 C-3.0825 4.763125 -3.165 5.52625 -3.25 6.3125 C-4.14615794 9.52373261 -5.21611025 10.29374499 -8 12 C-7.34 10.02 -6.68 8.04 -6 6 C-5.34 6 -4.68 6 -4 6 C-4 5.01 -4 4.02 -4 3 C-2 1.3125 -2 1.3125 0 0 Z " fill="#C0C0C1" transform="translate(953,330)"/>
<path d="M0 0 C0.598125 0.165 1.19625 0.33 1.8125 0.5 C4.11344336 1.1114124 4.11344336 1.1114124 7 1 C7 1.66 7 2.32 7 3 C7.66 3 8.32 3 9 3 C8.67 3.99 8.34 4.98 8 6 C1.125 2.25 1.125 2.25 0 0 Z " fill="#ACAEAE" transform="translate(16,198)"/>
<path d="M0 0 C2 1 4 2 6 3 C6 3.99 6 4.98 6 6 C5.01 6.33 4.02 6.66 3 7 C2.34 6.67 1.68 6.34 1 6 C0.375 2.9375 0.375 2.9375 0 0 Z " fill="#F3F3F3" transform="translate(7,193)"/>
<path d="M0 0 C-7.64765101 3.91275168 -7.64765101 3.91275168 -11 5 C-11.99 4.67 -12.98 4.34 -14 4 C-12.75264433 3.3490741 -11.50198168 2.70448331 -10.25 2.0625 C-9.55390625 1.70285156 -8.8578125 1.34320313 -8.140625 0.97265625 C-2.85659656 -1.42829828 -2.85659656 -1.42829828 0 0 Z " fill="#C5C6C8" transform="translate(848,371)"/>
<path d="M0 0 C0.66 0.33 1.32 0.66 2 1 C-0.87494471 4.98069267 -3.82117329 7.43571997 -8 10 C-6.34908222 5.70761377 -3.26245434 3.1206085 0 0 Z " fill="#939496" transform="translate(445,343)"/>
<path d="M0 0 C1.66666667 0 3.33333333 0 5 0 C4.60196439 2.88575819 4.20990931 3.82189513 1.9375 5.75 C1.298125 6.1625 0.65875 6.575 0 7 C0 4.69 0 2.38 0 0 Z " fill="#E0E1E3" transform="translate(1361,313)"/>
<path d="M0 0 C1.125 5.75 1.125 5.75 0 8 C-3 4.25 -3 4.25 -3 2 C-3.66 1.67 -4.32 1.34 -5 1 C-3 0 -3 0 0 0 Z " fill="#EFEFF1" transform="translate(503,288)"/>
<path d="M0 0 C0.66 0 1.32 0 2 0 C2.66 1.98 3.32 3.96 4 6 C1.69 6 -0.62 6 -3 6 C-2.34 5.67 -1.68 5.34 -1 5 C-0.34444881 2.47266765 -0.34444881 2.47266765 0 0 Z " fill="#6A6B6D" transform="translate(875,906)"/>
<path d="M0 0 C0 2.33333333 0 4.66666667 0 7 C-0.99 7.66 -1.98 8.32 -3 9 C-3.99 8.67 -4.98 8.34 -6 8 C-5.67 7.34 -5.34 6.68 -5 6 C-4.34 6 -3.68 6 -3 6 C-2.690625 5.195625 -2.38125 4.39125 -2.0625 3.5625 C-1 1 -1 1 0 0 Z " fill="#CBCCCE" transform="translate(366,900)"/>
<path d="M0 0 C0.99 0.33 1.98 0.66 3 1 C3.99 1 4.98 1 6 1 C4.68 2.65 3.36 4.3 2 6 C0 5 0 5 -1 2 C-0.67 1.34 -0.34 0.68 0 0 Z " fill="#C0C1C3" transform="translate(369,888)"/>
<path d="M0 0 C0.66 0 1.32 0 2 0 C0.52307692 6.64615385 0.52307692 6.64615385 -2.125 8.4375 C-2.74375 8.623125 -3.3625 8.80875 -4 9 C-2.80100302 5.9168649 -1.52299523 2.93720508 0 0 Z " fill="#EDEEF0" transform="translate(445,780)"/>
<path d="M0 0 C3.33557632 2.9905167 5.15083921 5.93184627 7 10 C6.01 10 5.02 10 4 10 C4 9.01 4 8.02 4 7 C3.34 6.67 2.68 6.34 2 6 C0.96854629 4.69084721 -0.03542166 3.35917857 -1 2 C-0.67 1.34 -0.34 0.68 0 0 Z " fill="#B1B2B4" transform="translate(697,614)"/>
<path d="M0 0 C2.5654594 2.5654594 2.54046087 4.47686668 3 8 C1.68 7.67 0.36 7.34 -1 7 C-0.67 4.69 -0.34 2.38 0 0 Z " fill="#CFD0D4" transform="translate(1474,456)"/>
<path d="M0 0 C0 0.66 0 1.32 0 2 C-1.7015625 2.433125 -1.7015625 2.433125 -3.4375 2.875 C-4.613125 3.24625 -5.78875 3.6175 -7 4 C-7.33 4.66 -7.66 5.32 -8 6 C-8.66 6 -9.32 6 -10 6 C-7.82304683 0.97626191 -5.41372848 -0.29263397 0 0 Z " fill="#B2B2B4" transform="translate(912,341)"/>
<path d="M0 0 C0.33 0.99 0.66 1.98 1 3 C3.01508358 3.73323796 3.01508358 3.73323796 5 4 C2.66785852 5.20628008 0.50357861 6.1654738 -2 7 C-2.33 6.01 -2.66 5.02 -3 4 C-2.01 3.67 -1.02 3.34 0 3 C0 2.01 0 1.02 0 0 Z " fill="#CBCCCE" transform="translate(1203,328)"/>
<path d="M0 0 C1.32 0.33 2.64 0.66 4 1 C3.67 4.3 3.34 7.6 3 11 C2.67 11 2.34 11 2 11 C1.34 7.37 0.68 3.74 0 0 Z " fill="#F3F4F6" transform="translate(1028,197)"/>
<path d="M0 0 C2.50357192 1.25178596 4.06433379 2.99981158 6 5 C0.25 5.125 0.25 5.125 -2 4 C-1.34 2.68 -0.68 1.36 0 0 Z " fill="#E2E3E5" transform="translate(114,177)"/>
<path d="M0 0 C0.66 0 1.32 0 2 0 C2 0.66 2 1.32 2 2 C3.32 2.66 4.64 3.32 6 4 C5.67 4.99 5.34 5.98 5 7 C4.34 6.67 3.68 6.34 3 6 C3 5.34 3 4.68 3 4 C1.68 3.67 0.36 3.34 -1 3 C-0.67 2.01 -0.34 1.02 0 0 Z " fill="#C3C4C6" transform="translate(801,137)"/>
<path d="M0 0 C0.99 0.33 1.98 0.66 3 1 C0.36 2.65 -2.28 4.3 -5 6 C-5.33 4.68 -5.66 3.36 -6 2 C-4.02 2 -2.04 2 0 2 C0 1.34 0 0.68 0 0 Z " fill="#AFB0B2" transform="translate(749,942)"/>
<path d="M0 0 C3 0 3 0 6 2 C3.69 3.32 1.38 4.64 -1 6 C-1.042721 4.33388095 -1.04063832 2.66617115 -1 1 C-0.67 0.67 -0.34 0.34 0 0 Z " fill="#A6A6A8" transform="translate(785,912)"/>
<path d="M0 0 C0.66 0 1.32 0 2 0 C2.66 1.98 3.32 3.96 4 6 C2.02 6.99 2.02 6.99 0 8 C-1.09658936 4.71023192 -0.79953138 3.28696233 0 0 Z " fill="#626365" transform="translate(865,890)"/>
<path d="M0 0 C0.99 0.66 1.98 1.32 3 2 C3 2.66 3 3.32 3 4 C1.35 4 -0.3 4 -2 4 C-2 3.34 -2 2.68 -2 2 C-1.34 2 -0.68 2 0 2 C0 1.34 0 0.68 0 0 Z M-3 4 C-2.67 4.66 -2.34 5.32 -2 6 C-2.66 6.66 -3.32 7.32 -4 8 C-4.33 7.01 -4.66 6.02 -5 5 C-4.34 4.67 -3.68 4.34 -3 4 Z " fill="#59595B" transform="translate(851,867)"/>
<path d="M0 0 C4.75 1.875 4.75 1.875 7 3 C6.67 3.66 6.34 4.32 6 5 C4.35 5 2.7 5 1 5 C0.67 3.35 0.34 1.7 0 0 Z " fill="#E2E3E5" transform="translate(1476,795)"/>
<path d="M0 0 C3.80383334 1.26794445 4.24082925 2.48165849 6 6 C6.6875 8.8125 6.6875 8.8125 7 11 C6.34 11 5.68 11 5 11 C4.35165346 9.730447 3.70642185 8.45930294 3.0625 7.1875 C2.70285156 6.47980469 2.34320312 5.77210938 1.97265625 5.04296875 C1 3 1 3 0 0 Z " fill="#A5A6A9" transform="translate(796,776)"/>
<path d="M0 0 C1.32 0 2.64 0 4 0 C6.125 4.625 6.125 4.625 5 8 C2.5 5.6875 2.5 5.6875 0 3 C0 2.01 0 1.02 0 0 Z " fill="#C0C0C0" transform="translate(146,672)"/>
<path d="M0 0 C0.66 0 1.32 0 2 0 C2.33 1.65 2.66 3.3 3 5 C1.02 5.66 -0.96 6.32 -3 7 C-1.125 2.25 -1.125 2.25 0 0 Z " fill="#EAEBED" transform="translate(1293,464)"/>
<path d="M0 0 C0.33 0.66 0.66 1.32 1 2 C0.0625 4.125 0.0625 4.125 -1 6 C-1.66 6 -2.32 6 -3 6 C-3 7.32 -3 8.64 -3 10 C-3.66 10 -4.32 10 -5 10 C-4.34 7.69 -3.68 5.38 -3 3 C-2.34 3 -1.68 3 -1 3 C-0.67 2.01 -0.34 1.02 0 0 Z " fill="#BDBEC2" transform="translate(527,362)"/>
<path d="M0 0 C3.73487777 0.4979837 5.81237635 0.87491756 9 3 C9 3.66 9 4.32 9 5 C7.35 5.33 5.7 5.66 4 6 C4 5.01 4 4.02 4 3 C2.05990478 1.29467677 2.05990478 1.29467677 0 0 Z " fill="#919294" transform="translate(112,182)"/>
<path d="M0 0 C-3.4352048 2.29013653 -4.985331 2.17842973 -9 2 C-9.33 1.34 -9.66 0.68 -10 0 C-5.91847062 -2.09907226 -4.08152938 -2.09907226 0 0 Z " fill="#F5F5F5" transform="translate(167,686)"/>
<path d="M0 0 C0.66 0.66 1.32 1.32 2 2 C0.02 4.64 -1.96 7.28 -4 10 C-4.66 9.67 -5.32 9.34 -6 9 C-5.071875 7.88625 -5.071875 7.88625 -4.125 6.75 C-2.39562719 4.51198812 -1.13893339 2.56260013 0 0 Z " fill="#A1A2A4" transform="translate(698,648)"/>
<path d="M0 0 C0.66 0.33 1.32 0.66 2 1 C1.34 2.32 0.68 3.64 0 5 C-1.65 5 -3.3 5 -5 5 C-5 4.34 -5 3.68 -5 3 C-2.625 1.3125 -2.625 1.3125 0 0 Z " fill="#EBECEF" transform="translate(414,567)"/>
<path d="M0 0 C0.66 0.33 1.32 0.66 2 1 C1.67 3.31 1.34 5.62 1 8 C0.01 8 -0.98 8 -2 8 C-2.20086443 4.28400809 -2.1519437 3.22791555 0 0 Z " fill="#EDEEF0" transform="translate(1231,544)"/>
<path d="M0 0 C1.32 0.33 2.64 0.66 4 1 C1.47211993 3.79872437 -0.20411134 5.45773019 -4 6 C-3.34 4.68 -2.68 3.36 -2 2 C-1.34 2 -0.68 2 0 2 C0 1.34 0 0.68 0 0 Z " fill="#7F7F80" transform="translate(1522,536)"/>
<path d="M0 0 C0.66 1.32 1.32 2.64 2 4 C-0.375 5.5625 -0.375 5.5625 -3 7 C-3.66 6.67 -4.32 6.34 -5 6 C-3.35 4.02 -1.7 2.04 0 0 Z " fill="#E1E2E5" transform="translate(1242,530)"/>
<path d="M0 0 C0.66 1.32 1.32 2.64 2 4 C-0.475 5.485 -0.475 5.485 -3 7 C-3 5.35 -3 3.7 -3 2 C-2.01 2 -1.02 2 0 2 C0 1.34 0 0.68 0 0 Z " fill="#ACADB1" transform="translate(473,454)"/>
<path d="M0 0 C0.33 0.99 0.66 1.98 1 3 C1.66 2.67 2.32 2.34 3 2 C3.66 2.33 4.32 2.66 5 3 C5 3.66 5 4.32 5 5 C2.36 5 -0.28 5 -3 5 C-2.01 3.35 -1.02 1.7 0 0 Z " fill="#B1B2B6" transform="translate(1298,394)"/>
<path d="M0 0 C-1.485 1.485 -1.485 1.485 -3 3 C-3.66 2.67 -4.32 2.34 -5 2 C-5 2.66 -5 3.32 -5 4 C-6.32 3.34 -7.64 2.68 -9 2 C-5.86501708 0.14223235 -3.62528568 -0.20140476 0 0 Z " fill="#848587" transform="translate(1215,331)"/>
<path d="M0 0 C2 2 2 2 2 6 C-0.88437779 4.70700306 -2.87219421 3.34058637 -5 1 C-2.625 0.375 -2.625 0.375 0 0 Z " fill="#AEAFAF" transform="translate(48,217)"/>
<path d="M0 0 C1.32 1.32 2.64 2.64 4 4 C3.01 4.99 2.02 5.98 1 7 C0.01 5.02 -0.98 3.04 -2 1 C-1.34 0.67 -0.68 0.34 0 0 Z " fill="#C1C2C4" transform="translate(849,857)"/>
<path d="M0 0 C0.99 0.33 1.98 0.66 3 1 C2.34 2.98 1.68 4.96 1 7 C0.01 7 -0.98 7 -2 7 C-1.67 6.401875 -1.34 5.80375 -1 5.1875 C0.20787988 2.94613529 0.20787988 2.94613529 0 0 Z " fill="#C6C7C9" transform="translate(392,855)"/>
<path d="M0 0 C2.475 0.99 2.475 0.99 5 2 C4.67 3.65 4.34 5.3 4 7 C2 5.1875 2 5.1875 0 3 C0 2.01 0 1.02 0 0 Z " fill="#AAABAD" transform="translate(600,748)"/>
<path d="M0 0 C0.33 0.66 0.66 1.32 1 2 C0.34 2 -0.32 2 -1 2 C-1 2.66 -1 3.32 -1 4 C-1.66 4 -2.32 4 -3 4 C-3.33 5.32 -3.66 6.64 -4 8 C-4.66 8 -5.32 8 -6 8 C-4.73058503 4.08597051 -3.48832306 2.20927127 0 0 Z " fill="#AEAFB1" transform="translate(662,696)"/>
<path d="M0 0 C2 2 2 2 2.125 5.625 C2.08375 6.73875 2.0425 7.8525 2 9 C1.01 9 0.02 9 -1 9 C-0.67 6.03 -0.34 3.06 0 0 Z " fill="#F4F4F7" transform="translate(369,490)"/>
<path d="M0 0 C2.31282587 3.46923881 2.42478586 4.92205575 2 9 C0.5 10.875 0.5 10.875 -1 12 C-0.814375 10.906875 -0.62875 9.81375 -0.4375 8.6875 C0.2578068 5.06375867 0.2578068 5.06375867 -1 2 C-0.67 1.34 -0.34 0.68 0 0 Z " fill="#E0E1E5" transform="translate(1202,441)"/>
<path d="M0 0 C0.99 0 1.98 0 3 0 C2.8125 1.875 2.8125 1.875 2 4 C-0.5625 5.25 -0.5625 5.25 -3 6 C-2.01 4.02 -1.02 2.04 0 0 Z " fill="#818284" transform="translate(377,410)"/>
<path d="M0 0 C0.66 0.33 1.32 0.66 2 1 C2 3.64 2 6.28 2 9 C1.01 8.34 0.02 7.68 -1 7 C-0.67 4.69 -0.34 2.38 0 0 Z " fill="#E3E4E6" transform="translate(1188,383)"/>
<path d="M0 0 C2.97 0.495 2.97 0.495 6 1 C5.34 2.32 4.68 3.64 4 5 C2 3.625 2 3.625 0 2 C0 1.34 0 0.68 0 0 Z " fill="#BABABA" transform="translate(546,272)"/>
<path d="M0 0 C0.66 0 1.32 0 2 0 C2.625 2.875 2.625 2.875 3 6 C2.34 6.66 1.68 7.32 1 8 C0.34 5.69 -0.32 3.38 -1 1 C-0.67 0.67 -0.34 0.34 0 0 Z " fill="#C0C1C1" transform="translate(1017,154)"/>
<path d="M0 0 C0.99 0.33 1.98 0.66 3 1 C3 1.66 3 2.32 3 3 C1.03533587 4.06775224 -0.96855359 5.06553465 -3 6 C-3.66 5.67 -4.32 5.34 -5 5 C-3.35 3.35 -1.7 1.7 0 0 Z " fill="#9D9EA0" transform="translate(1508,148)"/>
<path d="M0 0 C2.64 0 5.28 0 8 0 C5.6875 2.0625 5.6875 2.0625 3 4 C2.01 3.67 1.02 3.34 0 3 C0 2.01 0 1.02 0 0 Z " fill="#B9B9BB" transform="translate(736,948)"/>
<path d="M0 0 C0.66 0.33 1.32 0.66 2 1 C2 2.32 2 3.64 2 5 C-0.475 4.01 -0.475 4.01 -3 3 C-3 2.34 -3 1.68 -3 1 C-2.01 0.67 -1.02 0.34 0 0 Z " fill="#CBCCCE" transform="translate(1357,712)"/>
<path d="M0 0 C0.33 1.32 0.66 2.64 1 4 C-0.65 5.32 -2.3 6.64 -4 8 C-3.40072174 4.64404172 -2.15377564 2.62198774 0 0 Z " fill="#E8E9EB" transform="translate(527,656)"/>
<path d="M0 0 C1.32 0 2.64 0 4 0 C4.33 2.64 4.66 5.28 5 8 C2.27573689 5.64722731 1.1858237 3.37503669 0 0 Z " fill="#C7C8CA" transform="translate(723,656)"/>
<path d="M0 0 C-2.39509338 2.89932357 -4.31245243 3.50168276 -8 4 C-8 3.34 -8 2.68 -8 2 C-4.77208445 -0.1519437 -3.71599191 -0.20086443 0 0 Z " fill="#97969A" transform="translate(395,576)"/>
<path d="M0 0 C0.66 0.33 1.32 0.66 2 1 C2 2.65 2 4.3 2 6 C0.68 5.67 -0.64 5.34 -2 5 C-1.34 3.35 -0.68 1.7 0 0 Z " fill="#E4E5E7" transform="translate(1179,347)"/>
<path d="M0 0 C0.66 0.33 1.32 0.66 2 1 C0.02 3.31 -1.96 5.62 -4 8 C-4.33 7.01 -4.66 6.02 -5 5 C-3.35 3.35 -1.7 1.7 0 0 Z " fill="#BBBCBD" transform="translate(1025,239)"/>
<path d="M0 0 C0.66 0 1.32 0 2 0 C3.04449911 3.13349732 2.93423645 3.98968256 2 7 C0.68 5.68 -0.64 4.36 -2 3 C-1.34 3 -0.68 3 0 3 C0 2.01 0 1.02 0 0 Z " fill="#AEB1B4" transform="translate(37,209)"/>
<path d="M0 0 C0.99 0 1.98 0 3 0 C2.25 2.4375 2.25 2.4375 1 5 C-1.125 5.8125 -1.125 5.8125 -3 6 C-2 4 -1 2 0 0 Z " fill="#939496" transform="translate(1475,186)"/>
<path d="M0 0 C1.65 0 3.3 0 5 0 C5 1.65 5 3.3 5 5 C3.68 4.67 2.36 4.34 1 4 C0.67 2.68 0.34 1.36 0 0 Z " fill="#ECEDEF" transform="translate(827,160)"/>
<path d="M0 0 C1.65 0 3.3 0 5 0 C5 0.99 5 1.98 5 3 C3.68 3.33 2.36 3.66 1 4 C0.67 2.68 0.34 1.36 0 0 Z " fill="#929396" transform="translate(31,146)"/>
<path d="M0 0 C0.33 0.66 0.66 1.32 1 2 C0.01 3.32 -0.98 4.64 -2 6 C-2.99 5.67 -3.98 5.34 -5 5 C-3.35 3.35 -1.7 1.7 0 0 Z " fill="#D3D5D4" transform="translate(647,145)"/>
<path d="M0 0 C1.65 1.65 3.3 3.3 5 5 C3.02 5.99 3.02 5.99 1 7 C0.67 4.69 0.34 2.38 0 0 Z " fill="#F0F1F2" transform="translate(256,92)"/>
<path d="M0 0 C1.32 0 2.64 0 4 0 C3.34 1.98 2.68 3.96 2 6 C1.34 5.67 0.68 5.34 0 5 C0 3.35 0 1.7 0 0 Z " fill="#F7F9F8" transform="translate(1004,72)"/>
<path d="M0 0 C0.66 0.33 1.32 0.66 2 1 C0.87926138 1.83905565 -0.24674547 2.67107831 -1.375 3.5 C-2.00148438 3.9640625 -2.62796875 4.428125 -3.2734375 4.90625 C-5 6 -5 6 -7 6 C-6 3 -6 3 -3.0625 1.25 C-2.051875 0.8375 -1.04125 0.425 0 0 Z " fill="#E9EBEB" transform="translate(341,55)"/>
</svg>
