<?xml version="1.0" encoding="UTF-8"?>
<svg version="1.1" xmlns="http://www.w3.org/2000/svg" width="360" height="360">
<path d="M0 0 C17.2525942 15.02022978 28.84969781 35.20501949 31.4453125 58.12890625 C32.92275436 84.01449723 26.57359626 107.26757358 9.3984375 126.96777344 C2.26473953 134.84790469 -6.01692189 142.26651594 -15.5546875 147.12890625 C-16.2146875 147.12890625 -16.8746875 147.12890625 -17.5546875 147.12890625 C-17.4721875 148.13953125 -17.3896875 149.15015625 -17.3046875 150.19140625 C-17.62073021 155.16907894 -18.63985836 157.11116879 -21.5546875 161.12890625 C-23.2046875 161.78890625 -24.8546875 162.44890625 -26.5546875 163.12890625 C-26.5546875 167.41890625 -26.5546875 171.70890625 -26.5546875 176.12890625 C-24.5746875 176.12890625 -22.5946875 176.12890625 -20.5546875 176.12890625 C-20.17249983 177.78505282 -19.84073648 179.45347649 -19.5546875 181.12890625 C-20.5546875 182.12890625 -20.5546875 182.12890625 -23.6171875 182.19140625 C-24.5865625 182.17078125 -25.5559375 182.15015625 -26.5546875 182.12890625 C-26.49667969 182.93714844 -26.43867188 183.74539063 -26.37890625 184.578125 C-26.01642525 193.16374636 -26.01642525 193.16374636 -28.3671875 197.37890625 C-33.04199548 199.94546749 -37.33565297 199.5402137 -42.5546875 199.12890625 C-42.54308594 200.20011719 -42.53148437 201.27132812 -42.51953125 202.375 C-42.51015451 203.77213368 -42.50105419 205.16926924 -42.4921875 206.56640625 C-42.48380859 207.27345703 -42.47542969 207.98050781 -42.46679688 208.70898438 C-42.45815162 210.51584184 -42.50248739 212.32278228 -42.5546875 214.12890625 C-44.38502805 215.9592468 -47.28680742 215.25933422 -49.7421875 215.26171875 C-50.99773437 215.26300781 -52.25328125 215.26429688 -53.546875 215.265625 C-54.20397461 215.26353027 -54.86107422 215.26143555 -55.53808594 215.25927734 C-57.54630085 215.25392859 -59.55429209 215.25922316 -61.5625 215.265625 C-63.44582031 215.26369141 -63.44582031 215.26369141 -65.3671875 215.26171875 C-66.52863281 215.26059082 -67.69007813 215.25946289 -68.88671875 215.25830078 C-71.5546875 215.12890625 -71.5546875 215.12890625 -72.5546875 214.12890625 C-72.62782317 211.59841223 -72.64716277 209.09585788 -72.6171875 206.56640625 C-72.61267578 205.85548828 -72.60816406 205.14457031 -72.60351562 204.41210938 C-72.59169614 202.65100612 -72.57376013 200.88994589 -72.5546875 199.12890625 C-73.65876953 199.21591797 -73.65876953 199.21591797 -74.78515625 199.3046875 C-79.42662753 199.51928657 -82.60963697 199.64775752 -86.7421875 197.37890625 C-89.49879399 192.43602564 -88.95196715 187.66433606 -88.5546875 182.12890625 C-90.5346875 182.12890625 -92.5146875 182.12890625 -94.5546875 182.12890625 C-95.5446875 180.14890625 -95.5446875 180.14890625 -96.5546875 178.12890625 C-95.8946875 177.46890625 -95.2346875 176.80890625 -94.5546875 176.12890625 C-92.5746875 176.12890625 -90.5946875 176.12890625 -88.5546875 176.12890625 C-88.5546875 171.83890625 -88.5546875 167.54890625 -88.5546875 163.12890625 C-90.2046875 162.46890625 -91.8546875 161.80890625 -93.5546875 161.12890625 C-96.56231196 157.71484605 -97.79673007 155.24189629 -97.8046875 150.75390625 C-97.7221875 149.55765625 -97.6396875 148.36140625 -97.5546875 147.12890625 C-98.28300781 146.86207031 -99.01132813 146.59523437 -99.76171875 146.3203125 C-117.79712153 138.62688894 -132.96926939 120.02418716 -140.35253906 102.203125 C-144.57061262 91.11053631 -146.93962423 80.24488322 -146.8671875 68.37890625 C-146.86227295 67.41734619 -146.8573584 66.45578613 -146.85229492 65.46508789 C-146.49715607 43.75426598 -137.92559825 24.22899976 -123.5546875 8.12890625 C-122.79285156 7.27167969 -122.03101562 6.41445312 -121.24609375 5.53125 C-88.99665079 -28.73047347 -35.55929759 -29.37264863 0 0 Z " fill="#F7BE2F" transform="translate(237.5546875,82.87109375)"/>
<path d="M0 0 C12.83941373 8.60283951 23.38844704 20.80343072 26.625 36.3125 C26.84663641 39.89295232 26.81014036 43.47585066 26.8125 47.0625 C26.82474609 48.02671875 26.83699219 48.9909375 26.84960938 49.984375 C26.87874413 64.27982752 21.76013325 75.79934036 11.84375 86.12890625 C11.1115625 86.84949219 10.379375 87.57007813 9.625 88.3125 C9.0371875 88.89902344 8.449375 89.48554688 7.84375 90.08984375 C3.33384672 94.27001353 -1.75134443 96.8986935 -7.375 99.3125 C-8.08785156 99.63476562 -8.80070312 99.95703125 -9.53515625 100.2890625 C-20.6226529 104.47376141 -36.5842394 104.15853249 -47.375 99.3125 C-48.18710938 98.98378906 -48.99921875 98.65507812 -49.8359375 98.31640625 C-56.80783524 95.21659325 -62.00890424 90.66927963 -67.375 85.3125 C-67.9525 84.74660156 -68.53 84.18070312 -69.125 83.59765625 C-78.25947585 73.86848796 -82.33967843 60.36319353 -82.75 47.25 C-82.26685023 31.93012614 -75.99015697 18.76108226 -65.28515625 8.0078125 C-47.58730556 -8.38348546 -21.2402701 -11.93310949 0 0 Z " fill="#FDFDFD" transform="translate(207.375,102.6875)"/>
<path d="M0 0 C17.2525942 15.02022978 28.84969781 35.20501949 31.4453125 58.12890625 C32.92275436 84.01449723 26.57359626 107.26757358 9.3984375 126.96777344 C2.26473953 134.84790469 -6.01692189 142.26651594 -15.5546875 147.12890625 C-16.2146875 147.12890625 -16.8746875 147.12890625 -17.5546875 147.12890625 C-17.4721875 148.13953125 -17.3896875 149.15015625 -17.3046875 150.19140625 C-17.62073021 155.16907894 -18.63985836 157.11116879 -21.5546875 161.12890625 C-23.2046875 161.78890625 -24.8546875 162.44890625 -26.5546875 163.12890625 C-26.5546875 167.41890625 -26.5546875 171.70890625 -26.5546875 176.12890625 C-24.5746875 176.12890625 -22.5946875 176.12890625 -20.5546875 176.12890625 C-20.17249983 177.78505282 -19.84073648 179.45347649 -19.5546875 181.12890625 C-20.5546875 182.12890625 -20.5546875 182.12890625 -23.6171875 182.19140625 C-24.5865625 182.17078125 -25.5559375 182.15015625 -26.5546875 182.12890625 C-26.49667969 182.93714844 -26.43867188 183.74539063 -26.37890625 184.578125 C-26.01642525 193.16374636 -26.01642525 193.16374636 -28.3671875 197.37890625 C-33.04199548 199.94546749 -37.33565297 199.5402137 -42.5546875 199.12890625 C-42.54308594 200.20011719 -42.53148437 201.27132812 -42.51953125 202.375 C-42.51015451 203.77213368 -42.50105419 205.16926924 -42.4921875 206.56640625 C-42.48380859 207.27345703 -42.47542969 207.98050781 -42.46679688 208.70898438 C-42.45815162 210.51584184 -42.50248739 212.32278228 -42.5546875 214.12890625 C-44.38502805 215.9592468 -47.28680742 215.25933422 -49.7421875 215.26171875 C-50.99773437 215.26300781 -52.25328125 215.26429688 -53.546875 215.265625 C-54.20397461 215.26353027 -54.86107422 215.26143555 -55.53808594 215.25927734 C-57.54630085 215.25392859 -59.55429209 215.25922316 -61.5625 215.265625 C-63.44582031 215.26369141 -63.44582031 215.26369141 -65.3671875 215.26171875 C-66.52863281 215.26059082 -67.69007813 215.25946289 -68.88671875 215.25830078 C-71.5546875 215.12890625 -71.5546875 215.12890625 -72.5546875 214.12890625 C-72.62782317 211.59841223 -72.64716277 209.09585788 -72.6171875 206.56640625 C-72.61267578 205.85548828 -72.60816406 205.14457031 -72.60351562 204.41210938 C-72.59169614 202.65100612 -72.57376013 200.88994589 -72.5546875 199.12890625 C-73.65876953 199.21591797 -73.65876953 199.21591797 -74.78515625 199.3046875 C-79.42662753 199.51928657 -82.60963697 199.64775752 -86.7421875 197.37890625 C-89.49879399 192.43602564 -88.95196715 187.66433606 -88.5546875 182.12890625 C-90.5346875 182.12890625 -92.5146875 182.12890625 -94.5546875 182.12890625 C-95.5446875 180.14890625 -95.5446875 180.14890625 -96.5546875 178.12890625 C-95.8946875 177.46890625 -95.2346875 176.80890625 -94.5546875 176.12890625 C-92.5746875 176.12890625 -90.5946875 176.12890625 -88.5546875 176.12890625 C-88.5546875 171.83890625 -88.5546875 167.54890625 -88.5546875 163.12890625 C-90.2046875 162.46890625 -91.8546875 161.80890625 -93.5546875 161.12890625 C-96.56231196 157.71484605 -97.79673007 155.24189629 -97.8046875 150.75390625 C-97.7221875 149.55765625 -97.6396875 148.36140625 -97.5546875 147.12890625 C-98.28300781 146.86207031 -99.01132813 146.59523437 -99.76171875 146.3203125 C-117.79712153 138.62688894 -132.96926939 120.02418716 -140.35253906 102.203125 C-144.57061262 91.11053631 -146.93962423 80.24488322 -146.8671875 68.37890625 C-146.86227295 67.41734619 -146.8573584 66.45578613 -146.85229492 65.46508789 C-146.49715607 43.75426598 -137.92559825 24.22899976 -123.5546875 8.12890625 C-122.79285156 7.27167969 -122.03101562 6.41445312 -121.24609375 5.53125 C-88.99665079 -28.73047347 -35.55929759 -29.37264863 0 0 Z M-120.8671875 11.44140625 C-134.57276755 27.30167231 -141.96237449 46.18602052 -141.8046875 67.06640625 C-141.81242187 68.08669922 -141.82015625 69.10699219 -141.828125 70.15820312 C-141.77174694 92.24430834 -132.32952676 112.66878843 -117.19580078 128.51269531 C-111.32938824 134.29009059 -104.79959095 139.19621671 -97.3046875 142.62890625 C-95.14453125 143.72265625 -95.14453125 143.72265625 -93.5546875 145.12890625 C-92.93048967 147.74791811 -92.85434157 149.94620857 -93.04296875 152.62890625 C-92.43824959 155.72506837 -91.12693046 157.12507573 -88.68086243 159.06149292 C-84.0040426 161.40941818 -78.57174484 160.8133039 -73.45703125 160.7578125 C-72.1900087 160.76022446 -70.92298615 160.76263641 -69.61756897 160.76512146 C-66.9429872 160.76414322 -64.27065366 160.7533654 -61.59643555 160.72583008 C-58.17756584 160.69171165 -54.76019626 160.69778367 -51.34125423 160.71649265 C-48.0672598 160.72962932 -44.79349333 160.71134161 -41.51953125 160.6953125 C-40.2954808 160.70027237 -39.07143036 160.70523224 -37.81028748 160.71034241 C-36.66882767 160.69450607 -35.52736786 160.67866974 -34.35131836 160.66235352 C-33.35015488 160.65615494 -32.34899139 160.64995636 -31.31748962 160.64356995 C-27.81052736 159.9902817 -26.11456341 158.56248645 -23.5546875 156.12890625 C-22.3862025 154.21909422 -22.3862025 154.21909422 -22.6953125 152.24609375 C-22.83087785 149.46700402 -22.62563724 147.71668752 -21.5546875 145.12890625 C-18.61155694 142.78437851 -15.44958274 141.02551892 -12.171875 139.20703125 C7.15325223 128.43767425 18.75777019 108.70024067 24.75390625 87.99609375 C28.50041163 72.45973812 27.88127661 55.13893863 22.4453125 40.12890625 C21.99478516 38.77152344 21.99478516 38.77152344 21.53515625 37.38671875 C14.27992242 17.22282213 -2.52524413 0.40694331 -21.5546875 -8.87109375 C-56.83177792 -23.60907819 -94.51425881 -16.15496352 -120.8671875 11.44140625 Z " fill="#4B130D" transform="translate(237.5546875,82.87109375)"/>
<path d="M0 0 C-3.25176985 1.76137534 -6.61999257 2.990554 -10.09765625 4.21875 C-12.27068726 5.03816029 -12.27068726 5.03816029 -15 7 C-15.99 7 -16.98 7 -18 7 C-18 7.66 -18 8.32 -18 9 C-18.54527344 9.268125 -19.09054688 9.53625 -19.65234375 9.8125 C-29.13985457 14.74276203 -36.28339466 21.77459202 -43 30 C-43.51304688 30.60199219 -44.02609375 31.20398438 -44.5546875 31.82421875 C-51.10671398 39.92089396 -55.21128905 50.01845533 -58 60 C-58.34933594 61.11246094 -58.69867188 62.22492188 -59.05859375 63.37109375 C-60.58292834 69.5682825 -60.32869715 75.90719507 -60.3125 82.25 C-60.32861328 83.49652344 -60.34472656 84.74304688 -60.36132812 86.02734375 C-60.37055403 103.68571914 -54.73401745 120.00368313 -44 134 C-43.29875 135.093125 -42.5975 136.18625 -41.875 137.3125 C-38.88593174 141.59683118 -35.46215737 144.7400548 -31.1875 147.6875 C-29.6096875 148.8321875 -29.6096875 148.8321875 -28 150 C-28 150.66 -28 151.32 -28 152 C-27.34 152.226875 -26.68 152.45375 -26 152.6875 C-20.99006054 154.87934852 -16.54007099 157.97328601 -12 161 C-11.5234375 163.0234375 -11.5234375 163.0234375 -11.375 165.375 C-11.16458509 168.37090747 -10.80699129 171.10276899 -10 174 C-19.83464126 174.61042601 -19.83464126 174.61042601 -23.625 172.625 C-25.15759632 169.69913429 -25.00202313 168.47615648 -24.9375 165.25 C-24.98263305 162.54525152 -24.98263305 162.54525152 -26 160 C-28.9246588 157.59145746 -32.07810879 155.84733427 -35.38671875 154.0390625 C-54.0142501 143.84972844 -65.66166589 125.13336766 -71.9375 105.375 C-76.3967537 89.48706296 -75.65674199 70.41230359 -70 55 C-69.63777344 53.95972656 -69.27554688 52.91945312 -68.90234375 51.84765625 C-61.22802538 31.6342821 -45.27874036 14.92110021 -25.70776367 5.91723633 C-17.19319693 2.16747343 -9.41309887 -0.3361821 0 0 Z " fill="#F7D063" transform="translate(170,68)"/>
<path d="M0 0 C19.33380062 0.4900272 36.63884132 11.67774473 50 25 C67.27924863 43.5975081 72.93267982 66.19206281 72.17041016 90.99023438 C71.03304327 111.07828445 60.27403074 131.09853776 46 145 C40.25593817 150.0406293 34.42563923 154.57651007 27.3125 157.5 C24.31825052 158.84258283 23.26651096 159.32498454 22.046875 162.4140625 C21.51966068 165.08996935 21.51966068 165.08996935 21.37890625 167.6953125 C21 170 21 170 19.7890625 171.79296875 C17.36291058 173.42982671 15.71073203 173.30041813 12.8125 173.1875 C11.91144531 173.16042969 11.01039063 173.13335937 10.08203125 173.10546875 C9.39496094 173.07066406 8.70789063 173.03585938 8 173 C7.75626151 168.56700615 8.19098454 165.07754019 10 161 C13.42445098 157.80619386 17.68749944 155.75901149 21.74609375 153.484375 C35.6352897 145.65755415 44.52885638 132.5634637 51.375 118.5 C51.69694336 117.8488623 52.01888672 117.19772461 52.35058594 116.52685547 C57.19919867 106.04205111 58.54082591 95.13435731 58.4375 83.6875 C58.43065186 82.51123047 58.42380371 81.33496094 58.41674805 80.12304688 C58.0098876 57.97277186 48.90649705 37.57644433 33.70703125 21.4453125 C24.94020933 13.52607654 14.93423573 7.41574905 4 3 C2.66034842 2.34612244 1.32471741 1.6836271 0 1 C0 0.67 0 0.34 0 0 Z " fill="#D1A328" transform="translate(192,68)"/>
<path d="M0 0 C17.82 0 35.64 0 54 0 C54.495 6.435 54.495 6.435 55 13 C55.495 14.98 55.495 14.98 56 17 C58.64 17 61.28 17 64 17 C64 17.66 64 18.32 64 19 C61.36 19 58.72 19 56 19 C56.04125 20.0725 56.0825 21.145 56.125 22.25 C56.01046173 25.6861482 55.9297839 27.25767552 54 30 C50.80474905 32.1301673 49.97120388 32.25445392 46.30078125 32.2746582 C44.87415161 32.28895622 44.87415161 32.28895622 43.41870117 32.30354309 C42.39365479 32.30263168 41.3686084 32.30172028 40.3125 32.30078125 C39.25844971 32.30506638 38.20439941 32.3093515 37.1184082 32.31376648 C34.88916747 32.3195112 32.65990798 32.320009 30.43066406 32.31567383 C27.01334815 32.31251235 23.59689642 32.33597718 20.1796875 32.36132812 C18.0156261 32.36360088 15.85156236 32.36430473 13.6875 32.36328125 C12.66245361 32.372491 11.63740723 32.38170074 10.58129883 32.39118958 C9.15466919 32.38184639 9.15466919 32.38184639 7.69921875 32.37231445 C6.44371216 32.37325859 6.44371216 32.37325859 5.1628418 32.3742218 C2.48530342 31.91094555 1.599377 31.16848571 0 29 C-0.34057617 25.99731445 -0.34057617 25.99731445 -0.29296875 22.36328125 C-0.28547607 21.19321533 -0.2779834 20.02314941 -0.27026367 18.81762695 C-0.24295166 17.33093506 -0.21563965 15.84424316 -0.1875 14.3125 C-0.125625 9.589375 -0.06375 4.86625 0 0 Z " fill="#656563" transform="translate(153,246)"/>
<path d="M0 0 C1.8815918 0.29492188 1.8815918 0.29492188 4 1 C5.44189761 3.4973072 6.64396173 5.87996167 7.8125 8.5 C10.88519826 15.01749517 14.24338248 20.54859565 19 26 C19.76441406 26.96550781 20.52882813 27.93101562 21.31640625 28.92578125 C23.94720425 32.08254094 26.9707469 34.60403441 30.25 37.0625 C30.81557617 37.49296631 31.38115234 37.92343262 31.96386719 38.36694336 C35.92532327 41.33017984 39.98216732 43.89961499 44.390625 46.16015625 C46 47 46 47 47 48 C47.16297531 50.48537353 47.25457742 52.96744561 47.328125 55.45703125 C48.27233842 59.03076923 49.95912719 59.97970829 53 62 C55.79868379 62.60442725 55.79868379 62.60442725 58.8125 62.53344727 C59.9571875 62.5492836 61.101875 62.56511993 62.28125 62.58143616 C63.5084375 62.57647629 64.735625 62.57151642 66 62.56640625 C67.2684375 62.57260483 68.536875 62.57880341 69.84375 62.58518982 C72.5239989 62.59228986 75.20274516 62.59105938 77.8828125 62.57641602 C81.30970286 62.55922051 84.73491764 62.58273775 88.16162109 62.61790562 C91.44110051 62.64519849 94.72043907 62.63514239 98 62.62890625 C99.2271875 62.64216446 100.454375 62.65542267 101.71875 62.66908264 C108.57020948 62.82615968 108.57020948 62.82615968 114.28588867 59.60327148 C116.09305329 56.85867723 116.47667663 55.71559742 116.3125 52.5 C116.47087975 49.54522771 116.61396249 48.40301602 118.6875 46.23828125 C120.81937623 44.80788635 122.52057698 43.68540636 125 43 C127.26171875 43.88671875 127.26171875 43.88671875 129 45 C128.44570312 45.24492187 127.89140625 45.48984375 127.3203125 45.7421875 C122.71882912 48.07067939 122.71882912 48.07067939 120.1640625 52.34765625 C119.88747762 54.07761641 119.64013461 55.81249932 119.421875 57.55078125 C118.79480804 61.19125333 117.36045375 63.19696117 115 66 C114.34 66 113.68 66 113 66 C113 70.29 113 74.58 113 79 C114.98 79 116.96 79 119 79 C119.33 80.65 119.66 82.3 120 84 C116.7 84 113.4 84 110 84 C109 79 109 79 109 66 C91.18 66 73.36 66 55 66 C55.12375 70.74375 55.2475 75.4875 55.375 80.375 C55.40899902 81.8707959 55.44299805 83.3665918 55.47802734 84.90771484 C55.5136377 86.08027832 55.54924805 87.2528418 55.5859375 88.4609375 C55.6173584 89.66540527 55.6487793 90.86987305 55.68115234 92.11083984 C55.70915226 95.1260018 55.70915226 95.1260018 58 97 C60.12045217 97.29875239 60.12045217 97.29875239 62.58569336 97.24291992 C63.53685532 97.24599655 64.48801727 97.24907318 65.46800232 97.25224304 C67.01331383 97.24146477 67.01331383 97.24146477 68.58984375 97.23046875 C69.64530899 97.23001053 70.70077423 97.22955231 71.78822327 97.2290802 C74.02345908 97.22605519 76.25869274 97.21816151 78.49389648 97.20581055 C81.91983494 97.18759393 85.34550263 97.18530056 88.77148438 97.18554688 C90.94010651 97.18063023 93.10872681 97.17480127 95.27734375 97.16796875 C96.81961891 97.16629951 96.81961891 97.16629951 98.39305115 97.16459656 C99.82452232 97.15502678 99.82452232 97.15502678 101.28491211 97.14526367 C102.12493271 97.14145187 102.96495331 97.13764008 103.83042908 97.13371277 C106.182358 97.08214253 106.182358 97.08214253 109 96 C109 92.37 109 88.74 109 85 C110.32 85 111.64 85 113 85 C113.76304634 95.63177898 113.76304634 95.63177898 111.1875 100.25 C106.51269202 102.81656124 102.21903453 102.41130745 97 102 C97.01160156 103.07121094 97.02320313 104.14242187 97.03515625 105.24609375 C97.04453299 106.64322743 97.05363331 108.04036299 97.0625 109.4375 C97.07087891 110.14455078 97.07925781 110.85160156 97.08789062 111.58007812 C97.09653588 113.38693559 97.05220011 115.19387603 97 117 C95.16965945 118.83034055 92.26788008 118.13042797 89.8125 118.1328125 C88.55695313 118.13410156 87.30140625 118.13539063 86.0078125 118.13671875 C85.35071289 118.13462402 84.69361328 118.1325293 84.01660156 118.13037109 C82.00838665 118.12502234 80.00039541 118.13031691 77.9921875 118.13671875 C76.73664063 118.13542969 75.48109375 118.13414062 74.1875 118.1328125 C73.02605469 118.13168457 71.86460937 118.13055664 70.66796875 118.12939453 C68 118 68 118 67 117 C66.92686433 114.46950598 66.90752473 111.96695163 66.9375 109.4375 C66.94201172 108.72658203 66.94652344 108.01566406 66.95117188 107.28320312 C66.96299136 105.52209987 66.98092737 103.76103964 67 102 C66.26394531 102.05800781 65.52789062 102.11601562 64.76953125 102.17578125 C60.12805997 102.39038032 56.94505053 102.51885127 52.8125 100.25 C50.05589351 95.30711939 50.60272035 90.53542981 51 85 C49.02 85 47.04 85 45 85 C44.34 83.68 43.68 82.36 43 81 C43.66 80.34 44.32 79.68 45 79 C46.98 79 48.96 79 51 79 C51 74.71 51 70.42 51 66 C49.35 65.34 47.7 64.68 46 64 C42.99237554 60.5859398 41.75795743 58.11299004 41.75 53.625 C41.8325 52.42875 41.915 51.2325 42 50 C41.27167969 49.73316406 40.54335937 49.46632812 39.79296875 49.19140625 C26.50290234 43.52221708 12.67294734 30.34589469 6.25 17.5 C5.8375 16.345 5.425 15.19 5 14 C3.68025212 11.14256423 2.33515833 8.29785653 0.98828125 5.453125 C0 3 0 3 0 0 Z " fill="#5B1D15" transform="translate(98,180)"/>
<path d="M0 0 C13.56142828 9.40136852 22.90811166 21.5382432 26.4453125 37.92578125 C27.88994337 49.77765086 27.41728558 60.9256151 22.828125 72.06640625 C22.4775 72.93523437 22.126875 73.8040625 21.765625 74.69921875 C16.84149768 85.60752859 9.07094198 94.00011774 -1.171875 100.06640625 C-1.95175781 100.53820312 -2.73164063 101.01 -3.53515625 101.49609375 C-16.93465452 108.90858216 -33.52234412 110.24857249 -48.171875 106.06640625 C-55.7819432 103.68900661 -61.86922893 99.89666946 -68.171875 95.06640625 C-69.00203125 94.44507813 -69.8321875 93.82375 -70.6875 93.18359375 C-80.31814282 84.97634782 -87.73401537 71.6824649 -89.171875 59.06640625 C-89.88411847 47.90116602 -90.0284756 37.36966172 -85.171875 27.06640625 C-84.74777344 26.13699219 -84.32367188 25.20757812 -83.88671875 24.25 C-76.20613088 8.86742986 -63.26347835 -1.36250373 -47.171875 -6.93359375 C-31.43321884 -11.51475976 -13.73313382 -8.37179956 0 0 Z M-74.171875 15.06640625 C-83.078997 26.89389612 -87.3218276 40.29772926 -86.171875 55.06640625 C-83.5070566 71.16768849 -76.92013445 83.46287416 -64.171875 94.06640625 C-49.81878136 103.63513534 -34.26186623 106.2882248 -17.3515625 103.41796875 C-3.32316862 99.46297578 8.61312939 90.28122672 16.265625 77.87890625 C23.57236171 64.68962728 25.09543327 49.32901363 22.109375 34.49609375 C21.18594772 31.88219879 20.12643564 29.51305765 18.828125 27.06640625 C18.48910156 26.32003906 18.15007812 25.57367188 17.80078125 24.8046875 C11.4034528 11.75960136 0.09374877 2.40766432 -13.484375 -2.30859375 C-35.85357373 -9.32757835 -59.01606976 -3.17193564 -74.171875 15.06640625 Z " fill="#571B17" transform="translate(211.171875,100.93359375)"/>
<path d="M0 0 C3.13209089 2.63508245 4.4580541 5.74760217 6.125 9.4375 C6.64320313 10.57058594 7.16140625 11.70367187 7.6953125 12.87109375 C10.21296428 18.90893529 10.18323784 24.27151199 10.1875 30.75 C10.19974609 31.71421875 10.21199219 32.6784375 10.22460938 33.671875 C10.25374413 47.96732752 5.13513325 59.48684036 -4.78125 69.81640625 C-5.5134375 70.53699219 -6.245625 71.25757813 -7 72 C-7.5878125 72.58652344 -8.175625 73.17304688 -8.78125 73.77734375 C-13.29115328 77.95751353 -18.37634443 80.5861935 -24 83 C-24.71285156 83.32226562 -25.42570312 83.64453125 -26.16015625 83.9765625 C-36.44801259 87.85945713 -51.52434086 87.85927198 -61.81640625 83.98828125 C-62.53699219 83.66214844 -63.25757813 83.33601563 -64 83 C-64.91652344 82.60167969 -65.83304688 82.20335937 -66.77734375 81.79296875 C-71.78238317 79.46945115 -71.78238317 79.46945115 -74 78 C-74.33 77.01 -74.66 76.02 -75 75 C-73.98421875 75.28875 -72.9684375 75.5775 -71.921875 75.875 C-55.64436897 80.34177656 -40.45382436 80.09616046 -25.125 72.3125 C-12.04160466 64.4546049 -2.3003785 52.29626732 1.68359375 37.453125 C3.89986412 26.87616572 3.69514241 16.9274072 0.65625 6.55859375 C0 4 0 4 0 0 Z " fill="#DADADA" transform="translate(224,119)"/>
<path d="M0 0 C1.32 0 2.64 0 4 0 C4.76304634 10.63177898 4.76304634 10.63177898 2.1875 15.25 C-2.48730798 17.81656124 -6.78096547 17.41130745 -12 17 C-11.98839844 18.07121094 -11.97679687 19.14242188 -11.96484375 20.24609375 C-11.95546701 21.64322743 -11.94636669 23.04036299 -11.9375 24.4375 C-11.92912109 25.14455078 -11.92074219 25.85160156 -11.91210938 26.58007812 C-11.90346412 28.38693559 -11.94779989 30.19387603 -12 32 C-13.83034055 33.83034055 -16.73211992 33.13042797 -19.1875 33.1328125 C-20.44304687 33.13410156 -21.69859375 33.13539063 -22.9921875 33.13671875 C-23.64928711 33.13462402 -24.30638672 33.1325293 -24.98339844 33.13037109 C-26.99161335 33.12502234 -28.99960459 33.13031691 -31.0078125 33.13671875 C-32.26335937 33.13542969 -33.51890625 33.13414062 -34.8125 33.1328125 C-35.97394531 33.13168457 -37.13539063 33.13055664 -38.33203125 33.12939453 C-41 33 -41 33 -42 32 C-42.07313567 29.46950598 -42.09247527 26.96695163 -42.0625 24.4375 C-42.05798828 23.72658203 -42.05347656 23.01566406 -42.04882812 22.28320312 C-42.03700864 20.52209987 -42.01907263 18.76103964 -42 17 C-42.73605469 17.05800781 -43.47210938 17.11601562 -44.23046875 17.17578125 C-52.26549049 17.54728159 -52.26549049 17.54728159 -56.1875 14.625 C-58 12 -58 12 -58 10 C-57.34 10 -56.68 10 -56 10 C-56 9.34 -56 8.68 -56 8 C-55.34 8 -54.68 8 -54 8 C-53.56067139 8.65030685 -53.12134277 9.30061371 -52.66870117 9.97062683 C-51.19246612 12.1890936 -51.19246612 12.1890936 -48.8371582 12.48774719 C-47.58165161 12.47894783 -47.58165161 12.47894783 -46.30078125 12.4699707 C-45.34969482 12.47289627 -44.3986084 12.47582184 -43.41870117 12.47883606 C-42.39365479 12.46132797 -41.3686084 12.44381989 -40.3125 12.42578125 C-38.73142456 12.42084908 -38.73142456 12.42084908 -37.1184082 12.41581726 C-34.88909742 12.4053898 -32.65981398 12.38542885 -30.43066406 12.35668945 C-27.01352067 12.31267416 -23.59707907 12.29526393 -20.1796875 12.28320312 C-18.01561484 12.26977679 -15.85155085 12.2548532 -13.6875 12.23828125 C-12.66245361 12.23089432 -11.63740723 12.22350739 -10.58129883 12.21589661 C-9.6302124 12.20306137 -8.67912598 12.19022614 -7.69921875 12.17700195 C-6.86221436 12.16715775 -6.02520996 12.15731354 -5.1628418 12.14717102 C-2.81693575 12.07847513 -2.81693575 12.07847513 0 11 C0 7.37 0 3.74 0 0 Z " fill="#631D11" transform="translate(207,265)"/>
<path d="M0 0 C15.78404271 7.24741917 26.8946171 25.59019409 32.97265625 41.08203125 C40.95219652 63.74635285 40.12669554 88.31642483 29.91845703 110.15917969 C21.58287003 126.86580541 7.76118242 142.45508347 -9 151 C-9.66 151 -10.32 151 -11 151 C-10.9175 152.010625 -10.835 153.02125 -10.75 154.0625 C-11.05731769 158.90275368 -12.3836295 160.99368267 -15 165 C-15.66 164.67 -16.32 164.34 -17 164 C-16.2884375 163.01 -16.2884375 163.01 -15.5625 162 C-14.03910731 159.07508604 -13.88333265 158.11663661 -13.8125 155 C-13.6484375 152.921875 -13.6484375 152.921875 -13 151 C-11.00011668 149.38307306 -9.0387781 148.29770216 -6.71484375 147.203125 C-5.86599609 146.60757813 -5.86599609 146.60757813 -5 146 C-5 144.68 -5 143.36 -5 142 C-3.20703125 140.21875 -3.20703125 140.21875 -0.8125 138.5 C-0.03519531 137.9328125 0.74210937 137.365625 1.54296875 136.78125 C2.35378906 136.1934375 3.16460937 135.605625 4 135 C19.04426723 123.81082625 27.68852303 104.19251936 31.578125 86.34765625 C33.37909331 72.05663921 32.92022626 57.58595347 28 44 C27.69964844 43.09507813 27.39929688 42.19015625 27.08984375 41.2578125 C25.00836568 35.47292539 21.97233008 30.59372048 18.48828125 25.54296875 C16.95718093 22.9268367 16.50949174 20.95695671 16 18 C14.58223725 14.36037026 12.30068674 12.00167534 9.5625 9.25 C8.78003906 8.45078125 7.99757812 7.6515625 7.19140625 6.828125 C5.09169477 4.67970589 5.09169477 4.67970589 2 5 C1.34 3.35 0.68 1.7 0 0 Z " fill="#673731" transform="translate(231,79)"/>
<path d="M0 0 C0.66 0.33 1.32 0.66 2 1 C0.92621094 1.59167969 -0.14757812 2.18335937 -1.25390625 2.79296875 C-2.69022702 3.59092473 -4.12641802 4.38911434 -5.5625 5.1875 C-6.26697266 5.57486328 -6.97144531 5.96222656 -7.69726562 6.36132812 C-12.37135027 8.96761496 -16.69714396 11.81667812 -21 15 C-20.34 15.99 -19.68 16.98 -19 18 C-19.90878906 18.73089844 -19.90878906 18.73089844 -20.8359375 19.4765625 C-36.0859515 32.3804205 -45.82801924 50.24340982 -49 70 C-49.2719609 73.98369156 -49.28014436 77.94588427 -49.25 81.9375 C-49.25773437 82.95779297 -49.26546875 83.97808594 -49.2734375 85.02929688 C-49.25018448 94.13866691 -47.48860621 102.42149 -45.171875 111.1875 C-45.11515625 111.785625 -45.0584375 112.38375 -45 113 C-45.99 113.99 -45.99 113.99 -47 115 C-44.69 119.95 -42.38 124.9 -40 130 C-40.66 130 -41.32 130 -42 130 C-53.51915596 108.47148036 -59.1747222 85.43536076 -52.9765625 61.1640625 C-48.46587233 46.54942634 -42.20389779 34.43168387 -32 23 C-31.23816406 22.14277344 -30.47632812 21.28554687 -29.69140625 20.40234375 C-21.45951821 11.65680752 -11.07442677 4.6853344 0 0 Z " fill="#75463F" transform="translate(146,68)"/>
<path d="M0 0 C17.82 0 35.64 0 54 0 C54.495 6.435 54.495 6.435 55 13 C55.495 14.98 55.495 14.98 56 17 C58.64 17 61.28 17 64 17 C64 17.66 64 18.32 64 19 C61.36 19 58.72 19 56 19 C56.04125 20.0725 56.0825 21.145 56.125 22.25 C56.01046173 25.6861482 55.9297839 27.25767552 54 30 C50.77825751 32.14782833 49.9566269 32.24649148 46.25317383 32.22705078 C45.29240433 32.22689972 44.33163483 32.22674866 43.3417511 32.22659302 C42.30729355 32.21627045 41.272836 32.20594788 40.20703125 32.1953125 C38.61528328 32.19106766 38.61528328 32.19106766 36.99137878 32.18673706 C33.59830503 32.17553184 30.20549413 32.15042647 26.8125 32.125 C24.51367568 32.11497065 22.21484724 32.10584472 19.91601562 32.09765625 C14.27725389 32.07559141 8.63864572 32.04211044 3 32 C3 31.67 3 31.34 3 31 C17.52 31 32.04 31 47 31 C47 21.1 47 11.2 47 1 C31.82 1 16.64 1 1 1 C1 10.24 1 19.48 1 29 C0.67 29 0.34 29 0 29 C0 19.43 0 9.86 0 0 Z " fill="#5E504C" transform="translate(153,246)"/>
<path d="M0 0 C6.13475751 4.33921872 10.52392065 9.48497258 11.984375 16.9765625 C12.389053 23.33899992 10.32632748 28.72179325 6.5625 33.8125 C3.74158417 36.15657062 0.7170983 37.95754894 -2.4375 39.8125 C-6.05100795 42.7774296 -7.21004288 45.31182391 -8.4375 49.8125 C-9.9225 49.3175 -9.9225 49.3175 -11.4375 48.8125 C-11.02131224 43.5061061 -10.33500599 40.51513069 -6.4375 36.8125 C-4.95227837 35.99344395 -3.45053036 35.20396933 -1.9375 34.4375 C1.80195443 32.44148149 4.13695293 30.76831802 5.97265625 26.90234375 C7.5980228 21.14359472 7.51019419 15.74298816 4.875 10.375 C0.2104285 5.2061505 -2.90742858 3.21981593 -9.6875 2.4375 C-15.89379014 3.05812901 -19.88582088 5.93415159 -23.8125 10.6875 C-25.58025048 14.08702016 -26.54611677 17.09840322 -27.4375 20.8125 C-28.4275 20.8125 -29.4175 20.8125 -30.4375 20.8125 C-30.26458943 14.02183027 -28.88331219 9.05263064 -24.4375 3.8125 C-17.20338929 -1.83010636 -8.72515345 -3.01414392 0 0 Z " fill="#541B16" transform="translate(189.4375,120.1875)"/>
<path d="M0 0 C0 0.33 0 0.66 0 1 C-0.87140625 1.15855469 -1.7428125 1.31710938 -2.640625 1.48046875 C-19.15619605 4.71566178 -33.01190101 10.89915437 -43 25 C-50.28829678 37.10132295 -52.40133193 49.04484077 -53 63 C-53.33 63 -53.66 63 -54 63 C-56.20986528 39.38186779 -56.20986528 39.38186779 -50 29 C-49.55269531 28.13503906 -49.10539063 27.27007812 -48.64453125 26.37890625 C-42.92026575 15.84433361 -34.39388812 8.72996397 -24 3 C-22.79730469 2.32904297 -22.79730469 2.32904297 -21.5703125 1.64453125 C-14.39451247 -1.80220548 -7.73857919 -1.02586352 0 0 Z " fill="#531712" transform="translate(178,95)"/>
<path d="M0 0 C7.26 0 14.52 0 22 0 C22 3.96 22 7.92 22 12 C14.74 12 7.48 12 0 12 C0 8.04 0 4.08 0 0 Z " fill="#5B6B5E" transform="translate(169,281)"/>
<path d="M0 0 C-3.20380017 2.13586678 -4.01939967 2.23132175 -7.6875 2.125 C-8.49574219 2.10695313 -9.30398437 2.08890625 -10.13671875 2.0703125 C-11.05904297 2.03550781 -11.05904297 2.03550781 -12 2 C-11.98839844 3.07121094 -11.97679687 4.14242188 -11.96484375 5.24609375 C-11.95546701 6.64322743 -11.94636669 8.04036299 -11.9375 9.4375 C-11.92912109 10.14455078 -11.92074219 10.85160156 -11.91210938 11.58007812 C-11.90346412 13.38693559 -11.94779989 15.19387603 -12 17 C-13.83034055 18.83034055 -16.73211992 18.13042797 -19.1875 18.1328125 C-20.44304687 18.13410156 -21.69859375 18.13539063 -22.9921875 18.13671875 C-23.64928711 18.13462402 -24.30638672 18.1325293 -24.98339844 18.13037109 C-26.99161335 18.12502234 -28.99960459 18.13031691 -31.0078125 18.13671875 C-32.26335937 18.13542969 -33.51890625 18.13414062 -34.8125 18.1328125 C-35.97394531 18.13168457 -37.13539063 18.13055664 -38.33203125 18.12939453 C-41 18 -41 18 -42 17 C-42.07313567 14.46950598 -42.09247527 11.96695163 -42.0625 9.4375 C-42.05798828 8.72658203 -42.05347656 8.01566406 -42.04882812 7.28320312 C-42.03700864 5.52209987 -42.01907263 3.76103964 -42 2 C-44.97 2 -47.94 2 -51 2 C-51 1.34 -51 0.68 -51 0 C-47.7 0 -44.4 0 -41 0 C-38.75896849 4.48206302 -40 9.98890121 -40 15 C-31.42 15 -22.84 15 -14 15 C-14 10.05 -14 5.1 -14 0 C-3.82142857 -1.20535714 -3.82142857 -1.20535714 0 0 Z " fill="#4C100A" transform="translate(207,280)"/>
<path d="M0 0 C0.66 0.33 1.32 0.66 2 1 C0.92621094 1.59167969 -0.14757812 2.18335937 -1.25390625 2.79296875 C-2.69022702 3.59092473 -4.12641802 4.38911434 -5.5625 5.1875 C-6.26697266 5.57486328 -6.97144531 5.96222656 -7.69726562 6.36132812 C-12.37135027 8.96761496 -16.69714396 11.81667812 -21 15 C-20.34 15.99 -19.68 16.98 -19 18 C-19.66386719 18.56847656 -20.32773438 19.13695313 -21.01171875 19.72265625 C-26.08304037 24.1572864 -30.37168746 28.31564368 -34 34 C-34.99 33.34 -35.98 32.68 -37 32 C-42.93845269 41.82865495 -48.42716737 51.67953643 -51 63 C-51.66 63 -52.32 63 -53 63 C-48.64428926 41.58442219 -34.72279134 21.28024497 -16.56982422 9.16210938 C-11.24374493 5.76096403 -5.82575334 2.4647418 0 0 Z " fill="#693F3C" transform="translate(146,68)"/>
<path d="M0 0 C1.98 0 3.96 0 6 0 C6.33 9.9 6.66 19.8 7 30 C5.02 30 3.04 30 1 30 C0 29 0 29 -0.11352539 26.22436523 C-0.10828857 25.01466064 -0.10305176 23.80495605 -0.09765625 22.55859375 C-0.09443359 21.25341797 -0.09121094 19.94824219 -0.08789062 18.60351562 C-0.07953401 17.2148431 -0.07106905 15.82617123 -0.0625 14.4375 C-0.05748666 13.04492344 -0.05292347 11.65234519 -0.04882812 10.25976562 C-0.03699434 6.8398013 -0.0205088 3.41992156 0 0 Z " fill="#7E817F" transform="translate(154,247)"/>
<path d="M0 0 C6.06068947 1.0008478 11.40178257 3.56169906 17 6 C18.7325 6.7115625 18.7325 6.7115625 20.5 7.4375 C23.68074993 9.42546871 25.00029483 11.86712857 27 15 C27.59039062 15.28488281 28.18078125 15.56976563 28.7890625 15.86328125 C31.85000017 17.43701422 33.85511362 19.66709029 36.25 22.125 C37.14203125 23.03507812 38.0340625 23.94515625 38.953125 24.8828125 C39.62859375 25.58148438 40.3040625 26.28015625 41 27 C40.34 28.32 39.68 29.64 39 31 C38.35998047 30.19949219 38.35998047 30.19949219 37.70703125 29.3828125 C27.72893926 17.49139565 15.92463093 10.39925273 2 4 C2 3.34 2 2.68 2 2 C1.34 1.34 0.68 0.68 0 0 Z " fill="#521612" transform="translate(207,68)"/>
<path d="M0 0 C14.29660281 -1.02118592 28.46475734 4.61522687 41 11 C40.67 11.66 40.34 12.32 40 13 C35.71 11.02 31.42 9.04 27 7 C27.495 7.99 27.495 7.99 28 9 C23.45011638 8.55968868 19.07364106 8.04950335 14.625 7 C6.57033009 5.28132839 -1.79592727 5.32007676 -10 5 C-10 4.67 -10 4.34 -10 4 C-5.545 3.505 -5.545 3.505 -1 3 C-0.67 2.01 -0.34 1.02 0 0 Z " fill="#6C3B34" transform="translate(183,62)"/>
<path d="M0 0 C0.57363281 0.36738281 1.14726562 0.73476562 1.73828125 1.11328125 C1.18398437 1.35820312 0.6296875 1.603125 0.05859375 1.85546875 C-4.55861074 4.1910788 -4.55861074 4.1910788 -7.09765625 8.49609375 C-7.54127985 11.08601272 -7.54127985 11.08601272 -7.71484375 13.61328125 C-8.46116099 17.02501721 -9.81185156 18.63883648 -12.26171875 21.11328125 C-15.09649658 21.67658997 -15.09649658 21.67658997 -18.40722656 21.58911133 C-20.26870331 21.55851372 -20.26870331 21.55851372 -22.16778564 21.52729797 C-23.51682427 21.4796785 -24.86584338 21.43150366 -26.21484375 21.3828125 C-27.59913314 21.35103517 -28.98347567 21.32149987 -30.36785889 21.29411316 C-34.00515278 21.21614291 -37.6409267 21.10777994 -41.27722168 20.99304199 C-44.99036578 20.8812724 -48.70414133 20.79829844 -52.41796875 20.71289062 C-59.70014154 20.54117855 -66.98094889 20.33734975 -74.26171875 20.11328125 C-74.26171875 19.78328125 -74.26171875 19.45328125 -74.26171875 19.11328125 C-73.54619339 19.11185623 -72.83066803 19.11043121 -72.09346008 19.10896301 C-65.33999784 19.09111044 -58.5871481 19.04943112 -51.83399677 18.98119068 C-48.362307 18.94694429 -44.89105612 18.92181457 -41.41918945 18.91772461 C-37.42476408 18.91261531 -33.43165169 18.86748659 -29.4375 18.8203125 C-28.19462723 18.82424515 -26.95175446 18.8281778 -25.67121887 18.83222961 C-18.7468745 18.95930657 -18.7468745 18.95930657 -12.96484375 15.71166992 C-11.16866884 12.97131879 -10.78545869 11.82071972 -10.94921875 8.61328125 C-10.790839 5.65850896 -10.64775626 4.51629727 -8.57421875 2.3515625 C-3.19974067 -1.25447518 -3.19974067 -1.25447518 0 0 Z " fill="#50130F" transform="translate(225.26171875,223.88671875)"/>
<path d="M0 0 C1.2265625 1.59375 1.2265625 1.59375 2 4 C0.89868942 6.36082046 -0.21685428 8.33572126 -1.625 10.5 C-8.0386797 21.03626954 -10.64583111 31.94380176 -13 44 C-13.33 44 -13.66 44 -14 44 C-14.66 40.04 -15.32 36.08 -16 32 C-15.34 32 -14.68 32 -14 32 C-13.9071875 30.63875 -13.9071875 30.63875 -13.8125 29.25 C-12.41954063 19.76642733 -6.80130673 6.80130673 0 0 Z " fill="#501610" transform="translate(109,99)"/>
<path d="M0 0 C1.32 0.33 2.64 0.66 4 1 C5.8213213 7.14695938 6.19263224 12.88217771 6.1875 19.25 C6.1884668 20.42054932 6.1884668 20.42054932 6.18945312 21.61474609 C6.15244802 25.53476454 5.95666709 29.17333164 5 33 C3.68 32.67 2.36 32.34 1 32 C1.00523682 31.2793335 1.01047363 30.55866699 1.01586914 29.81616211 C1.03676875 26.52328375 1.04970131 23.23041941 1.0625 19.9375 C1.07087891 18.80376953 1.07925781 17.67003906 1.08789062 16.50195312 C1.10424847 10.89121133 1.01812097 5.52350669 0 0 Z " fill="#521310" transform="translate(232,132)"/>
<path d="M0 0 C0.66 0.33 1.32 0.66 2 1 C-3.39187725 6.83912974 -8.92254016 11.94295209 -15.375 16.5625 C-15.96941895 16.99159668 -16.56383789 17.42069336 -17.17626953 17.86279297 C-20.03343767 19.85965134 -22.50484669 21.50930114 -26 22 C-25.9175 23.010625 -25.835 24.02125 -25.75 25.0625 C-26.05731769 29.90275368 -27.3836295 31.99368267 -30 36 C-30.66 35.67 -31.32 35.34 -32 35 C-31.525625 34.34 -31.05125 33.68 -30.5625 33 C-29.03910731 30.07508604 -28.88333265 29.11663661 -28.8125 26 C-28.6484375 23.921875 -28.6484375 23.921875 -28 22 C-26.00011668 20.38307306 -24.0387781 19.29770216 -21.71484375 18.203125 C-21.14894531 17.80609375 -20.58304688 17.4090625 -20 17 C-20 15.68 -20 14.36 -20 13 C-18.1015625 11.11328125 -18.1015625 11.11328125 -15.625 9.3125 C-14.81289062 8.71050781 -14.00078125 8.10851562 -13.1640625 7.48828125 C-11 6 -11 6 -9 5 C-9.33 6.32 -9.66 7.64 -10 9 C-8.70756532 7.8758824 -7.41607925 6.75067408 -6.125 5.625 C-5.40570313 4.99851563 -4.68640625 4.37203125 -3.9453125 3.7265625 C-2.5923402 2.52573166 -1.2791655 1.2791655 0 0 Z " fill="#6B413C" transform="translate(246,208)"/>
<path d="M0 0 C4.32144472 0.52102525 6.49153279 1.91747622 9.75 4.75 C14.26957831 8.52310142 18.77475134 11.30309747 24 14 C24 18.29 24 22.58 24 27 C23.34 26.67 22.68 26.34 22 26 C22.05958061 24.6653943 22.14824586 23.33205417 22.25 22 C22.18365427 19.47510439 22.18365427 19.47510439 21 17 C15.98229077 12.77284131 10.30229333 9.21758026 4.12890625 6.94140625 C2 6 2 6 0.6875 2.875 C0.460625 1.92625 0.23375 0.9775 0 0 Z " fill="#4C120C" transform="translate(120,213)"/>
<path d="M0 0 C1.98 0.495 1.98 0.495 4 1 C5.16898166 4.63683183 5.02874952 7.93834538 4.87890625 11.734375 C4.83056641 13.02988281 4.78222656 14.32539063 4.73242188 15.66015625 C4.67590496 17.02344263 4.61926274 18.38672383 4.5625 19.75 C4.50924178 21.12888612 4.45650166 22.50779235 4.40429688 23.88671875 C4.27463047 27.25804533 4.13966346 30.62907518 4 34 C3.34 34 2.68 34 2 34 C0.76982069 29.06903125 0.6987221 24.11519336 0.5 19.0625 C0.25107821 12.28188916 0.25107821 12.28188916 -0.59375 5.55859375 C-1 3 -1 3 0 0 Z " fill="#5A1F1B" transform="translate(263,129)"/>
<path d="M0 0 C0.99 0.33 1.98 0.66 3 1 C4.203125 3.8359375 4.203125 3.8359375 5.25 7.375 C5.60578125 8.53773438 5.9615625 9.70046875 6.328125 10.8984375 C7 14 7 14 6 17 C6 20.86474861 7.34492416 23.20494458 9 26.6875 C9.556875 27.86699219 10.11375 29.04648438 10.6875 30.26171875 C11.120625 31.16535156 11.55375 32.06898438 12 33 C11.34 33 10.68 33 10 33 C-2.27270473 9.50403797 -2.27270473 9.50403797 0 0 Z " fill="#764A43" transform="translate(94,165)"/>
<path d="M0 0 C2.64 0.66 5.28 1.32 8 2 C7.67 2.66 7.34 3.32 7 4 C13.46008837 5.95021536 19.2718373 6.22262303 26 6 C26.33 6.99 26.66 7.98 27 9 C30.3 9.33 33.6 9.66 37 10 C37 10.33 37 10.66 37 11 C23.82830095 11.44123558 12.37751218 10.53903837 1 3 C0.67 2.01 0.34 1.02 0 0 Z " fill="#E1E1E2" transform="translate(149,194)"/>
<path d="M0 0 C0 5.11333558 -2.95383777 8.86901381 -6.3125 12.5 C-7.199375 13.325 -8.08625 14.15 -9 15 C-10.81949451 16.878569 -12.63647901 18.75944269 -14.44921875 20.64453125 C-16 22 -16 22 -18 22 C-16.48968223 17.19934707 -13.76703446 14.07257389 -10.5 10.375 C-6.54596326 5.84942675 -6.54596326 5.84942675 -3 1 C-2.01 0.67 -1.02 0.34 0 0 Z " fill="#4C1310" transform="translate(254,195)"/>
<path d="M0 0 C0.73605469 0.47050781 1.47210938 0.94101563 2.23046875 1.42578125 C3.20628906 2.04839844 4.18210938 2.67101562 5.1875 3.3125 C6.15042969 3.92738281 7.11335937 4.54226562 8.10546875 5.17578125 C10.94192059 7.01799022 10.94192059 7.01799022 13.8125 8.46875 C16 10 16 10 16.70703125 12.04296875 C16.8046875 14.02864583 16.90234375 16.01432292 17 18 C17.33 14.7 17.66 11.4 18 8 C18.33 8 18.66 8 19 8 C19.02578125 8.67546875 19.0515625 9.3509375 19.078125 10.046875 C19.29799455 15.70386341 19.29799455 15.70386341 22.0625 20.4375 C22.701875 20.953125 23.34125 21.46875 24 22 C24 22.99 24 23.98 24 25 C17.61533196 23.67488022 17.61533196 23.67488022 15.0625 20.875 C13.64614067 17.04249827 13.79290524 14.07286354 14 10 C13.27425781 9.731875 12.54851562 9.46375 11.80078125 9.1875 C9.03135976 8.01329619 6.69080566 6.6605676 4.1875 5 C3.39730469 4.484375 2.60710937 3.96875 1.79296875 3.4375 C1.20128906 2.963125 0.60960938 2.48875 0 2 C0 1.34 0 0.68 0 0 Z " fill="#70453F" transform="translate(126,220)"/>
<path d="M0 0 C0.66 0 1.32 0 2 0 C2.38297872 21.72340426 2.38297872 21.72340426 0 31 C-0.66 31 -1.32 31 -2 31 C-4.20808081 25.80451575 -3.93402724 22.41735797 -3 17 C-2.67 17 -2.34 17 -2 17 C-2 18.65 -2 20.3 -2 22 C-1.34 22 -0.68 22 0 22 C0 14.74 0 7.48 0 0 Z " fill="#734542" transform="translate(267,141)"/>
<path d="M0 0 C3.65169353 0.56418761 3.65169353 0.56418761 5.18847656 2.48706055 C5.50268555 3.11394775 5.81689453 3.74083496 6.140625 4.38671875 C6.48867187 5.07830078 6.83671875 5.76988281 7.1953125 6.48242188 C7.54335937 7.21009766 7.89140625 7.93777344 8.25 8.6875 C8.79527344 9.75000977 8.79527344 9.75000977 9.3515625 10.83398438 C11.42497377 15.05485731 12.45431814 18.19179972 12 23 C10.1875 22.4375 10.1875 22.4375 8 21 C6.5625 18.0625 6.5625 18.0625 5.859375 16.20703125 C4.43011681 12.53643636 2.67330088 9.01204552 0.98828125 5.453125 C0 3 0 3 0 0 Z " fill="#4C1511" transform="translate(98,180)"/>
<path d="M0 0 C0 0.99 0 1.98 0 3 C-2 5 -2 5 -4.5942688 5.20254517 C-5.69125092 5.18033905 -6.78823303 5.15813293 -7.91845703 5.13525391 C-9.15959259 5.11508209 -10.40072815 5.09491028 -11.67947388 5.0741272 C-13.03892524 5.04182178 -14.39837135 5.00929496 -15.7578125 4.9765625 C-17.14499295 4.95039885 -18.53219058 4.92513156 -19.91940308 4.90072632 C-23.57254751 4.83404087 -27.22533134 4.7551561 -30.87817383 4.67376709 C-34.60483954 4.59288026 -38.33171696 4.52347954 -42.05859375 4.453125 C-49.37265234 4.31335295 -56.68636809 4.16069829 -64 4 C-64 3.67 -64 3.34 -64 3 C-63.28003342 2.98969254 -62.56006683 2.97938507 -61.81828308 2.96876526 C-55.03499673 2.87080865 -48.25179289 2.76829673 -41.46865368 2.66066074 C-37.9813316 2.60548424 -34.49400105 2.55207274 -31.0065918 2.50268555 C-26.99779153 2.44583745 -22.98914643 2.38132952 -18.98046875 2.31640625 C-17.72727341 2.29969376 -16.47407806 2.28298126 -15.1829071 2.26576233 C-13.44144157 2.2358445 -13.44144157 2.2358445 -11.66479492 2.20532227 C-10.64109299 2.18977798 -9.61739105 2.1742337 -8.56266785 2.15821838 C-5.87992024 2.10284378 -5.87992024 2.10284378 -3 1 C-2.34 1 -1.68 1 -1 1 C-0.67 0.67 -0.34 0.34 0 0 Z " fill="#3A000E" transform="translate(215,240)"/>
<path d="M0 0 C3.63 0 7.26 0 11 0 C11.33 1.32 11.66 2.64 12 4 C9.10452736 4.33675279 6.20868928 4.66951734 3.3125 5 C2.49587891 5.09539062 1.67925781 5.19078125 0.83789062 5.2890625 C-3.12860052 5.73870522 -7.00002463 6.13034543 -11 6 C-10.67 5.01 -10.34 4.02 -10 3 C-6.7 2.67 -3.4 2.34 0 2 C0 1.34 0 0.68 0 0 Z " fill="#51130F" transform="translate(172,62)"/>
<path d="M0 0 C0 0.66 0 1.32 0 2 C-2.01822917 2.42317708 -4.03645833 2.84635417 -6.0546875 3.26953125 C-8.37046549 3.92308838 -8.37046549 3.92308838 -10 7 C-12.0234375 7.80078125 -12.0234375 7.80078125 -14.375 8.3125 C-15.14585937 8.49425781 -15.91671875 8.67601563 -16.7109375 8.86328125 C-19.40440809 9.02415407 -20.72497785 8.38682857 -23 7 C-23 6.34 -23 5.68 -23 5 C-15.51369074 2.28756911 -8.01458058 0 0 0 Z " fill="#71443D" transform="translate(172,62)"/>
<path d="M0 0 C0 0.99 0 1.98 0 3 C-7.30696826 4.98155071 -14.42925929 5.71303375 -22 5 C-22.99 4.34 -23.98 3.68 -25 3 C-21.77176021 2.49389097 -18.54227635 1.99620093 -15.3125 1.5 C-14.40048828 1.35691406 -13.48847656 1.21382812 -12.54882812 1.06640625 C-11.21948242 0.86337891 -11.21948242 0.86337891 -9.86328125 0.65625 C-9.05157471 0.53056641 -8.23986816 0.40488281 -7.40356445 0.27539062 C-4.91466595 -0.00977723 -2.50293311 -0.04674739 0 0 Z " fill="#541410" transform="translate(195,204)"/>
<path d="M0 0 C2.27864583 0.06510417 4.55729167 0.13020833 6.8359375 0.1953125 C6.8359375 4.4853125 6.8359375 8.7753125 6.8359375 13.1953125 C6.5059375 13.1953125 6.1759375 13.1953125 5.8359375 13.1953125 C5.5059375 11.2153125 5.1759375 9.2353125 4.8359375 7.1953125 C3.7221875 7.1128125 2.6084375 7.0303125 1.4609375 6.9453125 C-2.1640625 6.1953125 -2.1640625 6.1953125 -3.6015625 4.1328125 C-3.88 3.17375 -3.88 3.17375 -4.1640625 2.1953125 C-2.1640625 0.1953125 -2.1640625 0.1953125 0 0 Z " fill="#66332B" transform="translate(145.1640625,258.8046875)"/>
<path d="M0 0 C1.8889858 3.51285078 2.36416349 6.25050691 2.625 10.25 C2.69976562 11.32765625 2.77453125 12.4053125 2.8515625 13.515625 C2.92503906 14.74539062 2.92503906 14.74539062 3 16 C3.33 16 3.66 16 4 16 C4.33 18.97 4.66 21.94 5 25 C3.68 25.33 2.36 25.66 1 26 C-0.15664737 20.51730931 -0.11416255 15.19660726 -0.0625 9.625 C-0.05798828 8.69816406 -0.05347656 7.77132812 -0.04882812 6.81640625 C-0.03711574 4.54420291 -0.02071372 2.27213612 0 0 Z " fill="#5F201A" transform="translate(122,140)"/>
<path d="M0 0 C0.66 0 1.32 0 2 0 C2 3.96 2 7.92 2 12 C3.98 12 5.96 12 8 12 C8.33 13.65 8.66 15.3 9 17 C2.84765625 16.4140625 2.84765625 16.4140625 1 16 C-0.50156874 12.99686252 -0.09281204 10.20932478 -0.0625 6.875 C-0.05347656 5.59367188 -0.04445312 4.31234375 -0.03515625 2.9921875 C-0.02355469 2.00476563 -0.01195312 1.01734375 0 0 Z " fill="#48110B" transform="translate(209,247)"/>
<path d="M0 0 C-4.2024454 2.80163026 -7.00104935 2.14489712 -12 2 C-12 6.29 -12 10.58 -12 15 C-12.66 15.33 -13.32 15.66 -14 16 C-14 10.72 -14 5.44 -14 0 C-3.82142857 -1.20535714 -3.82142857 -1.20535714 0 0 Z " fill="#410504" transform="translate(207,280)"/>
<path d="M0 0 C1.95825873 -0.02694851 3.91662226 -0.04637218 5.875 -0.0625 C6.96554688 -0.07410156 8.05609375 -0.08570312 9.1796875 -0.09765625 C12 0 12 0 14 1 C14 1.99 14 2.98 14 4 C14.66 4 15.32 4 16 4 C15.67 4.66 15.34 5.32 15 6 C13.824375 5.505 13.824375 5.505 12.625 5 C8.00638131 3.72589829 3.75750644 3.83076064 -1 4 C-0.67 2.68 -0.34 1.36 0 0 Z " fill="#511611" transform="translate(174,119)"/>
<path d="M0 0 C0.99 0 1.98 0 3 0 C3 3.96 3 7.92 3 12 C9.93 12 16.86 12 24 12 C24 12.33 24 12.66 24 13 C16.41 13.33 8.82 13.66 1 14 C0.67 9.38 0.34 4.76 0 0 Z " fill="#5E281D" transform="translate(166,281)"/>
<path d="M0 0 C0.33 0 0.66 0 1 0 C1.73598077 8.49208584 2.29526567 16.53095523 1 25 C0.67 25 0.34 25 0 25 C0 22.69 0 20.38 0 18 C-0.66 18 -1.32 18 -2 18 C-2 15.03 -2 12.06 -2 9 C-1.34 9 -0.68 9 0 9 C0 6.03 0 3.06 0 0 Z " fill="#4E120E" transform="translate(93,139)"/>
<path d="M0 0 C5.04969516 0.44556134 7.47618687 2.55813601 11 6 C11 6.99 11 7.98 11 9 C5.55263158 8.39473684 5.55263158 8.39473684 3.25 6.75 C1.72738891 4.61834448 0.86577157 2.4641191 0 0 Z " fill="#501912" transform="translate(120,213)"/>
<path d="M0 0 C0.99 0.66 1.98 1.32 3 2 C1.75312408 2.96239452 0.50235031 3.91974009 -0.75 4.875 C-1.44609375 5.40867188 -2.1421875 5.94234375 -2.859375 6.4921875 C-4.8819213 7.91682778 -6.69165075 9.10856432 -9 10 C-9.99 9.67 -10.98 9.34 -12 9 C-8.25 6 -8.25 6 -6 6 C-6.66 5.67 -7.32 5.34 -8 5 C-8 3 -8 3 -6 1 C-2.875 1.375 -2.875 1.375 0 2 C0 1.34 0 0.68 0 0 Z " fill="#D6A92D" transform="translate(228,216)"/>
<path d="M0 0 C-0.99 0.33 -1.98 0.66 -3 1 C-3 1.66 -3 2.32 -3 3 C-0.36 3.33 2.28 3.66 5 4 C5 4.33 5 4.66 5 5 C4.35675781 4.93941406 3.71351563 4.87882812 3.05078125 4.81640625 C-4.29416058 4.13534888 -11.64413091 3.54964364 -19 3 C-19 2.67 -19 2.34 -19 2 C-12.56971459 0.67611771 -6.5705166 -0.24794402 0 0 Z " fill="#FBCF36" transform="translate(192,89)"/>
<path d="M0 0 C0.66 0 1.32 0 2 0 C2.76681614 10.68430493 2.76681614 10.68430493 0.88671875 13.91015625 C-0.5 15.25 -0.5 15.25 -3 17 C-3.66 16.67 -4.32 16.34 -5 16 C-4.01 15.67 -3.02 15.34 -2 15 C-1.34 10.05 -0.68 5.1 0 0 Z " fill="#57231E" transform="translate(209,265)"/>
<path d="M0 0 C0.66 0 1.32 0 2 0 C4.21747812 2.30276574 4.96760006 3.52480092 5.1875 6.75 C5.125625 7.4925 5.06375 8.235 5 9 C2.625 8.3125 2.625 8.3125 0 7 C-1.3125 4.375 -1.3125 4.375 -2 2 C-1.34 2 -0.68 2 0 2 C0 1.34 0 0.68 0 0 Z " fill="#5F2C26" transform="translate(151,273)"/>
<path d="M0 0 C2.0625 -0.4375 2.0625 -0.4375 5 0 C7.57260172 2.12080183 9.79254499 4.50627561 12 7 C11.67 7.66 11.34 8.32 11 9 C10.34 8.34 9.68 7.68 9 7 C8.01 7 7.02 7 6 7 C4.39453125 5.46875 4.39453125 5.46875 2.8125 3.5 C2.28269531 2.8503125 1.75289062 2.200625 1.20703125 1.53125 C0.80871094 1.0259375 0.41039062 0.520625 0 0 Z " fill="#4B100D" transform="translate(214,107)"/>
<path d="M0 0 C1.98 0.99 3.96 1.98 6 3 C6.33 2.01 6.66 1.02 7 0 C7 0.66 7 1.32 7 2 C12.61 2 18.22 2 24 2 C24 2.33 24 2.66 24 3 C23.10796875 3.06058594 22.2159375 3.12117187 21.296875 3.18359375 C19.54117188 3.30927734 19.54117188 3.30927734 17.75 3.4375 C16.00976562 3.55931641 16.00976562 3.55931641 14.234375 3.68359375 C11.14342477 3.88811794 11.14342477 3.88811794 8.8125 4.625 C5.49050112 5.31231011 2.96130758 3.42370557 0 2 C0 1.34 0 0.68 0 0 Z " fill="#6C372A" transform="translate(144,242)"/>
<path d="M0 0 C5.06998019 0.65419099 9.41990777 2.8546409 14 5 C13.01 5.66 12.02 6.32 11 7 C8.73828125 6.5390625 8.73828125 6.5390625 6.3125 5.625 C5.50425781 5.32851562 4.69601563 5.03203125 3.86328125 4.7265625 C2.94095703 4.36691406 2.94095703 4.36691406 2 4 C2 3.34 2 2.68 2 2 C1.34 1.34 0.68 0.68 0 0 Z " fill="#4C120D" transform="translate(207,68)"/>
<path d="M0 0 C0.66 0.33 1.32 0.66 2 1 C1.49701212 5.40114397 -0.08772731 7.71195019 -3 11 C-3.66 9.68 -4.32 8.36 -5 7 C-3.35 4.69 -1.7 2.38 0 0 Z " fill="#571C16" transform="translate(135,113)"/>
<path d="M0 0 C0.57105469 0.06058594 1.14210937 0.12117187 1.73046875 0.18359375 C8.81151694 0.91533959 15.90074094 1.47701383 23 2 C23 2.33 23 2.66 23 3 C20.47966841 3.25112548 17.96123432 3.47626233 15.4375 3.6875 C14.73302734 3.76033203 14.02855469 3.83316406 13.30273438 3.90820312 C8.01254645 4.32264181 4.72625668 3.41591833 0 1 C0 0.67 0 0.34 0 0 Z " fill="#D1D3D3" transform="translate(155,197)"/>
<path d="M0 0 C1.32 0.66 2.64 1.32 4 2 C1.69 4.31 -0.62 6.62 -3 9 C-3.66 7.68 -4.32 6.36 -5 5 C-3.35 3.35 -1.7 1.7 0 0 Z " fill="#4A0E0E" transform="translate(141,107)"/>
<path d="M0 0 C0.66 0.33 1.32 0.66 2 1 C1.34 1.66 0.68 2.32 0 3 C0.99 4.485 0.99 4.485 2 6 C0.35 7.65 -1.3 9.3 -3 11 C-3.66 9.35 -4.32 7.7 -5 6 C-3.35 4.02 -1.7 2.04 0 0 Z " fill="#51180F" transform="translate(114,91)"/>
<path d="M0 0 C0.33 0 0.66 0 1 0 C1.3278658 4.69030249 1.51480362 8.71299094 -0.25 13.125 C-4.7635646 16.20243041 -9.70457039 15.37467662 -15 15 C-15 14.67 -15 14.34 -15 14 C-13.84371094 13.96132812 -13.84371094 13.96132812 -12.6640625 13.921875 C-11.66117188 13.86515625 -10.65828125 13.8084375 -9.625 13.75 C-8.62726563 13.70359375 -7.62953125 13.6571875 -6.6015625 13.609375 C-3.9111174 13.27687975 -3.9111174 13.27687975 -2.71875 11.25 C-1.97617263 8.92540998 -1.36716438 6.64051269 -0.875 4.25 C-0.70742187 3.45078125 -0.53984375 2.6515625 -0.3671875 1.828125 C-0.24601563 1.22484375 -0.12484375 0.6215625 0 0 Z " fill="#E2B92D" transform="translate(214,227)"/>
<path d="M0 0 C1.32 0.33 2.64 0.66 4 1 C4.13277344 1.67546875 4.26554687 2.3509375 4.40234375 3.046875 C4.57894531 3.93890625 4.75554687 4.8309375 4.9375 5.75 C5.19853516 7.07257813 5.19853516 7.07257813 5.46484375 8.421875 C5.92368488 10.63235053 6.43336074 12.81512068 7 15 C4.47138427 12.73946101 3.16143472 10.60099936 1.8125 7.5 C1.46832031 6.7265625 1.12414062 5.953125 0.76953125 5.15625 C0 3 0 3 0 0 Z " fill="#49120C" transform="translate(98,180)"/>
<path d="M0 0 C0.75 1.75 0.75 1.75 1 4 C-0.625 6.3125 -0.625 6.3125 -3 8 C-5.75 7.75 -5.75 7.75 -8 7 C-5.42215154 4.35247996 -3.08351902 2.05567935 0 0 Z " fill="#581D18" transform="translate(150,100)"/>
<path d="M0 0 C1.5 1.3125 1.5 1.3125 3 3 C3 3.99 3 4.98 3 6 C3.99 6.33 4.98 6.66 6 7 C6.103125 7.721875 6.20625 8.44375 6.3125 9.1875 C7.05986932 12.24491993 8.28045189 14.38329635 10 17 C9.01 17 8.02 17 7 17 C5.82866942 14.54379149 4.66278278 12.08525083 3.5 9.625 C3.16613281 8.92632812 2.83226563 8.22765625 2.48828125 7.5078125 C0 2.2265625 0 2.2265625 0 0 Z " fill="#F5DD71" transform="translate(101,179)"/>
<path d="M0 0 C0.33 0.66 0.66 1.32 1 2 C0.06862408 3.29608947 -0.8703566 4.58671632 -1.8125 5.875 C-2.33457031 6.59429687 -2.85664063 7.31359375 -3.39453125 8.0546875 C-5 10 -5 10 -8 12 C-8 9 -8 9 -6 7 C-5.71125 6.360625 -5.4225 5.72125 -5.125 5.0625 C-3.79606898 2.62612647 -2.2869391 1.52462607 0 0 Z " fill="#E7E8E7" transform="translate(226,177)"/>
<path d="M0 0 C-0.71428571 8.57142857 -0.71428571 8.57142857 -4 12 C-5.01661577 7.62855218 -5.16888759 4.99531924 -3 1 C-1 0 -1 0 0 0 Z " fill="#4E120F" transform="translate(236,163)"/>
<path d="M0 0 C0.33 0 0.66 0 1 0 C1.06058594 0.92941406 1.12117187 1.85882813 1.18359375 2.81640625 C1.79571552 11.94146885 1.79571552 11.94146885 3 21 C1.68 20.67 0.36 20.34 -1 20 C-0.67 13.4 -0.34 6.8 0 0 Z " fill="#7B4942" transform="translate(234,144)"/>
<path d="M0 0 C0.33 1.32 0.66 2.64 1 4 C-1.31 5.32 -3.62 6.64 -6 8 C-6 7.01 -6 6.02 -6 5 C-6.66 4.67 -7.32 4.34 -8 4 C-2.25 0 -2.25 0 0 0 Z " fill="#5C2822" transform="translate(173,120)"/>
<path d="M0 0 C0.99 0.33 1.98 0.66 3 1 C1.84414715 4.91211733 0.64465038 7.8745041 -2 11 C-2.66 10.67 -3.32 10.34 -4 10 C-2.8905928 6.51329166 -1.73662334 3.22515763 0 0 Z " fill="#480E0A" transform="translate(103,108)"/>
<path d="M0 0 C2.01822917 0.06510417 4.03645833 0.13020833 6.0546875 0.1953125 C6.0546875 0.8553125 6.0546875 1.5153125 6.0546875 2.1953125 C7.3746875 2.8553125 8.6946875 3.5153125 10.0546875 4.1953125 C0.64466472 3.23175897 0.64466472 3.23175897 -3.9453125 2.1953125 C-1.9453125 0.1953125 -1.9453125 0.1953125 0 0 Z " fill="#5B1F16" transform="translate(200.9453125,66.8046875)"/>
<path d="M0 0 C3.53372712 1.96318174 6.24479785 4.04070881 9 7 C8.34 8.32 7.68 9.64 7 11 C6.01 10.67 5.02 10.34 4 10 C3.375 8.125 3.375 8.125 3 6 C2.67 5.01 2.34 4.02 2 3 C1.34 2.67 0.68 2.34 0 2 C0 1.34 0 0.68 0 0 Z " fill="#D8AA2E" transform="translate(229,83)"/>
<path d="M0 0 C-2.61331914 1.41554787 -5.30718129 2.58131312 -8.0625 3.6875 C-8.73410156 3.95949219 -9.40570313 4.23148437 -10.09765625 4.51171875 C-12 5 -12 5 -15 4 C-13 1 -13 1 -10.875 0.3125 C-7.22010878 -0.08477078 -3.67638613 -0.06231163 0 0 Z " fill="#F4D96E" transform="translate(170,68)"/>
<path d="M0 0 C0.33 0 0.66 0 1 0 C1.33 3.96 1.66 7.92 2 12 C-0.475 13.485 -0.475 13.485 -3 15 C-2.49396008 12.83125748 -2.00016187 11.00032373 -1 9 C-0.77532169 7.46331135 -0.59203195 5.92031946 -0.4375 4.375 C-0.35371094 3.55773437 -0.26992187 2.74046875 -0.18359375 1.8984375 C-0.12300781 1.27195313 -0.06242188 0.64546875 0 0 Z " fill="#602117" transform="translate(215,228)"/>
<path d="M0 0 C2.1015625 0.4296875 2.1015625 0.4296875 4 1 C2.88121617 2.17262904 1.75476949 3.33795138 0.625 4.5 C-0.00148437 5.1496875 -0.62796875 5.799375 -1.2734375 6.46875 C-3 8 -3 8 -5 8 C-2.89285714 2.00274725 -2.89285714 2.00274725 0 0 Z " fill="#4B120C" transform="translate(241,209)"/>
<path d="M0 0 C-0.33 1.65 -0.66 3.3 -1 5 C-1.66 5 -2.32 5 -3 5 C-3 5.99 -3 6.98 -3 8 C-4.65 8 -6.3 8 -8 8 C-6.48291727 4.46014029 -4.24676932 0 0 0 Z " fill="#F0D26C" transform="translate(126,87)"/>
<path d="M0 0 C-0.33 6.6 -0.66 13.2 -1 20 C-1.33 20 -1.66 20 -2 20 C-2.33 13.73 -2.66 7.46 -3 1 C-1 0 -1 0 0 0 Z " fill="#400507" transform="translate(126,138)"/>
<path d="M0 0 C0.99 0.33 1.98 0.66 3 1 C2.34 1 1.68 1 1 1 C1.33 1.99 1.66 2.98 2 4 C1.40206327 6.35188447 0.74118205 8.68925595 0 11 C-0.99 10.67 -1.98 10.34 -3 10 C-1.125 2.25 -1.125 2.25 0 0 Z " fill="#F5F5F3" transform="translate(165,130)"/>
<path d="M0 0 C0 0.99 0 1.98 0 3 C-0.66 3.66 -1.32 4.32 -2 5 C-5.0390625 4.9765625 -5.0390625 4.9765625 -8.625 4.625 C-9.81351563 4.51414063 -11.00203125 4.40328125 -12.2265625 4.2890625 C-13.59941406 4.14597656 -13.59941406 4.14597656 -15 4 C-15 3.67 -15 3.34 -15 3 C-14.07767578 2.90912109 -14.07767578 2.90912109 -13.13671875 2.81640625 C-12.32847656 2.73261719 -11.52023438 2.64882812 -10.6875 2.5625 C-9.48673828 2.44068359 -9.48673828 2.44068359 -8.26171875 2.31640625 C-5.83912821 2.04734307 -5.83912821 2.04734307 -3 1 C-2.34 1 -1.68 1 -1 1 C-0.67 0.67 -0.34 0.34 0 0 Z " fill="#460C0E" transform="translate(215,240)"/>
<path d="M0 0 C0.99 0.66 1.98 1.32 3 2 C1.23043542 4.14210449 0.12424348 4.96060573 -2.5625 5.8125 C-3.7690625 5.9053125 -3.7690625 5.9053125 -5 6 C-5.66 5.34 -6.32 4.68 -7 4 C-6 2 -6 2 -3.125 0.75 C-1.578125 0.37875 -1.578125 0.37875 0 0 Z " fill="#5F211C" transform="translate(200,201)"/>
<path d="M0 0 C2.64 0.66 5.28 1.32 8 2 C7.67 2.66 7.34 3.32 7 4 C9.475 4.99 9.475 4.99 12 6 C9 7 9 7 6.73828125 6.00390625 C5.93777344 5.52824219 5.13726562 5.05257812 4.3125 4.5625 C3.50425781 4.08941406 2.69601563 3.61632812 1.86328125 3.12890625 C1.24839844 2.75636719 0.63351563 2.38382813 0 2 C0 1.34 0 0.68 0 0 Z " fill="#E6E5E6" transform="translate(149,194)"/>
<path d="M0 0 C5.02254631 -0.2954439 7.89542386 0.01485372 12 3 C10 4 10 4 8.0625 3.5 C5.82334576 2.76397597 5.82334576 2.76397597 3 4 C2.01 3.34 1.02 2.68 0 2 C0 1.34 0 0.68 0 0 Z " fill="#632F29" transform="translate(218,74)"/>
<path d="M0 0 C0.99 0.33 1.98 0.66 3 1 C3 2.65 3 4.3 3 6 C1.68 6 0.36 6 -1 6 C-1.042721 4.33388095 -1.04063832 2.66617115 -1 1 C-0.67 0.67 -0.34 0.34 0 0 Z " fill="#5B2823" transform="translate(179,176)"/>
<path d="M0 0 C2 3 2 3 2 6 C2.66 6 3.32 6 4 6 C3.34 7.32 2.68 8.64 2 10 C1.34 10 0.68 10 0 10 C-1.125 3.375 -1.125 3.375 0 0 Z " fill="#4C100C" transform="translate(262,122)"/>
<path d="M0 0 C3.465 1.98 3.465 1.98 7 4 C6.34 5.32 5.68 6.64 5 8 C4.01 7.34 3.02 6.68 2 6 C2 5.01 2 4.02 2 3 C1.34 3 0.68 3 0 3 C0 2.01 0 1.02 0 0 Z " fill="#5D2621" transform="translate(188,120)"/>
<path d="M0 0 C0 0.99 0 1.98 0 3 C0.66 3 1.32 3 2 3 C1.67 3.66 1.34 4.32 1 5 C-0.2684375 4.5359375 -0.2684375 4.5359375 -1.5625 4.0625 C-5.0497854 2.98461179 -8.38177535 2.43418696 -12 2 C-12 1.67 -12 1.34 -12 1 C-10.56274129 0.83126522 -9.12518162 0.66509263 -7.6875 0.5 C-6.88699219 0.4071875 -6.08648437 0.314375 -5.26171875 0.21875 C-3 0 -3 0 0 0 Z " fill="#450E0A" transform="translate(188,120)"/>
<path d="M0 0 C2.4375 0.75 2.4375 0.75 5 2 C5.8125 4.125 5.8125 4.125 6 6 C4.35 5.67 2.7 5.34 1 5 C0.67 3.35 0.34 1.7 0 0 Z " fill="#5C251C" transform="translate(138,188)"/>
<path d="M0 0 C1.65 0 3.3 0 5 0 C-1.15034169 7.48291572 -1.15034169 7.48291572 -5 10 C-3.95460281 7.74837528 -2.88843583 5.85410839 -1.375 3.875 C0.19712122 2.11872074 0.19712122 2.11872074 0 0 Z " fill="#FBCF3B" transform="translate(139,104)"/>
<path d="M0 0 C0.99 0.33 1.98 0.66 3 1 C3.33 3.31 3.66 5.62 4 8 C3.01 8 2.02 8 1 8 C1 7.01 1 6.02 1 5 C0.34 5 -0.32 5 -1 5 C-0.67 3.35 -0.34 1.7 0 0 Z " fill="#490F0D" transform="translate(94,165)"/>
<path d="M0 0 C1.65 1.65 3.3 3.3 5 5 C4.67 5.99 4.34 6.98 4 8 C4 7.34 4 6.68 4 6 C3.360625 5.896875 2.72125 5.79375 2.0625 5.6875 C1.381875 5.460625 0.70125 5.23375 0 5 C-0.33 4.01 -0.66 3.02 -1 2 C-0.67 1.34 -0.34 0.68 0 0 Z " fill="#4A120C" transform="translate(194,125)"/>
<path d="M0 0 C1.27875 -0.061875 2.5575 -0.12375 3.875 -0.1875 C4.95394531 -0.23970703 4.95394531 -0.23970703 6.0546875 -0.29296875 C6.69664062 -0.19628906 7.33859375 -0.09960938 8 0 C8.66 0.99 9.32 1.98 10 3 C8.375 3.6875 8.375 3.6875 6 4 C2.75 2.5625 2.75 2.5625 0 1 C0 0.67 0 0.34 0 0 Z " fill="#4C100D" transform="translate(200,99)"/>
<path d="M0 0 C0.99 0.33 1.98 0.66 3 1 C3 1.66 3 2.32 3 3 C0.625 4.6875 0.625 4.6875 -2 6 C-2.66 5.67 -3.32 5.34 -4 5 C-3 2 -3 2 0 0 Z " fill="#F9CB33" transform="translate(149,97)"/>
<path d="M0 0 C0.66 0 1.32 0 2 0 C1.34 1.98 0.68 3.96 0 6 C-1.65 6 -3.3 6 -5 6 C-3.38405168 3.95880212 -1.7143618 1.95927063 0 0 Z " fill="#5C1D17" transform="translate(246,203)"/>
<path d="M0 0 C2 1.3125 2 1.3125 4 3 C4 3.99 4 4.98 4 6 C1.525 5.01 1.525 5.01 -1 4 C-0.67 2.68 -0.34 1.36 0 0 Z " fill="#4E130A" transform="translate(146,239)"/>
<path d="M0 0 C0.66 0.66 1.32 1.32 2 2 C1.7578125 4.1640625 1.7578125 4.1640625 1.125 6.625 C0.92132813 7.44226563 0.71765625 8.25953125 0.5078125 9.1015625 C0.34023438 9.72804687 0.17265625 10.35453125 0 11 C-2 8 -2 8 -1.7578125 5.95703125 C-1.171875 3.97135417 -0.5859375 1.98567708 0 0 Z " fill="#60211D" transform="translate(262,168)"/>
<path d="M0 0 C2.1519437 3.22791555 2.20086443 4.28400809 2 8 C1.01 8 0.02 8 -1 8 C-1.125 2.25 -1.125 2.25 0 0 Z " fill="#4A1410" transform="translate(160,133)"/>
<path d="M0 0 C1.32 0 2.64 0 4 0 C4.99 2.64 5.98 5.28 7 8 C2.60841671 6.5361389 2.12052567 4.02168662 0 0 Z " fill="#F7CD37" transform="translate(225,113)"/>
<path d="M0 0 C1.875 0.1875 1.875 0.1875 4 1 C5.25 3.5625 5.25 3.5625 6 6 C4.125 5.8125 4.125 5.8125 2 5 C0.75 2.4375 0.75 2.4375 0 0 Z " fill="#653932" transform="translate(251,101)"/>
<path d="M0 0 C2.97 0.33 5.94 0.66 9 1 C9 1.33 9 1.66 9 2 C4.545 2.495 4.545 2.495 0 3 C0 2.01 0 1.02 0 0 Z " fill="#4E0F0B" transform="translate(165,204)"/>
<path d="M0 0 C1.89213369 2.38573379 3.02391783 4.07175348 4 7 C3.34 7.66 2.68 8.32 2 9 C0.4375 6.1875 0.4375 6.1875 -1 3 C-0.67 2.01 -0.34 1.02 0 0 Z " fill="#5E2217" transform="translate(103,186)"/>
<path d="M0 0 C1.0625 1.875 1.0625 1.875 2 4 C1.67 4.66 1.34 5.32 1 6 C-1.0625 6.625 -1.0625 6.625 -3 7 C-1.125 1.125 -1.125 1.125 0 0 Z " fill="#4A0D0C" transform="translate(130,121)"/>
<path d="M0 0 C1.65 0.33 3.3 0.66 5 1 C3.75 2.5625 3.75 2.5625 2 4 C-0.1875 3.6875 -0.1875 3.6875 -2 3 C-1.34 2.01 -0.68 1.02 0 0 Z " fill="#541B13" transform="translate(132,77)"/>
<path d="M0 0 C3.3 0.33 6.6 0.66 10 1 C10 1.33 10 1.66 10 2 C6.37 2.33 2.74 2.66 -1 3 C-0.67 2.01 -0.34 1.02 0 0 Z " fill="#450907" transform="translate(162,65)"/>
<path d="M0 0 C2.31 1.98 4.62 3.96 7 6 C6.67 6.99 6.34 7.98 6 9 C1.125 4.5 1.125 4.5 0 0 Z " fill="#663D3C" transform="translate(107,200)"/>
<path d="M0 0 C3 0 3 0 4.6875 1.5 C5.120625 1.995 5.55375 2.49 6 3 C5.34 4.32 4.68 5.64 4 7 C4 6.34 4 5.68 4 5 C3.34 5 2.68 5 2 5 C1.34 3.35 0.68 1.7 0 0 Z " fill="#5F211C" transform="translate(229,127)"/>
<path d="M0 0 C0.66 0.33 1.32 0.66 2 1 C1.34 1.66 0.68 2.32 0 3 C0.99 4.485 0.99 4.485 2 6 C1.01 6.495 1.01 6.495 0 7 C-0.99 6.34 -1.98 5.68 -3 5 C-1.125 1.125 -1.125 1.125 0 0 Z " fill="#65392E" transform="translate(114,91)"/>
</svg>
