<?xml version="1.0" encoding="UTF-8"?>
<svg version="1.1" xmlns="http://www.w3.org/2000/svg" width="360" height="360">
<path d="M0 0 C1.07036499 0.22357178 1.07036499 0.22357178 2.16235352 0.45166016 C7.28772548 1.63411312 11.63014231 3.64565554 16.25 6.125 C17.12785156 6.5478125 18.00570312 6.970625 18.91015625 7.40625 C34.2097452 15.16799269 46.17330445 26.70252057 55.25 41.125 C56.054375 42.3934375 56.054375 42.3934375 56.875 43.6875 C57.32875 44.491875 57.7825 45.29625 58.25 46.125 C58.889375 47.23875 59.52875 48.3525 60.1875 49.5 C62.7222094 54.58884186 63.95150895 60.05253586 65.3203125 65.5390625 C66.16366569 69.03018785 66.16366569 69.03018785 67.28271484 71.94848633 C73.1271442 91.14128552 67.61251929 115.21033659 59.3125 132.75 C58.32361837 134.55949807 57.3028318 136.35194745 56.25 138.125 C55.66992188 139.11113281 55.08984375 140.09726563 54.4921875 141.11328125 C51.49581727 146.00994689 48.5557608 150.27247718 44.25 154.125 C43.38375 155.0325 42.5175 155.94 41.625 156.875 C39.25 159.125 39.25 159.125 36.25 160.125 C35.95609375 160.73730469 35.6621875 161.34960938 35.359375 161.98046875 C33.90498931 164.79193967 32.15773434 165.75024138 29.5 167.4375 C21.2690161 173.05114945 18.10000933 178.12318996 14.546875 187.38671875 C12.7534847 191.17336513 10.55547415 192.64589438 7.25 195.125 C6.29452419 197.79608098 6.29452419 197.79608098 6.25 200.125 C7.24 200.455 8.23 200.785 9.25 201.125 C8.92 202.775 8.59 204.425 8.25 206.125 C7.59 206.125 6.93 206.125 6.25 206.125 C6.27320313 206.81207031 6.29640625 207.49914062 6.3203125 208.20703125 C6.33835937 209.10808594 6.35640625 210.00914062 6.375 210.9375 C6.39820313 211.83082031 6.42140625 212.72414063 6.4453125 213.64453125 C6.25 216.125 6.25 216.125 4.25 219.125 C1.125 219.8125 1.125 219.8125 -1.75 220.125 C-1.76417969 220.71667969 -1.77835937 221.30835938 -1.79296875 221.91796875 C-2.06496119 226.42422192 -2.27197715 228.55137258 -5.25 232.125 C-6.4875 233.115 -6.4875 233.115 -7.75 234.125 C-8.08 234.455 -8.41 234.785 -8.75 235.125 C-13.21788117 235.41653598 -17.69155651 235.43912107 -22.16772461 235.47509766 C-23.67211435 235.49160274 -25.17642743 235.51882105 -26.68041992 235.55712891 C-28.85376499 235.61219879 -31.02526774 235.63381918 -33.19921875 235.6484375 C-34.50205811 235.66825684 -35.80489746 235.68807617 -37.1472168 235.70849609 C-41.87544472 234.94272631 -43.44677426 233.53576531 -46.75 230.125 C-47.3359375 227.23046875 -47.3359375 227.23046875 -47.125 224.3125 C-47.07085937 223.33667969 -47.01671875 222.36085938 -46.9609375 221.35546875 C-46.89132813 220.61941406 -46.82171875 219.88335937 -46.75 219.125 C-49.06 219.125 -51.37 219.125 -53.75 219.125 C-55.53409802 216.06253253 -55.97880021 213.90420727 -55.875 210.375 C-55.85695312 209.57578125 -55.83890625 208.7765625 -55.8203125 207.953125 C-55.79710937 207.34984375 -55.77390625 206.7465625 -55.75 206.125 C-56.74 205.795 -57.73 205.465 -58.75 205.125 C-58.42 203.475 -58.09 201.825 -57.75 200.125 C-57.09 200.125 -56.43 200.125 -55.75 200.125 C-55.87056596 197.75960948 -55.87056596 197.75960948 -56.75 195.125 C-57.513125 194.526875 -58.27625 193.92875 -59.0625 193.3125 C-62.63094102 190.40795498 -63.88260445 187.24666188 -65.75 183.125 C-66.49565435 181.66443994 -67.24551731 180.20601922 -68 178.75 C-69.75 175.37115385 -69.75 175.37115385 -69.75 173.125 C-70.306875 172.8775 -70.86375 172.63 -71.4375 172.375 C-74.16367764 170.90139047 -76.34564895 169.08202992 -78.75 167.125 C-80.4585789 165.92310312 -82.17632746 164.73736797 -83.90625 163.56640625 C-86.40390306 161.61379189 -88.53857075 159.39575224 -90.75 157.125 C-91.63558594 156.22523438 -92.52117187 155.32546875 -93.43359375 154.3984375 C-99.45371036 148.06237151 -103.94091508 142.06576335 -107.75 134.125 C-108.11480469 133.485625 -108.47960937 132.84625 -108.85546875 132.1875 C-111.92333632 126.73351321 -113.30333735 120.83261492 -114.8203125 114.80859375 C-115.67853473 111.18399172 -115.67853473 111.18399172 -116.84375 107.97265625 C-120.27997459 93.38351306 -118.86843209 76.11759683 -113.75 62.125 C-113.35296875 60.89523438 -112.9559375 59.66546875 -112.546875 58.3984375 C-108.97879256 47.67160739 -104.0898327 40.27606263 -96.8671875 31.65625 C-95.32245793 29.80941464 -93.83185534 27.91691492 -92.375 26 C-85.04221983 17.96885981 -75.60344798 10.75008783 -65.75 6.125 C-64.656875 5.485625 -63.56375 4.84625 -62.4375 4.1875 C-56.2876039 1.10072523 -49.40930109 -0.03784816 -42.72265625 -1.44335938 C-41.10656395 -1.79697957 -39.50369531 -2.21054357 -37.90625 -2.640625 C-25.74189761 -5.64321831 -12.03521692 -2.5653182 0 0 Z " fill="#F7BE2F" transform="translate(204.75,64.875)"/>
<path d="M0 0 C0 0.66 0 1.32 0 2 C1.16273438 2.1134375 2.32546875 2.226875 3.5234375 2.34375 C25.03659614 5.06717404 43.97063665 20.58394293 57 37 C71.31966549 57.52313069 76.86746567 80.47026961 73.4921875 105.2421875 C70.33081394 122.72058613 63.44203025 137.51971335 52 151 C51.50757813 151.62648437 51.01515625 152.25296875 50.5078125 152.8984375 C45.73649941 158.85583971 39.69192467 163.33620625 33.53125 167.78125 C25.66138438 173.55248478 22.21085054 179.63911616 19.08984375 188.80078125 C17.78446063 191.43494145 16.52490469 192.52515019 14 194 C13.01 194 12.02 194 11 194 C11 196.64 11 199.28 11 202 C12.32 202.33 13.64 202.66 15 203 C14.67 203.99 14.34 204.98 14 206 C13.01 206 12.02 206 11 206 C11 209.96 11 213.92 11 218 C8.36 218 5.72 218 3 218 C3.05800781 218.73605469 3.11601562 219.47210938 3.17578125 220.23046875 C3.24345703 221.69419922 3.24345703 221.69419922 3.3125 223.1875 C3.37050781 224.15042969 3.42851562 225.11335937 3.48828125 226.10546875 C2.80562123 230.15227733 1.1499052 231.43524772 -2 234 C-5.2421875 234.64697266 -5.2421875 234.64697266 -8.875 234.6640625 C-10.18984375 234.67050781 -11.5046875 234.67695313 -12.859375 234.68359375 C-13.8793457 234.6678833 -13.8793457 234.6678833 -14.91992188 234.65185547 C-16.99534681 234.62506008 -19.06536676 234.65162887 -21.140625 234.68359375 C-23.11289063 234.67392578 -23.11289063 234.67392578 -25.125 234.6640625 C-26.32382813 234.65842285 -27.52265625 234.6527832 -28.7578125 234.64697266 C-32.89903503 233.82059918 -34.4024819 232.26342454 -37 229 C-37.48828125 226.10546875 -37.48828125 226.10546875 -37.3125 223.1875 C-37.24482422 221.72376953 -37.24482422 221.72376953 -37.17578125 220.23046875 C-37.11777344 219.49441406 -37.05976563 218.75835937 -37 218 C-39.64 218 -42.28 218 -45 218 C-45 214.04 -45 210.08 -45 206 C-46.32 205.67 -47.64 205.34 -49 205 C-48.67 204.01 -48.34 203.02 -48 202 C-47.01 202 -46.02 202 -45 202 C-45 199.36 -45 196.72 -45 194 C-45.7425 193.938125 -46.485 193.87625 -47.25 193.8125 C-51.03440577 192.69438011 -51.88845331 191.33760607 -54 188 C-54.64930081 186.40551446 -55.27213045 184.80011403 -55.875 183.1875 C-59.49301939 173.85245761 -64.93881385 169.03191823 -72.9765625 163.20703125 C-89.35661351 151.25001727 -101.7656352 133.00180214 -106 113 C-106.09375 110.1328125 -106.09375 110.1328125 -106 108 C-105.01 108 -104.02 108 -103 108 C-102.64808594 109.14855469 -102.29617187 110.29710937 -101.93359375 111.48046875 C-97.62413713 125.18457043 -92.32502077 136.88257865 -83 148 C-82.236875 149.010625 -81.47375 150.02125 -80.6875 151.0625 C-76.2297304 155.93494585 -70.96465309 159.88376796 -65.59765625 163.71484375 C-57.17077883 169.83693418 -52.20849453 177.25047516 -48.82421875 187.06640625 C-48.16720157 189.18616225 -48.16720157 189.18616225 -46 190 C-40.72 190.33 -35.44 190.66 -30 191 C-30 166.91 -30 142.82 -30 118 C-36.27 118 -42.54 118 -49 118 C-58.94350282 111.78531073 -58.94350282 111.78531073 -60.6875 107.1875 C-61.59539361 100.83224471 -60.96027132 97.15916083 -57.58203125 91.796875 C-54.61183906 88.42332338 -51.94953474 87.14673661 -47.51171875 86.4609375 C-35.91307762 86.20029388 -35.91307762 86.20029388 -31.1875 90.1875 C-27.42817506 93.99661732 -26.08158116 97.42548354 -25.8046875 102.76953125 C-25.81597236 104.11734405 -25.84173691 105.46505046 -25.875 106.8125 C-25.91625 109.184375 -25.9575 111.55625 -26 114 C-20.06 114 -14.12 114 -8 114 C-8.11776809 109.33318628 -8.11776809 109.33318628 -8.27026367 104.66748047 C-8.34044057 99.10313125 -7.06145734 95.23480717 -3.28125 91.13671875 C-2.6934375 90.65847656 -2.105625 90.18023437 -1.5 89.6875 C-0.61828125 88.95080078 -0.61828125 88.95080078 0.28125 88.19921875 C4.44035917 85.29729485 9.14474995 85.45703038 14 86 C18.9031068 87.37217071 22.10403713 89.62311551 25 93.8125 C27.12451083 97.70863681 27.71765293 100.53460399 27 105 C25.03902953 110.81718056 22.53284552 114.05699707 17 117 C10.35169194 119.21610269 3.00793201 118 -4 118 C-4 142.09 -4 166.18 -4 191 C10.8164324 191.84518923 10.8164324 191.84518923 15 187 C15.78677606 185.14843513 16.50962089 183.26914597 17.1875 181.375 C21.17584235 171.55207966 27.67213364 165.83495815 36.2890625 159.921875 C53.05239832 148.03778102 64.9270354 127.94964836 68.63818359 107.77148438 C71.87191059 83.00139742 67.86174561 59.10147973 52.89306641 38.87597656 C39.31216928 21.25175668 19.59152527 8.21443306 -2.79248047 5.2109375 C-29.19429545 2.68813633 -52.84520881 8.01474073 -73.625 25.125 C-91.41365663 40.37467751 -99.80733579 60.43097777 -104 83 C-104.99 83 -105.98 83 -107 83 C-108.20474863 61.1271193 -101.07965836 46.64199769 -87 30 C-86.21625 28.96875 -85.4325 27.9375 -84.625 26.875 C-77.29221983 18.84385981 -67.85344798 11.62508783 -58 7 C-56.906875 6.360625 -55.81375 5.72125 -54.6875 5.0625 C-48.5376039 1.97572523 -41.65930109 0.83715184 -34.97265625 -0.56835938 C-33.35656395 -0.92197957 -31.75369531 -1.33554357 -30.15625 -1.765625 C-21.73194099 -3.84504305 -7.93516567 -3.96758284 0 0 Z " fill="#561A17" transform="translate(197,64)"/>
<path d="M0 0 C9.60078446 0.4965923 19.29317293 3.12950883 27 9 C28.25114585 9.62557293 29.51140584 10.23305472 30.77734375 10.828125 C35.15536414 12.96493143 38.80226337 15.6741528 42.5625 18.75 C43.21726318 19.28149658 43.87202637 19.81299316 44.54663086 20.3605957 C52.18614206 26.66526918 57.73556099 33.6350325 63 42 C63.804375 43.2684375 63.804375 43.2684375 64.625 44.5625 C65.07875 45.366875 65.5325 46.17125 66 47 C66.639375 48.11375 67.27875 49.2275 67.9375 50.375 C70.4722094 55.46384186 71.70150895 60.92753586 73.0703125 66.4140625 C73.91366569 69.90518785 73.91366569 69.90518785 75.03271484 72.82348633 C80.8771442 92.01628552 75.36251929 116.08533659 67.0625 133.625 C66.07361837 135.43449807 65.0528318 137.22694745 64 139 C63.41992188 139.98613281 62.83984375 140.97226563 62.2421875 141.98828125 C59.24581727 146.88494689 56.3057608 151.14747718 52 155 C51.13375 155.9075 50.2675 156.815 49.375 157.75 C47 160 47 160 44 161 C43.70609375 161.61230469 43.4121875 162.22460938 43.109375 162.85546875 C41.65498931 165.66693967 39.90773434 166.62524138 37.25 168.3125 C29.0190161 173.92614945 25.85000933 178.99818996 22.296875 188.26171875 C20.5034847 192.04836513 18.30547415 193.52089438 15 196 C14.04452419 198.67108098 14.04452419 198.67108098 14 201 C14.99 201.33 15.98 201.66 17 202 C16.67 203.65 16.34 205.3 16 207 C15.34 207 14.68 207 14 207 C14.02320313 207.68707031 14.04640625 208.37414062 14.0703125 209.08203125 C14.08835937 209.98308594 14.10640625 210.88414062 14.125 211.8125 C14.14820313 212.70582031 14.17140625 213.59914063 14.1953125 214.51953125 C14 217 14 217 12 220 C8.875 220.6875 8.875 220.6875 6 221 C5.98582031 221.59167969 5.97164063 222.18335938 5.95703125 222.79296875 C5.68503881 227.29922192 5.47802285 229.42637258 2.5 233 C1.2625 233.99 1.2625 233.99 0 235 C-0.33 235.33 -0.66 235.66 -1 236 C-5.46788117 236.29153598 -9.94155651 236.31412107 -14.41772461 236.35009766 C-15.92211435 236.36660274 -17.42642743 236.39382105 -18.93041992 236.43212891 C-21.10376499 236.48719879 -23.27526774 236.50881918 -25.44921875 236.5234375 C-26.75205811 236.54325684 -28.05489746 236.56307617 -29.3972168 236.58349609 C-34.12544472 235.81772631 -35.69677426 234.41076531 -39 231 C-39.5859375 228.10546875 -39.5859375 228.10546875 -39.375 225.1875 C-39.32085937 224.21167969 -39.26671875 223.23585938 -39.2109375 222.23046875 C-39.14132813 221.49441406 -39.07171875 220.75835937 -39 220 C-41.31 220 -43.62 220 -46 220 C-47.78409802 216.93753253 -48.22880021 214.77920727 -48.125 211.25 C-48.10695312 210.45078125 -48.08890625 209.6515625 -48.0703125 208.828125 C-48.04710937 208.22484375 -48.02390625 207.6215625 -48 207 C-48.99 206.67 -49.98 206.34 -51 206 C-50.67 204.35 -50.34 202.7 -50 201 C-49.34 201 -48.68 201 -48 201 C-48.12056596 198.63460948 -48.12056596 198.63460948 -49 196 C-49.763125 195.401875 -50.52625 194.80375 -51.3125 194.1875 C-54.88094102 191.28295498 -56.13260445 188.12166188 -58 184 C-58.74565435 182.53943994 -59.49551731 181.08101922 -60.25 179.625 C-62 176.24615385 -62 176.24615385 -62 174 C-62.556875 173.7525 -63.11375 173.505 -63.6875 173.25 C-66.41367764 171.77639047 -68.59564895 169.95702992 -71 168 C-72.7085789 166.79810312 -74.42632746 165.61236797 -76.15625 164.44140625 C-78.65390306 162.48879189 -80.78857075 160.27075224 -83 158 C-83.88558594 157.10023438 -84.77117187 156.20046875 -85.68359375 155.2734375 C-91.70371036 148.93737151 -96.19091508 142.94076335 -100 135 C-100.36480469 134.360625 -100.72960937 133.72125 -101.10546875 133.0625 C-104.17333632 127.60851321 -105.55333735 121.70761492 -107.0703125 115.68359375 C-107.92425453 112.06222756 -107.92425453 112.06222756 -109.1015625 108.87890625 C-110.44150727 103.09384034 -110.28821632 97.41715946 -110.25 91.5 C-110.25773437 90.30246094 -110.26546875 89.10492188 -110.2734375 87.87109375 C-110.26015719 81.87503359 -110.09205275 76.64522172 -108 71 C-107.34 71 -106.68 71 -106 71 C-106 74.63 -106 78.26 -106 82 C-105.67 82 -105.34 82 -105 82 C-104.8040625 80.89785156 -104.608125 79.79570312 -104.40625 78.66015625 C-101.32874954 62.5961037 -95.49608783 48.69526814 -85 36 C-84.31292969 35.15050781 -83.62585938 34.30101562 -82.91796875 33.42578125 C-69.17911509 17.26096784 -49.87476323 6.98355385 -29 4 C-4.11295731 2.04616371 18.70391287 6.94349744 38.4609375 23 C40.34026572 24.63534526 42.18741423 26.29128734 44 28 C40.64674376 28 39.46136861 27.3303356 36.5625 25.75 C18.46755701 16.4658214 -4.22390288 13.59271077 -24 19 C-25.61455078 19.43699219 -25.61455078 19.43699219 -27.26171875 19.8828125 C-33.51870155 21.69498312 -39.37379659 23.70527777 -45 27 C-45.82757813 27.48082031 -46.65515625 27.96164063 -47.5078125 28.45703125 C-63.03271329 37.90024013 -73.1657408 49.28877256 -82 65 C-82.36867188 65.64195312 -82.73734375 66.28390625 -83.1171875 66.9453125 C-92.91312507 85.09437513 -93.61196136 108.96659415 -88.9921875 128.765625 C-87.72130571 132.9084995 -86.06497496 136.73560016 -84.140625 140.61328125 C-82.6714026 143.68757881 -81.80725993 146.69757303 -81 150 C-92.98066579 141.91305059 -100.26910951 123.65445246 -103 110 C-103.99 110.495 -103.99 110.495 -105 111 C-102.44873228 125.03197245 -95.79184251 137.84263932 -87 149 C-86.19949219 150.06347656 -86.19949219 150.06347656 -85.3828125 151.1484375 C-80.4676644 157.19953094 -74.48318432 161.64280986 -68.16650391 166.13208008 C-61.57831353 170.92574287 -56.48690083 176.38893926 -53.875 184.25 C-52.48892921 187.99411653 -51.29655046 190.55417224 -48 193 C-47.01 193.33 -46.02 193.66 -45 194 C-45 196.64 -45 199.28 -45 202 C-45.99 202.33 -46.98 202.66 -48 203 C-48 203.66 -48 204.32 -48 205 C-47.01 205.33 -46.02 205.66 -45 206 C-45 209.96 -45 213.92 -45 218 C-42.36 218 -39.72 218 -37 218 C-36.97421875 218.74765625 -36.9484375 219.4953125 -36.921875 220.265625 C-36.83679688 221.74289062 -36.83679688 221.74289062 -36.75 223.25 C-36.70359375 224.22453125 -36.6571875 225.1990625 -36.609375 226.203125 C-35.83846635 229.74139805 -34.84567178 230.78514789 -32 233 C-28.78338961 233.61488546 -28.78338961 233.61488546 -25.1875 233.53125 C-24.53676514 233.5350769 -23.88603027 233.53890381 -23.21557617 233.54284668 C-21.84389696 233.54556076 -20.47216556 233.53823453 -19.10058594 233.52148438 C-17.00598315 233.50006119 -14.91480916 233.52129637 -12.8203125 233.546875 C-11.48436746 233.54423163 -10.14842455 233.53910643 -8.8125 233.53125 C-6.99685547 233.52448242 -6.99685547 233.52448242 -5.14453125 233.51757812 C-1.42233182 232.90491797 -0.24295829 231.97928985 2 229 C2.69157955 226.19821626 2.69157955 226.19821626 2.75 223.25 C2.83507812 221.77273438 2.83507812 221.77273438 2.921875 220.265625 C2.94765625 219.51796875 2.9734375 218.7703125 3 218 C5.64 218 8.28 218 11 218 C11 214.04 11 210.08 11 206 C11.99 205.67 12.98 205.34 14 205 C14 204.34 14 203.68 14 203 C13.01 202.67 12.02 202.34 11 202 C11 199.36 11 196.72 11 194 C11.92941406 193.64292969 12.85882813 193.28585937 13.81640625 192.91796875 C17.8286232 190.50079265 18.3870509 188.67166542 19.9375 184.3125 C23.88193996 174.16891222 29.52938077 169.10699014 38.3046875 162.9140625 C55.47383907 150.7214766 65.96181913 132.20575696 71 112 C71.22429687 111.18273437 71.44859375 110.36546875 71.6796875 109.5234375 C76.77003003 87.55826083 72.33087078 63.36849455 60.88183594 44.12011719 C52.15083263 30.35003608 41.03366738 20.13689165 27 12 C26.16984375 11.50757812 25.3396875 11.01515625 24.484375 10.5078125 C16.84132421 6.3223323 8.35955105 4.27899594 0 2 C0 1.34 0 0.68 0 0 Z " fill="#F7CF63" transform="translate(197,64)"/>
<path d="M0 0 C0.99 0 1.98 0 3 0 C3.35191406 1.14855469 3.70382813 2.29710937 4.06640625 3.48046875 C8.37586287 17.18457043 13.67497923 28.88257865 23 40 C23.763125 41.010625 24.52625 42.02125 25.3125 43.0625 C29.7702696 47.93494585 35.03534691 51.88376796 40.40234375 55.71484375 C48.82922117 61.83693418 53.79150547 69.25047516 57.17578125 79.06640625 C57.83279843 81.18616225 57.83279843 81.18616225 60 82 C65.28 82.33 70.56 82.66 76 83 C76 58.91 76 34.82 76 10 C69.73 10 63.46 10 57 10 C57 9.67 57 9.34 57 9 C63.6 9 70.2 9 77 9 C77.495 9.99 77.495 9.99 78 11 C78.66 10.67 79.32 10.34 80 10 C80 33.76 80 57.52 80 82 C85.94 82 91.88 82 98 82 C98 58.24 98 34.48 98 10 C98.33 10 98.66 10 99 10 C99 34.09 99 58.18 99 83 C105.27 83.33 111.54 83.66 118 84 C118.66 84.66 119.32 85.32 120 86 C119.01 86 118.02 86 117 86 C117 88.64 117 91.28 117 94 C118.98 94.495 118.98 94.495 121 95 C120.505 96.485 120.505 96.485 120 98 C119.01 98 118.02 98 117 98 C117 101.96 117 105.92 117 110 C114.36 110 111.72 110 109 110 C109.05800781 110.73605469 109.11601562 111.47210938 109.17578125 112.23046875 C109.22089844 113.20628906 109.26601562 114.18210937 109.3125 115.1875 C109.37050781 116.15042969 109.42851562 117.11335938 109.48828125 118.10546875 C108.80562123 122.15227733 107.1499052 123.43524772 104 126 C100.7578125 126.64697266 100.7578125 126.64697266 97.125 126.6640625 C95.81015625 126.67050781 94.4953125 126.67695313 93.140625 126.68359375 C92.46064453 126.67312012 91.78066406 126.66264648 91.08007812 126.65185547 C89.00465319 126.62506008 86.93463324 126.65162887 84.859375 126.68359375 C83.54453125 126.67714844 82.2296875 126.67070312 80.875 126.6640625 C79.67617187 126.65842285 78.47734375 126.6527832 77.2421875 126.64697266 C73.10096497 125.82059918 71.5975181 124.26342454 69 121 C68.51171875 118.10546875 68.51171875 118.10546875 68.6875 115.1875 C68.73261719 114.21167969 68.77773437 113.23585938 68.82421875 112.23046875 C68.88222656 111.49441406 68.94023437 110.75835937 69 110 C66.36 110 63.72 110 61 110 C61 106.04 61 102.08 61 98 C59.68 97.67 58.36 97.34 57 97 C57.495 95.515 57.495 95.515 58 94 C58.99 94 59.98 94 61 94 C61 91.36 61 88.72 61 86 C59.88625 85.9071875 59.88625 85.9071875 58.75 85.8125 C54.96559423 84.69438011 54.11154669 83.33760607 52 80 C51.35069919 78.40551446 50.72786955 76.80011403 50.125 75.1875 C46.50698061 65.85245761 41.06118615 61.03191823 33.0234375 55.20703125 C16.64338649 43.25001727 4.2343648 25.00180214 0 5 C-0.09375 2.1328125 -0.09375 2.1328125 0 0 Z " fill="#5D1A10" transform="translate(91,172)"/>
<path d="M0 0 C5.94 0 11.88 0 18 0 C18 23.76 18 47.52 18 72 C12.06 72 6.12 72 0 72 C0 48.24 0 24.48 0 0 Z " fill="#F8C331" transform="translate(171,182)"/>
<path d="M0 0 C0 0.66 0 1.32 0 2 C1.16273438 2.1134375 2.32546875 2.226875 3.5234375 2.34375 C25.03659614 5.06717404 43.97063665 20.58394293 57 37 C71.05303364 57.14099045 74.87234916 76.95335986 74 101 C70.86672697 97.59099894 70.59664821 95.05882621 70.4375 90.5 C69.07385625 65.56847557 59.88023259 43.68556103 41.625 26.22265625 C20.95822321 8.72355507 -2.2877223 3.35785178 -29 5 C-50.02810525 7.11646514 -70.70437048 19.42552124 -84.05981445 35.64697266 C-95.28548617 50.01215693 -100.70436488 65.25966628 -104 83 C-104.99 83 -105.98 83 -107 83 C-108.20474863 61.1271193 -101.07965836 46.64199769 -87 30 C-86.21625 28.96875 -85.4325 27.9375 -84.625 26.875 C-77.29221983 18.84385981 -67.85344798 11.62508783 -58 7 C-56.906875 6.360625 -55.81375 5.72125 -54.6875 5.0625 C-48.5376039 1.97572523 -41.65930109 0.83715184 -34.97265625 -0.56835938 C-33.35656395 -0.92197957 -31.75369531 -1.33554357 -30.15625 -1.765625 C-21.73194099 -3.84504305 -7.93516567 -3.96758284 0 0 Z " fill="#541A14" transform="translate(197,64)"/>
<path d="M0 0 C9.60078446 0.4965923 19.29317293 3.12950883 27 9 C28.25114585 9.62557293 29.51140584 10.23305472 30.77734375 10.828125 C35.15536414 12.96493143 38.80226337 15.6741528 42.5625 18.75 C43.21726318 19.28149658 43.87202637 19.81299316 44.54663086 20.3605957 C52.18614206 26.66526918 57.73556099 33.6350325 63 42 C63.804375 43.2684375 63.804375 43.2684375 64.625 44.5625 C65.07875 45.366875 65.5325 46.17125 66 47 C66.639375 48.11375 67.27875 49.2275 67.9375 50.375 C70.4722094 55.46384186 71.70150895 60.92753586 73.0703125 66.4140625 C73.91366569 69.90518785 73.91366569 69.90518785 75.03271484 72.82348633 C80.8771442 92.01628552 75.36251929 116.08533659 67.0625 133.625 C66.07361837 135.43449807 65.0528318 137.22694745 64 139 C63.41992188 139.98613281 62.83984375 140.97226563 62.2421875 141.98828125 C59.24581727 146.88494689 56.3057608 151.14747718 52 155 C51.13375 155.9075 50.2675 156.815 49.375 157.75 C47 160 47 160 44 161 C43.70609375 161.61230469 43.4121875 162.22460938 43.109375 162.85546875 C41.65498931 165.66693967 39.90773434 166.62524138 37.25 168.3125 C29.0190161 173.92614945 25.85000933 178.99818996 22.296875 188.26171875 C20.5034847 192.04836513 18.30547415 193.52089438 15 196 C14.04452419 198.67108098 14.04452419 198.67108098 14 201 C14.99 201.33 15.98 201.66 17 202 C16.67 203.65 16.34 205.3 16 207 C15.34 207 14.68 207 14 207 C14.02320313 207.68707031 14.04640625 208.37414062 14.0703125 209.08203125 C14.08835937 209.98308594 14.10640625 210.88414062 14.125 211.8125 C14.14820313 212.70582031 14.17140625 213.59914063 14.1953125 214.51953125 C14 217 14 217 12 220 C8.875 220.6875 8.875 220.6875 6 221 C5.98582031 221.59167969 5.97164063 222.18335938 5.95703125 222.79296875 C5.68503881 227.29922192 5.47802285 229.42637258 2.5 233 C1.2625 233.99 1.2625 233.99 0 235 C-0.33 235.33 -0.66 235.66 -1 236 C-5.46788117 236.29153598 -9.94155651 236.31412107 -14.41772461 236.35009766 C-15.92211435 236.36660274 -17.42642743 236.39382105 -18.93041992 236.43212891 C-21.10376499 236.48719879 -23.27526774 236.50881918 -25.44921875 236.5234375 C-26.75205811 236.54325684 -28.05489746 236.56307617 -29.3972168 236.58349609 C-34.12544472 235.81772631 -35.69677426 234.41076531 -39 231 C-39.5859375 228.10546875 -39.5859375 228.10546875 -39.375 225.1875 C-39.32085937 224.21167969 -39.26671875 223.23585938 -39.2109375 222.23046875 C-39.14132813 221.49441406 -39.07171875 220.75835937 -39 220 C-41.31 220 -43.62 220 -46 220 C-47.78409802 216.93753253 -48.22880021 214.77920727 -48.125 211.25 C-48.10695312 210.45078125 -48.08890625 209.6515625 -48.0703125 208.828125 C-48.04710937 208.22484375 -48.02390625 207.6215625 -48 207 C-48.99 206.67 -49.98 206.34 -51 206 C-50.67 204.35 -50.34 202.7 -50 201 C-49.34 201 -48.68 201 -48 201 C-48.12056596 198.63460948 -48.12056596 198.63460948 -49 196 C-49.763125 195.401875 -50.52625 194.80375 -51.3125 194.1875 C-54.88094102 191.28295498 -56.13260445 188.12166188 -58 184 C-58.74565435 182.53943994 -59.49551731 181.08101922 -60.25 179.625 C-62 176.24615385 -62 176.24615385 -62 174 C-62.556875 173.7525 -63.11375 173.505 -63.6875 173.25 C-66.41367764 171.77639047 -68.59564895 169.95702992 -71 168 C-72.7085789 166.79810312 -74.42632746 165.61236797 -76.15625 164.44140625 C-78.65390306 162.48879189 -80.78857075 160.27075224 -83 158 C-83.88558594 157.10023438 -84.77117187 156.20046875 -85.68359375 155.2734375 C-91.70371036 148.93737151 -96.19091508 142.94076335 -100 135 C-100.54720703 134.0409375 -100.54720703 134.0409375 -101.10546875 133.0625 C-104.93136501 126.26090664 -108 116.86030826 -108 109 C-107.34 109 -106.68 109 -106 109 C-105.5978125 110.57974609 -105.5978125 110.57974609 -105.1875 112.19140625 C-101.39514381 126.40527671 -95.74526627 138.79786565 -86 150 C-85.51426514 150.59506348 -85.02853027 151.19012695 -84.52807617 151.80322266 C-79.71097835 157.56996707 -74.32901623 161.74049866 -68.22851562 166.06640625 C-61.62786963 170.90252312 -56.49987587 176.34988815 -53.875 184.25 C-52.48892921 187.99411653 -51.29655046 190.55417224 -48 193 C-47.01 193.33 -46.02 193.66 -45 194 C-45 196.64 -45 199.28 -45 202 C-45.99 202.33 -46.98 202.66 -48 203 C-48 203.66 -48 204.32 -48 205 C-47.01 205.33 -46.02 205.66 -45 206 C-45 209.96 -45 213.92 -45 218 C-42.36 218 -39.72 218 -37 218 C-36.97421875 218.74765625 -36.9484375 219.4953125 -36.921875 220.265625 C-36.83679688 221.74289062 -36.83679688 221.74289062 -36.75 223.25 C-36.70359375 224.22453125 -36.6571875 225.1990625 -36.609375 226.203125 C-35.83846635 229.74139805 -34.84567178 230.78514789 -32 233 C-28.78338961 233.61488546 -28.78338961 233.61488546 -25.1875 233.53125 C-24.53676514 233.5350769 -23.88603027 233.53890381 -23.21557617 233.54284668 C-21.84389696 233.54556076 -20.47216556 233.53823453 -19.10058594 233.52148438 C-17.00598315 233.50006119 -14.91480916 233.52129637 -12.8203125 233.546875 C-11.48436746 233.54423163 -10.14842455 233.53910643 -8.8125 233.53125 C-6.99685547 233.52448242 -6.99685547 233.52448242 -5.14453125 233.51757812 C-1.42233182 232.90491797 -0.24295829 231.97928985 2 229 C2.69157955 226.19821626 2.69157955 226.19821626 2.75 223.25 C2.83507812 221.77273438 2.83507812 221.77273438 2.921875 220.265625 C2.94765625 219.51796875 2.9734375 218.7703125 3 218 C5.64 218 8.28 218 11 218 C11 214.04 11 210.08 11 206 C11.99 205.67 12.98 205.34 14 205 C14 204.34 14 203.68 14 203 C13.01 202.67 12.02 202.34 11 202 C11 199.36 11 196.72 11 194 C11.92941406 193.64292969 12.85882813 193.28585937 13.81640625 192.91796875 C17.8286232 190.50079265 18.3870509 188.67166542 19.9375 184.3125 C23.88193996 174.16891222 29.52938077 169.10699014 38.3046875 162.9140625 C55.47383907 150.7214766 65.96181913 132.20575696 71 112 C71.22429687 111.18273437 71.44859375 110.36546875 71.6796875 109.5234375 C76.77003003 87.55826083 72.33087078 63.36849455 60.88183594 44.12011719 C52.15083263 30.35003608 41.03366738 20.13689165 27 12 C26.16984375 11.50757812 25.3396875 11.01515625 24.484375 10.5078125 C16.84132421 6.3223323 8.35955105 4.27899594 0 2 C0 1.34 0 0.68 0 0 Z " fill="#F6F3F3" transform="translate(197,64)"/>
<path d="M0 0 C16.5 0 33 0 50 0 C50 6.6 50 13.2 50 20 C33.5 20 17 20 0 20 C0 13.4 0 6.8 0 0 Z " fill="#646563" transform="translate(155,258)"/>
<path d="M0 0 C2.94540731 3.40185932 4.27032263 7.09376707 5.625 11.3125 C5.8415625 11.95123047 6.058125 12.58996094 6.28125 13.24804688 C12.97363292 33.63502817 10.54717537 58.22080638 1.25 77.3125 C-2.20124302 84.01902151 -6.28046148 90.11049184 -11 96 C-11.48984375 96.64195312 -11.9796875 97.28390625 -12.484375 97.9453125 C-17.21449057 103.8712438 -23.30493029 108.34880231 -29.43359375 112.74609375 C-37.57194464 118.68859955 -41.79323701 125.45149977 -45.04296875 134.93359375 C-46 137 -46 137 -49 139 C-51.76655324 139.14245897 -54.42653306 139.18769445 -57.1875 139.125 C-57.93708984 139.11597656 -58.68667969 139.10695312 -59.45898438 139.09765625 C-61.30612654 139.07412578 -63.15310412 139.03825561 -65 139 C-65 137.35 -65 135.7 -65 134 C-63.87851563 133.96132813 -63.87851563 133.96132813 -62.734375 133.921875 C-56.82645409 133.68213179 -56.82645409 133.68213179 -51.5 131.4375 C-49.88068006 128.80610509 -48.90828938 126.13619467 -47.90625 123.22265625 C-45.37512584 117.01485604 -41.49071088 111.83072852 -36 108 C-32.97304819 105.70068083 -29.9833385 103.35553158 -27 101 C-26.33742187 100.48824219 -25.67484375 99.97648437 -24.9921875 99.44921875 C-8.71806602 86.17296175 0.96459849 65.49120665 4 45 C4.31206126 40.93329146 4.38032461 36.89021029 4.375 32.8125 C4.37556396 31.7191333 4.37612793 30.6257666 4.37670898 29.49926758 C4.25803147 20.72296806 2.87983817 13.26941482 0 5 C-0.69140625 2.67578125 -0.69140625 2.67578125 -1 1 C-0.67 0.67 -0.34 0.34 0 0 Z " fill="#CFA127" transform="translate(258,116)"/>
<path d="M0 0 C3.27459047 1.60857076 5.14391724 2.91044012 7.375 5.75 C8.82399408 10.96637867 8.70053657 14.64896519 6.25 19.375 C3.65293806 22.4049056 1.80307618 23.8137649 -2.19824219 24.22705078 C-2.97329102 24.21657715 -3.74833984 24.20610352 -4.546875 24.1953125 C-5.81337891 24.18564453 -5.81337891 24.18564453 -7.10546875 24.17578125 C-7.97816406 24.15902344 -8.85085937 24.14226562 -9.75 24.125 C-11.08224609 24.11146484 -11.08224609 24.11146484 -12.44140625 24.09765625 C-14.62788058 24.07414577 -16.81380094 24.04128499 -19 24 C-20.03338738 8.05904277 -20.03338738 8.05904277 -16.125 3.5625 C-11.33386878 -0.86987502 -6.28969338 -0.64759889 0 0 Z " fill="#F7BF30" transform="translate(212,154)"/>
<path d="M0 0 C5.81167125 4.95701371 5.81167125 4.95701371 6.44677734 8.71801758 C6.5178085 10.86683595 6.47479615 12.97746363 6.375 15.125 C6.35695312 15.86556641 6.33890625 16.60613281 6.3203125 17.36914062 C6.27347337 19.1841571 6.20173789 20.99850166 6.125 22.8125 C3.08236733 22.92095027 0.04363796 23.00002063 -3 23.0625 C-3.8559375 23.09601563 -4.711875 23.12953125 -5.59375 23.1640625 C-11.37812025 23.25305281 -14.43123304 22.58126438 -18.875 18.8125 C-21.2542967 15.7843042 -21.23775446 12.56480621 -21.125 8.7734375 C-20.61553939 4.77735583 -18.75732546 2.58787692 -15.8125 0 C-10.61619855 -2.1006325 -5.18843612 -2.1430497 0 0 Z " fill="#F7C130" transform="translate(160.875,155.1875)"/>
<path d="M0 0 C0 0.33 0 0.66 0 1 C-0.71430176 1.07516846 -1.42860352 1.15033691 -2.16455078 1.2277832 C-32.40062416 4.45013902 -60.69701761 9.91442761 -81.05981445 34.64697266 C-92.28548617 49.01215693 -97.70436488 64.25966628 -101 82 C-101.99 82 -102.98 82 -104 82 C-104 77.38 -104 72.76 -104 68 C-103.34 68 -102.68 68 -102 68 C-101.835 66.845 -101.67 65.69 -101.5 64.5 C-96.827824 43.524912 -80.48970673 24.55476121 -63 13 C-43.72421522 1.04586761 -22.56519302 -3.60236159 0 0 Z " fill="#511713" transform="translate(194,65)"/>
<path d="M0 0 C16.5 0 33 0 50 0 C50 2.31 50 4.62 50 7 C35.81 7 21.62 7 7 7 C7 11.29 7 15.58 7 20 C4.69 20 2.38 20 0 20 C0 13.4 0 6.8 0 0 Z " fill="#7C7C7A" transform="translate(155,258)"/>
<path d="M0 0 C0.99 0 1.98 0 3 0 C3.35191406 1.14855469 3.70382813 2.29710937 4.06640625 3.48046875 C8.37586287 17.18457043 13.67497923 28.88257865 23 40 C23.763125 41.010625 24.52625 42.02125 25.3125 43.0625 C29.7702696 47.93494585 35.03534691 51.88376796 40.40234375 55.71484375 C48.82922117 61.83693418 53.79150547 69.25047516 57.17578125 79.06640625 C57.83279843 81.18616225 57.83279843 81.18616225 60 82 C62.71262116 82.2322646 65.40773126 82.41936235 68.125 82.5625 C69.25615234 82.62727539 69.25615234 82.62727539 70.41015625 82.69335938 C72.27321888 82.7994832 74.13658524 82.90025001 76 83 C76 83.33 76 83.66 76 84 C71.05 84 66.1 84 61 84 C61 84.66 61 85.32 61 86 C57.80075206 85.73339601 56.30394652 85.28552552 53.9375 83.0625 C52.24653268 80.38968068 51.22198152 78.12181272 50.125 75.1875 C46.50698061 65.85245761 41.06118615 61.03191823 33.0234375 55.20703125 C16.64338649 43.25001727 4.2343648 25.00180214 0 5 C-0.09375 2.1328125 -0.09375 2.1328125 0 0 Z " fill="#521913" transform="translate(91,172)"/>
<path d="M0 0 C10.56 0 21.12 0 32 0 C32 3.63 32 7.26 32 11 C30.11680732 12.88319268 26.88069863 12.13054285 24.375 12.1328125 C23.71290527 12.13376923 23.05081055 12.13472595 22.36865234 12.13571167 C20.96647039 12.13639326 19.5642853 12.13454042 18.16210938 12.13037109 C16.00904287 12.12502246 13.85618498 12.1303167 11.703125 12.13671875 C10.34374954 12.13605796 8.9843742 12.13477679 7.625 12.1328125 C6.37976563 12.13168457 5.13453125 12.13055664 3.8515625 12.12939453 C1 12 1 12 0 11 C0 7.37 0 3.74 0 0 Z " fill="#636562" transform="translate(164,282)"/>
<path d="M0 0 C6.6 0 13.2 0 20 0 C20.33 0.66 20.66 1.32 21 2 C21.66 1.67 22.32 1.34 23 1 C23 24.76 23 48.52 23 73 C28.94 73 34.88 73 41 73 C41 49.24 41 25.48 41 1 C41.33 1 41.66 1 42 1 C42 25.09 42 49.18 42 74 C48.27 74.33 54.54 74.66 61 75 C61.99 75.99 61.99 75.99 63 77 C57.21576004 76.88181469 51.43169417 76.7575706 45.64770508 76.62768555 C43.67964221 76.58434759 41.71154202 76.54267168 39.7434082 76.50268555 C36.9160639 76.44495555 34.08890729 76.38126884 31.26171875 76.31640625 C30.38037766 76.29969376 29.49903656 76.28298126 28.59098816 76.26576233 C27.77036392 76.24581711 26.94973969 76.22587189 26.10424805 76.20532227 C25.38254929 76.18977798 24.66085052 76.1742337 23.9172821 76.15821838 C22 76 22 76 19 75 C19 50.58 19 26.16 19 1 C12.73 1 6.46 1 0 1 C0 0.67 0 0.34 0 0 Z " fill="#7A3B1C" transform="translate(148,181)"/>
<path d="M0 0 C5.56251613 0.60759468 11.18018055 0.42433016 16.76904297 0.40698242 C18.02652344 0.41084961 19.28400391 0.4147168 20.57958984 0.41870117 C21.79066406 0.41741211 23.00173828 0.41612305 24.24951172 0.41479492 C25.34545654 0.41366699 26.44140137 0.41253906 27.57055664 0.41137695 C30.36396351 0.29133271 32.85740678 -0.12408672 35.58154297 -0.71801758 C41.86500754 -1.15896246 41.86500754 -1.15896246 45.01904297 0.78198242 C45.53466797 1.27698242 46.05029297 1.77198242 46.58154297 2.28198242 C43.94154297 2.28198242 41.30154297 2.28198242 38.58154297 2.28198242 C38.63955078 3.01803711 38.69755859 3.7540918 38.75732422 4.51245117 C38.80244141 5.48827148 38.84755859 6.4640918 38.89404297 7.46948242 C38.95205078 8.43241211 39.01005859 9.3953418 39.06982422 10.38745117 C38.3871642 14.43425975 36.73144817 15.71723014 33.58154297 18.28198242 C30.33935547 18.92895508 30.33935547 18.92895508 26.70654297 18.94604492 C25.39169922 18.95249023 24.07685547 18.95893555 22.72216797 18.96557617 C22.0421875 18.95510254 21.36220703 18.94462891 20.66162109 18.93383789 C18.58619616 18.9070425 16.51617621 18.93361129 14.44091797 18.96557617 C12.46865234 18.9559082 12.46865234 18.9559082 10.45654297 18.94604492 C9.25771484 18.94040527 8.05888672 18.93476563 6.82373047 18.92895508 C2.68250794 18.10258161 1.17906107 16.54540696 -1.41845703 13.28198242 C-1.90673828 10.38745117 -1.90673828 10.38745117 -1.73095703 7.46948242 C-1.68583984 6.49366211 -1.64072266 5.5178418 -1.59423828 4.51245117 C-1.53623047 3.77639648 -1.47822266 3.0403418 -1.41845703 2.28198242 C-4.05845703 2.28198242 -6.69845703 2.28198242 -9.41845703 2.28198242 C-6.24799069 -1.02058669 -4.30207658 -0.6319683 0 0 Z M2.58154297 2.28198242 C2.58154297 5.91198242 2.58154297 9.54198242 2.58154297 13.28198242 C4.46473565 15.16517511 7.70084434 14.41252527 10.20654297 14.41479492 C10.8686377 14.41575165 11.53073242 14.41670837 12.21289062 14.41769409 C13.61507258 14.41837569 15.01725767 14.41652284 16.41943359 14.41235352 C18.5725001 14.40700489 20.72535799 14.41229912 22.87841797 14.41870117 C24.23779343 14.41804039 25.59716876 14.41675922 26.95654297 14.41479492 C28.20177734 14.41366699 29.44701172 14.41253906 30.72998047 14.41137695 C33.48059728 14.60770369 33.48059728 14.60770369 34.58154297 13.28198242 C34.58154297 9.65198242 34.58154297 6.02198242 34.58154297 2.28198242 C24.02154297 2.28198242 13.46154297 2.28198242 2.58154297 2.28198242 Z " fill="#591912" transform="translate(161.41845703125,279.718017578125)"/>
<path d="M0 0 C0 24.09 0 48.18 0 73 C14.8164324 73.84518923 14.8164324 73.84518923 19 69 C19.80947284 67.12878709 20.55325604 65.2285459 21.25 63.3125 C23.56664109 57.48193235 26.54189343 53.36817358 31 49 C32.32 49.66 33.64 50.32 35 51 C34.56429687 51.41507813 34.12859375 51.83015625 33.6796875 52.2578125 C28.5400148 57.57548252 25.95635944 63.21000079 23.359375 70.0234375 C22 73 22 73 19 75 C17.0827179 75.20254517 17.0827179 75.20254517 14.89575195 75.13525391 C14.07512772 75.11508209 13.25450348 75.09491028 12.40901184 75.0741272 C11.52767075 75.04193085 10.64632965 75.0097345 9.73828125 74.9765625 C8.83248825 74.95153656 7.92669525 74.92651062 6.99345398 74.90072632 C4.09942164 74.81853209 1.20607231 74.72194031 -1.6875 74.625 C-3.64906061 74.56675985 -5.61064928 74.50945658 -7.57226562 74.453125 C-12.38190349 74.31295407 -17.1909782 74.15986893 -22 74 C-22 73.67 -22 73.34 -22 73 C-15.73 73 -9.46 73 -3 73 C-3 49.24 -3 25.48 -3 1 C-1 0 -1 0 0 0 Z " fill="#4B0C12" transform="translate(193,182)"/>
<path d="M0 0 C4.28722785 2.22462259 6.94269608 5.00325556 9.19140625 9.25 C10.23463582 12.79798847 10.21527207 16.15568217 10.125 19.8125 C10.08375 22.184375 10.0425 24.55625 10 27 C15.94 27 21.88 27 28 27 C28 22.05 28 17.1 28 12 C28.33 12 28.66 12 29 12 C29 17.28 29 22.56 29 28 C25.70827931 28.02688338 22.41677646 28.0467821 19.125 28.0625 C18.18785156 28.07087891 17.25070313 28.07925781 16.28515625 28.08789062 C14.94130859 28.09272461 14.94130859 28.09272461 13.5703125 28.09765625 C12.32918701 28.10551147 12.32918701 28.10551147 11.06298828 28.11352539 C9 28 9 28 7 27 C7 21.72 7 16.44 7 11 C6.34 11 5.68 11 5 11 C4.195625 10.030625 3.39125 9.06125 2.5625 8.0625 C0.29315623 4.80624673 0.29315623 4.80624673 -3 4 C-7.60698012 3.59396107 -11.69535498 3.45639791 -16 5.25 C-19.54629168 8.35300522 -19.93554983 10.18792785 -20.3125 14.9375 C-20.2074614 18.69788192 -19.44051549 21.03651691 -17 24 C-14.1030236 25.75694101 -11.81808776 26.27764509 -8.453125 26.4140625 C-7.60878906 26.45273438 -6.76445312 26.49140625 -5.89453125 26.53125 C-4.58548828 26.57765625 -4.58548828 26.57765625 -3.25 26.625 C-2.36183594 26.66367188 -1.47367188 26.70234375 -0.55859375 26.7421875 C1.6273998 26.83620873 3.81339062 26.92186143 6 27 C6 27.33 6 27.66 6 28 C4.81921875 28.06058594 3.6384375 28.12117188 2.421875 28.18359375 C0.8645723 28.26802582 -0.69271879 28.35267249 -2.25 28.4375 C-3.41595703 28.49647461 -3.41595703 28.49647461 -4.60546875 28.55664062 C-5.35957031 28.59853516 -6.11367187 28.64042969 -6.890625 28.68359375 C-7.58188477 28.72025146 -8.27314453 28.75690918 -8.98535156 28.79467773 C-11.03477485 28.93867694 -11.03477485 28.93867694 -13.06542969 29.62524414 C-15 30 -15 30 -18.0625 28.3125 C-21.85559796 25.32644416 -24.3054462 22.86187658 -25 18 C-25.64174346 12.43822333 -24.46519785 9.37332992 -21.58203125 4.796875 C-15.92104614 -1.63288586 -7.85848147 -1.17377742 0 0 Z " fill="#531715" transform="translate(161,151)"/>
<path d="M0 0 C0 0.66 0 1.32 0 2 C-0.6077124 1.98428955 -1.2154248 1.9685791 -1.84155273 1.95239258 C-32.57075144 1.2664342 -57.83107707 7.85763901 -80.609375 29.4765625 C-91.43034111 40.9318611 -98.3520486 55.07762973 -103 70 C-103.66 70 -104.32 70 -105 70 C-102.62050783 55.28471947 -96.59112318 44.83784865 -87.1171875 33.53125 C-85.57245793 31.68441464 -84.08185534 29.79191492 -82.625 27.875 C-75.29221983 19.84385981 -65.85344798 12.62508783 -56 8 C-54.906875 7.360625 -53.81375 6.72125 -52.6875 6.0625 C-46.5376039 2.97572523 -39.65930109 1.83715184 -32.97265625 0.43164062 C-31.35656395 0.07802043 -29.75369531 -0.33554357 -28.15625 -0.765625 C-18.89885176 -3.050679 -9.32491423 -1.20860755 0 0 Z " fill="#EEE8E7" transform="translate(195,63)"/>
<path d="M0 0 C0.99 0.66 1.98 1.32 3 2 C3.22296203 4.64581609 3.28148752 6.99279502 3.1875 9.625 C3.0946875 13.275625 3.0946875 13.275625 3 17 C9.6 17 16.2 17 23 17 C23 17.66 23 18.32 23 19 C16.73 19.33 10.46 19.66 4 20 C3.67 43.76 3.34 67.52 3 92 C2.67 92 2.34 92 2 92 C1.67 67.91 1.34 43.82 1 19 C-5.6 19 -12.2 19 -19 19 C-17 17 -17 17 -13.0859375 16.8046875 C-11.51549182 16.81613444 -9.94514302 16.84211285 -8.375 16.875 C-4.229375 16.936875 -4.229375 16.936875 0 17 C0 11.39 0 5.78 0 0 Z " fill="#480A13" transform="translate(167,162)"/>
<path d="M0 0 C0.66 0 1.32 0 2 0 C2.268125 1.05316406 2.53625 2.10632813 2.8125 3.19140625 C6.60485619 17.40527671 12.25473373 29.79786565 22 41 C22.48283447 41.59143799 22.96566895 42.18287598 23.46313477 42.79223633 C27.75716578 47.9318839 32.4055954 51.88745304 37.8125 55.8125 C39.3221547 56.91889952 40.82880856 58.02940849 42.33203125 59.14453125 C42.98921143 59.62253174 43.6463916 60.10053223 44.32348633 60.59301758 C46 62 46 62 48 65 C47.01 65.495 47.01 65.495 46 66 C45.43152344 65.55269531 44.86304688 65.10539062 44.27734375 64.64453125 C40.16019404 61.42091987 36.04487702 58.25236688 31.703125 55.3359375 C29.25956998 53.41920398 27.16769523 51.22228903 25 49 C24.11441406 48.10023438 23.22882813 47.20046875 22.31640625 46.2734375 C16.29628964 39.93737151 11.80908492 33.94076335 8 26 C7.63519531 25.360625 7.27039063 24.72125 6.89453125 24.0625 C3.06863499 17.26090664 0 7.86030826 0 0 Z " fill="#F5F2F1" transform="translate(89,173)"/>
<path d="M0 0 C9.9 0 19.8 0 30 0 C30 0.33 30 0.66 30 1 C20.43 1 10.86 1 1 1 C1 3.64 1 6.28 1 9 C1.66 9 2.32 9 3 9 C2.67 8.01 2.34 7.02 2 6 C4.55171972 4.72414014 6.48594411 4.80733799 9.33984375 4.71875 C10.9340918 4.66267578 10.9340918 4.66267578 12.56054688 4.60546875 C13.67494141 4.57066406 14.78933594 4.53585937 15.9375 4.5 C18.13424589 4.43115248 20.33087421 4.35841247 22.52734375 4.28125 C23.50437256 4.25095703 24.48140137 4.22066406 25.48803711 4.18945312 C28.12724944 4.09313063 28.12724944 4.09313063 31 3 C29.125 8.875 29.125 8.875 28 10 C26.14630389 10.08737645 24.28932459 10.10698153 22.43359375 10.09765625 C21.30888672 10.09443359 20.18417969 10.09121094 19.02539062 10.08789062 C17.84138672 10.07951172 16.65738281 10.07113281 15.4375 10.0625 C14.24962891 10.05798828 13.06175781 10.05347656 11.83789062 10.04882812 C8.89187774 10.03699675 5.94596319 10.02051287 3 10 C3 10.66 3 11.32 3 12 C2.01 11.67 1.02 11.34 0 11 C0 7.37 0 3.74 0 0 Z " fill="#656967" transform="translate(164,282)"/>
<path d="M0 0 C0.66 0 1.32 0 2 0 C2 3.63 2 7.26 2 11 C2.66 11.33 3.32 11.66 4 12 C4.22556502 16.10341114 4.42750038 20.20764988 4.625 24.3125 C4.68945312 25.47974609 4.75390625 26.64699219 4.8203125 27.84960938 C4.871875 28.96787109 4.9234375 30.08613281 4.9765625 31.23828125 C5.02893066 32.26993408 5.08129883 33.30158691 5.13525391 34.36450195 C5 37 5 37 3 40 C2.67 39.34 2.34 38.68 2 38 C1.34 38 0.68 38 0 38 C-2.07124761 34.58408692 -2.25723942 31.9105086 -2.265625 27.94921875 C-2.26820312 26.77552734 -2.27078125 25.60183594 -2.2734375 24.39257812 C-2.26570313 23.16990234 -2.25796875 21.94722656 -2.25 20.6875 C-2.25773437 19.47642578 -2.26546875 18.26535156 -2.2734375 17.01757812 C-2.26021198 10.97682294 -2.11645898 5.68588384 0 0 Z " fill="#753D27" transform="translate(89,135)"/>
<path d="M0 0 C6.49039291 -0.54086608 11.72520127 -0.09370249 17 4 C20.18485027 7.563631 21.80373148 10.77877368 22.5625 15.5 C21.59507853 21.51951137 19.66150835 25.58079495 15 29.5625 C11.62791998 31.17828834 11.34565278 30.98561762 8 30 C6.63323368 29.86070644 5.2625433 29.75634699 3.890625 29.68359375 C3.13652344 29.64169922 2.38242188 29.59980469 1.60546875 29.55664062 C0.43951172 29.49766602 0.43951172 29.49766602 -0.75 29.4375 C-1.54277344 29.39431641 -2.33554688 29.35113281 -3.15234375 29.30664062 C-5.10137815 29.20097009 -7.05066748 29.10002034 -9 29 C-9 28.67 -9 28.34 -9 28 C-7.68644531 27.96261719 -6.37289062 27.92523438 -5.01953125 27.88671875 C-3.28382636 27.82104343 -1.54815053 27.75459663 0.1875 27.6875 C1.05181641 27.66494141 1.91613281 27.64238281 2.80664062 27.61914062 C7.64575051 27.41519347 11.06572154 27.12244322 15 24 C17.72912644 20.49112314 17.41149736 16.24630253 17 12 C15.81382648 8.01014361 13.4930208 7.0222752 10 5 C10 4.34 10 3.68 10 3 C6.37 3 2.74 3 -1 3 C-0.67 2.01 -0.34 1.02 0 0 Z " fill="#5F2217" transform="translate(202,150)"/>
<path d="M0 0 C5.56251613 0.60759468 11.18018055 0.42433016 16.76904297 0.40698242 C18.02652344 0.41084961 19.28400391 0.4147168 20.57958984 0.41870117 C21.79066406 0.41741211 23.00173828 0.41612305 24.24951172 0.41479492 C25.34545654 0.41366699 26.44140137 0.41253906 27.57055664 0.41137695 C30.36396351 0.29133271 32.85740678 -0.12408672 35.58154297 -0.71801758 C41.86500754 -1.15896246 41.86500754 -1.15896246 45.01904297 0.78198242 C45.53466797 1.27698242 46.05029297 1.77198242 46.58154297 2.28198242 C43.94154297 2.28198242 41.30154297 2.28198242 38.58154297 2.28198242 C38.63955078 3.04124023 38.69755859 3.80049805 38.75732422 4.58276367 C38.80244141 5.57663086 38.84755859 6.57049805 38.89404297 7.59448242 C38.95205078 8.58061523 39.01005859 9.56674805 39.06982422 10.58276367 C38.90869141 11.47350586 38.74755859 12.36424805 38.58154297 13.28198242 C36.93154297 14.27198242 35.28154297 15.26198242 33.58154297 16.28198242 C33.91154297 11.66198242 34.24154297 7.04198242 34.58154297 2.28198242 C23.03154297 2.28198242 11.48154297 2.28198242 -0.41845703 2.28198242 C-0.41845703 5.91198242 -0.41845703 9.54198242 -0.41845703 13.28198242 C-0.74845703 13.28198242 -1.07845703 13.28198242 -1.41845703 13.28198242 C-1.41845703 9.65198242 -1.41845703 6.02198242 -1.41845703 2.28198242 C-4.05845703 2.28198242 -6.69845703 2.28198242 -9.41845703 2.28198242 C-6.24799069 -1.02058669 -4.30207658 -0.6319683 0 0 Z " fill="#6A3328" transform="translate(161.41845703125,279.718017578125)"/>
<path d="M0 0 C3.1875 -0.375 3.1875 -0.375 7 0 C10.04191641 2.42583207 11.77083674 5.31251021 13 9 C13.07035439 11.57497068 13.0934934 14.11449929 13.0625 16.6875 C13.041875 19.100625 13.02125 21.51375 13 24 C18.94 24 24.88 24 31 24 C31 19.05 31 14.1 31 9 C31.33 9 31.66 9 32 9 C32 14.28 32 19.56 32 25 C28.70827931 25.02688338 25.41677646 25.0467821 22.125 25.0625 C21.18785156 25.07087891 20.25070313 25.07925781 19.28515625 25.08789062 C17.94130859 25.09272461 17.94130859 25.09272461 16.5703125 25.09765625 C15.32918701 25.10551147 15.32918701 25.10551147 14.06298828 25.11352539 C12 25 12 25 10 24 C10 18.72 10 13.44 10 8 C9.34 8 8.68 8 8 8 C6.74772516 6.52295788 5.49833478 5.04172601 4.31640625 3.5078125 C2.88235909 1.73237056 2.88235909 1.73237056 0 0 Z " fill="#73361C" transform="translate(158,154)"/>
<path d="M0 0 C1.125 1.9375 1.125 1.9375 2 4 C3.86644906 5.18330183 3.86644906 5.18330183 6 6 C7.33333333 6.66666667 8.66666667 7.33333333 10 8 C9.75443359 8.99580078 9.75443359 8.99580078 9.50390625 10.01171875 C8.89380424 13.62976557 8.89239791 17.15843226 8.9375 20.8125 C8.958125 23.184375 8.97875 25.55625 9 28 C14.28 28 19.56 28 25 28 C25 23.38 25 18.76 25 14 C25.33 14 25.66 14 26 14 C26 18.95 26 23.9 26 29 C20.06 29 14.12 29 8 29 C7.6875 21.875 7.6875 21.875 7.61206055 19.66748047 C7.27810527 13.67578652 5.51180914 9.75051585 1.625 5.25 C-2.99871397 1.58169631 -9.33070312 1.56356512 -15 1 C-15 0.67 -15 0.34 -15 0 C-4.69465649 -1.48854962 -4.69465649 -1.48854962 0 0 Z " fill="#F9D839" transform="translate(163,149)"/>
<path d="M0 0 C9.47520393 0.49009676 19.48143531 3.01418992 27 9 C28.25598134 9.6344648 29.52739854 10.2393081 30.8125 10.8125 C35.14663303 12.90231649 38.5068943 15.72521341 42 19 C41.01 19.33 40.02 19.66 39 20 C36.94140625 18.77734375 36.94140625 18.77734375 34.5625 16.9375 C23.86071225 9.18101695 12.61360703 5.37757724 0 2 C0 1.34 0 0.68 0 0 Z " fill="#F1EDEA" transform="translate(197,64)"/>
<path d="M0 0 C0.33 0 0.66 0 1 0 C1.06058594 0.98742187 1.12117188 1.97484375 1.18359375 2.9921875 C1.26738281 4.27351562 1.35117187 5.55484375 1.4375 6.875 C1.51871094 8.15117187 1.59992188 9.42734375 1.68359375 10.7421875 C1.79206027 13.88300152 1.79206027 13.88300152 3 16 C3.71998149 24.4957816 1.37981304 31.93625851 -1 40 C-2.578125 38.3671875 -2.578125 38.3671875 -4 36 C-3.671875 33.3203125 -3.671875 33.3203125 -2.75 30.125 C-0.30243257 20.20867531 -0.2500663 10.17120516 0 0 Z " fill="#5F211B" transform="translate(267,147)"/>
<path d="M0 0 C0.99 0.99 1.98 1.98 3 3 C0.31372363 6.56102226 -2.43268563 9.37083154 -5.9375 12.125 C-7.18853516 13.11886719 -7.18853516 13.11886719 -8.46484375 14.1328125 C-10.90026583 15.92654401 -13.38057518 17.49113633 -16 19 C-16.99 18.01 -17.98 17.02 -19 16 C-18.27554688 15.48050781 -17.55109375 14.96101562 -16.8046875 14.42578125 C-7.48679887 8.15580851 -7.48679887 8.15580851 0 0 Z " fill="#531712" transform="translate(244,214)"/>
<path d="M0 0 C6.27 0 12.54 0 19 0 C19 1.65 19 3.3 19 5 C16.39555652 5.05394705 13.79223002 5.09364469 11.1875 5.125 C10.44951172 5.14175781 9.71152344 5.15851563 8.95117188 5.17578125 C5.08753574 5.21074628 3.29096332 5.19397555 0 3 C0 2.01 0 1.02 0 0 Z " fill="#CFA028" transform="translate(148,250)"/>
<path d="M0 0 C0.66 0 1.32 0 2 0 C2 0.66 2 1.32 2 2 C3.216875 2.12375 4.43375 2.2475 5.6875 2.375 C9.06479059 2.78891306 11.89756695 3.54573451 15 5 C15 5.99 15 6.98 15 8 C10.79593331 7.53288148 6.74437898 6.95832775 2.625 6 C-5.12158366 4.36785816 -13.112982 4.32647787 -21 4 C-21 3.67 -21 3.34 -21 3 C-20.09906616 2.91697632 -20.09906616 2.91697632 -19.17993164 2.83227539 C-16.47366869 2.58029218 -13.76810116 2.3214883 -11.0625 2.0625 C-10.11697266 1.97548828 -9.17144531 1.88847656 -8.19726562 1.79882812 C-6.84858398 1.66831055 -6.84858398 1.66831055 -5.47265625 1.53515625 C-4.64000244 1.456604 -3.80734863 1.37805176 -2.94946289 1.29711914 C-0.999388 1.19688602 -0.999388 1.19688602 0 0 Z " fill="#51160E" transform="translate(195,64)"/>
<path d="M0 0 C0.33 0 0.66 0 1 0 C1.103125 1.258125 1.20625 2.51625 1.3125 3.8125 C1.69579812 7.01951349 1.69579812 7.01951349 3.3125 9.75 C3.869375 10.1625 4.42625 10.575 5 11 C5.680625 11.70125 6.36125 12.4025 7.0625 13.125 C9.85689212 15.82925044 11.57154852 16.1400056 15.3515625 16.31640625 C16.20234375 16.35830078 17.053125 16.40019531 17.9296875 16.44335938 C18.81914062 16.48267578 19.70859375 16.52199219 20.625 16.5625 C21.5221875 16.60568359 22.419375 16.64886719 23.34375 16.69335938 C25.56234283 16.79956861 27.7810488 16.90161194 30 17 C30 17.33 30 17.66 30 18 C28.81921875 18.06058594 27.6384375 18.12117188 26.421875 18.18359375 C24.8645723 18.26802582 23.30728121 18.35267249 21.75 18.4375 C20.58404297 18.49647461 20.58404297 18.49647461 19.39453125 18.55664062 C18.64042969 18.59853516 17.88632813 18.64042969 17.109375 18.68359375 C16.41811523 18.72025146 15.72685547 18.75690918 15.01464844 18.79467773 C12.96522515 18.93867694 12.96522515 18.93867694 10.93457031 19.62524414 C9 20 9 20 5.9375 18.3125 C2.14440204 15.32644416 -0.3054462 12.86187658 -1 8 C-1.07905064 5.66800612 -1.08798769 3.33167378 -1 1 C-0.67 0.67 -0.34 0.34 0 0 Z " fill="#5D2114" transform="translate(137,161)"/>
<path d="M0 0 C0.66 0 1.32 0 2 0 C2.268125 1.05316406 2.53625 2.10632813 2.8125 3.19140625 C5.12088275 11.82292554 7.91480709 19.51761362 12.40820312 27.26391602 C15 31.74546114 15 31.74546114 15 35 C5.13906785 25.60661204 1.69487862 13.20662845 0 0 Z " fill="#EBE5E2" transform="translate(89,173)"/>
<path d="M0 0 C0 0.33 0 0.66 0 1 C-3.16597571 1.34011625 -6.3328688 1.67083187 -9.5 2 C-10.386875 2.09539062 -11.27375 2.19078125 -12.1875 2.2890625 C-26.11067708 3.72233073 -26.11067708 3.72233073 -33 2 C-24.46183239 -3.69211174 -9.62930819 -1.56150944 0 0 Z " fill="#4D0E0B" transform="translate(194,65)"/>
<path d="M0 0 C0 0.66 0 1.32 0 2 C-0.92727905 1.98428955 -0.92727905 1.98428955 -1.87329102 1.96826172 C-14.10191042 1.78894646 -25.93264125 1.86485911 -38 4 C-37.67 3.01 -37.34 2.02 -37 1 C-24.16801456 -2.09164416 -13.03169483 -1.8732219 0 0 Z " fill="#E4DBDA" transform="translate(195,63)"/>
<path d="M0 0 C0.66 0 1.32 0 2 0 C1.83628906 1.20527344 1.67257813 2.41054687 1.50390625 3.65234375 C0.80401264 9.95138624 0.89196082 16.23255417 0.9375 22.5625 C0.94201172 23.76197266 0.94652344 24.96144531 0.95117188 26.19726562 C0.96286231 29.13156359 0.97924862 32.06575449 1 35 C0.01 35.495 0.01 35.495 -1 36 C-3.19608717 31.60782566 -2.18499202 25.63534812 -2.1875 20.8125 C-2.19974609 19.59240234 -2.21199219 18.37230469 -2.22460938 17.11523438 C-2.23451674 11.03541385 -2.14420193 5.72069684 0 0 Z " fill="#F6F4F2" transform="translate(89,135)"/>
<path d="M0 0 C0.66 0 1.32 0 2 0 C2.02689216 1.47906892 2.04634621 2.95827483 2.0625 4.4375 C2.07410156 5.26121094 2.08570313 6.08492188 2.09765625 6.93359375 C2 9 2 9 1 10 C-1.07262076 10.08767112 -3.14820294 10.10695873 -5.22265625 10.09765625 C-6.48271484 10.09443359 -7.74277344 10.09121094 -9.04101562 10.08789062 C-10.38151109 10.07953403 -11.72200588 10.07106907 -13.0625 10.0625 C-14.40689942 10.0574866 -15.7513006 10.05292342 -17.09570312 10.04882812 C-20.39717941 10.03699488 -23.69856803 10.02050971 -27 10 C-27 9.34 -27 8.68 -27 8 C-14.625 7.505 -14.625 7.505 -2 7 C-0.61630452 3.5622652 -0.61630452 3.5622652 0 0 Z " fill="#565C5B" transform="translate(194,284)"/>
<path d="M0 0 C0.66 0.33 1.32 0.66 2 1 C1.20335937 1.8353125 1.20335937 1.8353125 0.390625 2.6875 C-4.10409911 7.54311436 -7.35280253 11.93350581 -10 18 C-11 15 -11 15 -11 13 C-11.99 12.67 -12.98 12.34 -14 12 C-12.86476266 8.59428799 -11.41914224 6.63259597 -9 4 C-8.01 4 -7.02 4 -6 4 C-5.34 3.34 -4.68 2.68 -4 2 C-3.34 2 -2.68 2 -2 2 C-1.34 1.34 -0.68 0.68 0 0 Z " fill="#D8AA2C" transform="translate(224,229)"/>
<path d="M0 0 C0.66 0.99 1.32 1.98 2 3 C0.91332031 3.02126953 0.91332031 3.02126953 -0.1953125 3.04296875 C-6.92997719 3.37521221 -10.32462367 4.08486078 -15 9 C-15.66 9.66 -16.32 10.32 -17 11 C-17.66 10.67 -18.32 10.34 -19 10 C-18.24701239 5.77592314 -16.50203223 3.88082688 -13.24609375 1.20703125 C-9.13523348 -1.00210931 -4.50702686 -0.96418982 0 0 Z " fill="#511412" transform="translate(210,151)"/>
<path d="M0 0 C0.33 0 0.66 0 1 0 C1.05850924 3.68743234 1.09376673 7.3747437 1.125 11.0625 C1.14175781 12.10083984 1.15851563 13.13917969 1.17578125 14.20898438 C1.21183286 19.88711284 0.92971166 24.64391054 -1 30 C-2.22596321 26.17499478 -2.19121511 22.35016661 -2.1875 18.375 C-2.18814453 17.66730469 -2.18878906 16.95960938 -2.18945312 16.23046875 C-2.13354414 10.6497356 -1.45425783 5.40152909 0 0 Z " fill="#DDB02B" transform="translate(266,146)"/>
<path d="M0 0 C2.87857425 3.35974355 4.31243591 6.97899706 5.6875 11.125 C5.90881592 11.7857251 6.13013184 12.4464502 6.3581543 13.12719727 C8.06264326 18.52944934 8.59419912 23.38811938 8 29 C7.67 29 7.34 29 7 29 C6.80664062 28.10796875 6.61328125 27.2159375 6.4140625 26.296875 C6.15367187 25.12640625 5.89328125 23.9559375 5.625 22.75 C5.24214844 21.00976562 5.24214844 21.00976562 4.8515625 19.234375 C4.13011734 16.49420713 3.28218538 14.48423417 2 12 C1.41987103 10.09462228 0.87962512 8.17675047 0.375 6.25 C0.11460937 5.26515625 -0.14578125 4.2803125 -0.4140625 3.265625 C-0.60742188 2.51796875 -0.80078125 1.7703125 -1 1 C-0.67 0.67 -0.34 0.34 0 0 Z " fill="#D6A72D" transform="translate(258,116)"/>
<path d="M0 0 C0.33 0 0.66 0 1 0 C1.37800034 8.93200809 1.05754852 16.88490296 -3 25 C-3.66 25 -4.32 25 -5 25 C-4.36069083 21.01975618 -3.71246675 17.04101621 -3.0625 13.0625 C-2.88009766 11.92619141 -2.69769531 10.78988281 -2.50976562 9.61914062 C-2.33251953 8.53955078 -2.15527344 7.45996094 -1.97265625 6.34765625 C-1.81031494 5.34742432 -1.64797363 4.34719238 -1.48071289 3.31665039 C-1 1 -1 1 0 0 Z " fill="#ECE6E6" transform="translate(272,157)"/>
<path d="M0 0 C0 0.33 0 0.66 0 1 C-2.20795422 1.48091058 -4.416381 1.95965179 -6.625 2.4375 C-7.85476562 2.70433594 -9.08453125 2.97117187 -10.3515625 3.24609375 C-13.56017072 3.90911451 -16.76447568 4.48729384 -20 5 C-19.34 4.67 -18.68 4.34 -18 4 C-18 3.01 -18 2.02 -18 1 C-11.29295907 -2.229316 -7.10480445 -2.02370454 0 0 Z " fill="#4F1310" transform="translate(168,68)"/>
<path d="M0 0 C2.16796875 -0.3125 2.16796875 -0.3125 5 0 C7.67578125 2.1875 7.67578125 2.1875 10.3125 5 C11.19550781 5.928125 12.07851562 6.85625 12.98828125 7.8125 C13.65214844 8.534375 14.31601563 9.25625 15 10 C14.67 10.66 14.34 11.32 14 12 C9.70398876 11.51820435 7.66910061 9.00445443 4.75 6 C3.85796875 5.0925 2.9659375 4.185 2.046875 3.25 C0 1 0 1 0 0 Z " fill="#4C120E" transform="translate(236,87)"/>
<path d="M0 0 C0.66 0.33 1.32 0.66 2 1 C1.60167969 1.83402344 1.20335938 2.66804688 0.79296875 3.52734375 C-2.22496753 9.93770475 -4.93220753 16.22223578 -7 23 C-7.66 23 -8.32 23 -9 23 C-6.16399451 5.46154499 -6.16399451 5.46154499 0 0 Z " fill="#EDEAE8" transform="translate(99,110)"/>
<path d="M0 0 C0.99 0 1.98 0 3 0 C3.02716824 2.54173977 3.04691969 5.08318415 3.0625 7.625 C3.07087891 8.33785156 3.07925781 9.05070313 3.08789062 9.78515625 C3.10710296 13.97344438 2.8267327 17.8728462 2 22 C0.33325679 19.08175756 -0.2432008 17.02405621 -0.1953125 13.671875 C-0.18886719 12.87265625 -0.18242188 12.0734375 -0.17578125 11.25 C-0.15902344 10.425 -0.14226562 9.6 -0.125 8.75 C-0.11597656 7.90953125 -0.10695313 7.0690625 -0.09765625 6.203125 C-0.07415817 4.13529396 -0.03828908 2.06761005 0 0 Z " fill="#490B09" transform="translate(89,148)"/>
<path d="M0 0 C0.66 0 1.32 0 2 0 C3.98 3.96 5.96 7.92 8 12 C8.66 12 9.32 12 10 12 C10.99 13.485 10.99 13.485 12 15 C12.66 15.66 13.32 16.32 14 17 C14.71927295 19.31765729 15.3909893 21.65095874 16 24 C7.96938539 18.57933514 2.70607133 9.15370047 0 0 Z " fill="#F8DE71" transform="translate(100,190)"/>
<path d="M0 0 C0.99 0.33 1.98 0.66 3 1 C4.17700048 5.62459244 4.11408412 10.07866462 4.0625 14.8125 C4.05798828 15.60076172 4.05347656 16.38902344 4.04882812 17.20117188 C4.03711312 19.13414761 4.01917998 21.06708393 4 23 C3.34 23.33 2.68 23.66 2 24 C1.34 16.08 0.68 8.16 0 0 Z " fill="#FCFAFB" transform="translate(269,134)"/>
<path d="M0 0 C6.88490225 -0.57374185 11.02667877 0.5246131 17 4 C17 4.99 17 5.98 17 7 C12.25 6.125 12.25 6.125 10 5 C10 4.34 10 3.68 10 3 C6.37 3 2.74 3 -1 3 C-0.67 2.01 -0.34 1.02 0 0 Z " fill="#63281A" transform="translate(202,150)"/>
<path d="M0 0 C5.28 0 10.56 0 16 0 C16 0.99 16 1.98 16 3 C10.72 3 5.44 3 0 3 C0 2.01 0 1.02 0 0 Z " fill="#D1A025" transform="translate(172,250)"/>
<path d="M0 0 C0.33 0 0.66 0 1 0 C1.06058594 0.98742187 1.12117188 1.97484375 1.18359375 2.9921875 C1.26738281 4.27351562 1.35117187 5.55484375 1.4375 6.875 C1.51871094 8.15117187 1.59992188 9.42734375 1.68359375 10.7421875 C1.79206027 13.88300152 1.79206027 13.88300152 3 16 C3.06950541 17.54023996 3.08452357 19.08334988 3.0625 20.625 C3.05347656 21.44226563 3.04445313 22.25953125 3.03515625 23.1015625 C3.02355469 23.72804687 3.01195312 24.35453125 3 25 C1.68 25 0.36 25 -1 25 C-0.67 16.75 -0.34 8.5 0 0 Z " fill="#692C18" transform="translate(267,147)"/>
<path d="M0 0 C0.33 0.66 0.66 1.32 1 2 C-4.77755572 7.92959666 -4.77755572 7.92959666 -7.97119141 8.11352539 C-8.75671387 8.10828857 -9.54223633 8.10305176 -10.3515625 8.09765625 C-11.20234375 8.09443359 -12.053125 8.09121094 -12.9296875 8.08789062 C-13.81914062 8.07951172 -14.70859375 8.07113281 -15.625 8.0625 C-16.97078125 8.05573242 -16.97078125 8.05573242 -18.34375 8.04882812 C-20.56256648 8.03702591 -22.78125018 8.02056155 -25 8 C-25 7.67 -25 7.34 -25 7 C-19.06 6.67 -13.12 6.34 -7 6 C-7 5.01 -7 4.02 -7 3 C-5.68 3.33 -4.36 3.66 -3 4 C-2.67 3.34 -2.34 2.68 -2 2 C-1.34 1.34 -0.68 0.68 0 0 Z " fill="#F8D439" transform="translate(218,170)"/>
<path d="M0 0 C0 0.66 0 1.32 0 2 C-2.43313372 3.03251062 -4.87056892 4.05119521 -7.3125 5.0625 C-8.34793945 5.50432617 -8.34793945 5.50432617 -9.40429688 5.95507812 C-14.66015625 8.11328125 -14.66015625 8.11328125 -18 7 C-15.44754004 3.90691484 -12.7689315 3.01800383 -9 1.8125 C-7.948125 1.46832031 -6.89625 1.12414062 -5.8125 0.76953125 C-3 0 -3 0 0 0 Z " fill="#F9F7F6" transform="translate(157,65)"/>
<path d="M0 0 C5.8845041 3.94291645 10.05708355 8.1154959 14 14 C11 14 11 14 8.08203125 11.375 C6.98449244 10.25750594 5.89492105 9.13214357 4.8125 8 C4.25369141 7.42765625 3.69488281 6.8553125 3.11914062 6.265625 C1.73926907 4.85037212 0.36873266 3.42602845 -1 2 C-0.67 1.34 -0.34 0.68 0 0 Z " fill="#F9F6F4" transform="translate(239,83)"/>
<path d="M0 0 C0.33 0 0.66 0 1 0 C1 7.26 1 14.52 1 22 C3.31 22 5.62 22 8 22 C8 22.33 8 22.66 8 23 C5.36 23 2.72 23 0 23 C0 19.37 0 15.74 0 12 C-1.32 11.67 -2.64 11.34 -4 11 C-3.67 10.01 -3.34 9.02 -3 8 C-2.01 8 -1.02 8 0 8 C0 5.36 0 2.72 0 0 Z " fill="#440C0A" transform="translate(152,258)"/>
<path d="M0 0 C7.20997187 1.75242372 11.76234264 4.79088573 17 10 C16.01 10.33 15.02 10.66 14 11 C11.66015625 9.63671875 11.66015625 9.63671875 9.0625 7.6875 C6.1180719 5.49805346 3.34265435 3.52784897 0 2 C0 1.34 0 0.68 0 0 Z " fill="#EBE6E5" transform="translate(222,73)"/>
<path d="M0 0 C0.66 0 1.32 0 2 0 C2.33 1.32 2.66 2.64 3 4 C-2.25081557 5.14702282 -7.06516538 4.93088566 -12.375 4.5625 C-13.20644531 4.51029297 -14.03789062 4.45808594 -14.89453125 4.40429688 C-16.93008108 4.27561269 -18.96510441 4.13864593 -21 4 C-21 3.67 -21 3.34 -21 3 C-20.09906616 2.91697632 -20.09906616 2.91697632 -19.17993164 2.83227539 C-16.47366869 2.58029218 -13.76810116 2.3214883 -11.0625 2.0625 C-10.11697266 1.97548828 -9.17144531 1.88847656 -8.19726562 1.79882812 C-6.84858398 1.66831055 -6.84858398 1.66831055 -5.47265625 1.53515625 C-4.64000244 1.456604 -3.80734863 1.37805176 -2.94946289 1.29711914 C-0.999388 1.19688602 -0.999388 1.19688602 0 0 Z " fill="#6C3520" transform="translate(195,64)"/>
<path d="M0 0 C0.66 0 1.32 0 2 0 C1.34 5.94 0.68 11.88 0 18 C-0.66 18 -1.32 18 -2 18 C-2.20852314 11.59370576 -2.1583195 6.07027358 0 0 Z " fill="#EAE5E3" transform="translate(89,135)"/>
<path d="M0 0 C0.33 0.66 0.66 1.32 1 2 C0.01 2.495 0.01 2.495 -1 3 C-1.6496875 4.2065625 -1.6496875 4.2065625 -2.3125 5.4375 C-4.27286429 8.41434947 -5.64662411 9.00305041 -9 10 C-9.66 9.34 -10.32 8.68 -11 8 C-7.37 5.36 -3.74 2.72 0 0 Z " fill="#4B110C" transform="translate(133,77)"/>
<path d="M0 0 C2.0625 1.4375 2.0625 1.4375 4 4 C4.15955987 7.09766232 3.81984067 10.00931362 3 13 C2.34 13.66 1.68 14.32 1 15 C0.95101562 14.40832031 0.90203125 13.81664062 0.8515625 13.20703125 C0.43543133 8.80895528 -0.04965595 5.03071103 -2 1 C-1.34 0.67 -0.68 0.34 0 0 Z " fill="#521514" transform="translate(219,156)"/>
<path d="M0 0 C0.99 0 1.98 0 3 0 C2.67 6.93 2.34 13.86 2 21 C1.67 21 1.34 21 1 21 C0.67 14.07 0.34 7.14 0 0 Z " fill="#4E0C10" transform="translate(267,140)"/>
<path d="M0 0 C0.99 0 1.98 0 3 0 C2.67 3.63 2.34 7.26 2 11 C1.01 11 0.02 11 -1 11 C-1.125 3.375 -1.125 3.375 0 0 Z " fill="#4C0F0B" transform="translate(91,136)"/>
<path d="M0 0 C0.66 0.33 1.32 0.66 2 1 C1.01 1.33 0.02 1.66 -1 2 C-1.33 3.65 -1.66 5.3 -2 7 C-2.639375 7.12375 -3.27875 7.2475 -3.9375 7.375 C-4.9584375 7.684375 -4.9584375 7.684375 -6 8 C-6.33 8.66 -6.66 9.32 -7 10 C-7.66 10 -8.32 10 -9 10 C-9.33 9.01 -9.66 8.02 -10 7 C-6.7 4.69 -3.4 2.38 0 0 Z " fill="#F5DC6C" transform="translate(138,78)"/>
<path d="M0 0 C0.33 0.66 0.66 1.32 1 2 C-2.63 3.98 -6.26 5.96 -10 8 C-9.67 6.68 -9.34 5.36 -9 4 C-8.34 4 -7.68 4 -7 4 C-7 3.01 -7 2.02 -7 1 C-4.53721199 -0.231394 -2.7204945 -0.07159196 0 0 Z " fill="#5A1F15" transform="translate(141,75)"/>
<path d="M0 0 C0.33 0.99 0.66 1.98 1 3 C2.99117408 3.69258229 4.9921136 4.35747635 7 5 C8.875 6.625 8.875 6.625 10 8 C8.02 8.99 8.02 8.99 6 10 C4.98808455 9.09650406 3.99081074 8.17659153 3 7.25 C2.1646875 6.48429688 2.1646875 6.48429688 1.3125 5.703125 C0 4 0 4 0 0 Z " fill="#5D2922" transform="translate(112,213)"/>
<path d="M0 0 C0.33 0 0.66 0 1 0 C1.103125 1.258125 1.20625 2.51625 1.3125 3.8125 C1.64858808 6.60499657 1.80025876 7.74433121 3.5625 10 C4.036875 10.33 4.51125 10.66 5 11 C4.01 12.485 4.01 12.485 3 14 C-0.18196685 10.81803315 -0.95547502 8.875658 -1.1875 4.3125 C-1 1 -1 1 0 0 Z " fill="#652618" transform="translate(137,161)"/>
<path d="M0 0 C0.99 0.99 1.98 1.98 3 3 C1.68 4.65 0.36 6.3 -1 8 C-2.32 7.34 -3.64 6.68 -5 6 C-3.35 4.02 -1.7 2.04 0 0 Z " fill="#602821" transform="translate(244,214)"/>
<path d="M0 0 C2.475 0.495 2.475 0.495 5 1 C6.15837626 5.05431692 5.83691257 7.21812119 4 11 C3.67 11 3.34 11 3 11 C2.01 7.37 1.02 3.74 0 0 Z " fill="#5D2119" transform="translate(261,122)"/>
<path d="M0 0 C2.93200474 2.85276137 5.64315404 5.65079784 8 9 C7.67 9.66 7.34 10.32 7 11 C6.34 11 5.68 11 5 11 C3.7109375 9.609375 3.7109375 9.609375 2.375 7.75 C1.92898437 7.14671875 1.48296875 6.5434375 1.0234375 5.921875 C0 4 0 4 0 0 Z " fill="#5D1F15" transform="translate(248,97)"/>
<path d="M0 0 C0.86625 0.4640625 0.86625 0.4640625 1.75 0.9375 C3.91340309 2.09252028 3.91340309 2.09252028 6.125 2.3125 C8 3 8 3 9.25 5.5625 C9.4975 6.366875 9.745 7.17125 10 8 C9.01 8.33 8.02 8.66 7 9 C5.83037314 7.69013727 4.66437056 6.3770374 3.5 5.0625 C2.8503125 4.33160156 2.200625 3.60070312 1.53125 2.84765625 C0 1 0 1 0 0 Z " fill="#F8CB39" transform="translate(134,229)"/>
<path d="M0 0 C5.40489519 1.52012677 8.98492628 5.27385218 13 9 C9.65580848 9 8.93159679 8.52480606 6.3125 6.625 C5.68988281 6.18414062 5.06726563 5.74328125 4.42578125 5.2890625 C3.95527344 4.86367187 3.48476562 4.43828125 3 4 C3 3.34 3 2.68 3 2 C2.01 1.67 1.02 1.34 0 1 C0 0.67 0 0.34 0 0 Z " fill="#F6DF73" transform="translate(228,83)"/>
<path d="M0 0 C1.32 0 2.64 0 4 0 C3.50168276 3.68754757 2.89932357 5.60490662 0 8 C-0.66 7.67 -1.32 7.34 -2 7 C-1.34 6.01 -0.68 5.02 0 4 C0 2.68 0 1.36 0 0 Z " fill="#D8AD29" transform="translate(236,215)"/>
<path d="M0 0 C1.485 0.99 1.485 0.99 3 2 C3.1875 4.625 3.1875 4.625 3 7 C3.66 7.33 4.32 7.66 5 8 C4.01 8.495 4.01 8.495 3 9 C2.01 8.67 1.02 8.34 0 8 C0 5.36 0 2.72 0 0 Z " fill="#E9E5E2" transform="translate(208,258)"/>
<path d="M0 0 C0.66 1.32 1.32 2.64 2 4 C0.35 5.32 -1.3 6.64 -3 8 C-3.75 6.25 -3.75 6.25 -4 4 C-2.0625 1.75 -2.0625 1.75 0 0 Z " fill="#4E120C" transform="translate(249,209)"/>
<path d="M0 0 C0.33 0.66 0.66 1.32 1 2 C0.07421875 3.9453125 0.07421875 3.9453125 -1.3125 6.125 C-1.76238281 6.84945312 -2.21226562 7.57390625 -2.67578125 8.3203125 C-3.11277344 8.87460938 -3.54976563 9.42890625 -4 10 C-4.66 10 -5.32 10 -6 10 C-4.79157144 5.56909529 -3.48331435 3.01887244 0 0 Z " fill="#FCFAF9" transform="translate(264,194)"/>
<path d="M0 0 C-0.33 1.98 -0.66 3.96 -1 6 C-2.9375 5.1875 -2.9375 5.1875 -5 4 C-5.33 3.01 -5.66 2.02 -6 1 C-3 0 -3 0 0 0 Z " fill="#D5A929" transform="translate(264,177)"/>
<path d="M0 0 C0.6875 1.625 0.6875 1.625 1 4 C-0.4375 7.25 -0.4375 7.25 -2 10 C-2.66 10 -3.32 10 -4 10 C-4.25 6.6875 -4.25 6.6875 -4 3 C-2 1.0625 -2 1.0625 0 0 Z " fill="#F7C935" transform="translate(192,153)"/>
<path d="M0 0 C1.32 0.66 2.64 1.32 4 2 C2.35 3.32 0.7 4.64 -1 6 C-1.99 5.01 -2.98 4.02 -4 3 C-2.68 2.01 -1.36 1.02 0 0 Z " fill="#5A1E19" transform="translate(229,227)"/>
<path d="M0 0 C0.66 0 1.32 0 2 0 C0.515 5.445 0.515 5.445 -1 11 C-1.66 11 -2.32 11 -3 11 C-2.69217504 9.35328588 -2.37860766 7.70764424 -2.0625 6.0625 C-1.88847656 5.14597656 -1.71445313 4.22945313 -1.53515625 3.28515625 C-1 1 -1 1 0 0 Z " fill="#E7DEDB" transform="translate(93,122)"/>
<path d="M0 0 C2 3 2 3 1.625 6.1875 C1.41875 7.115625 1.2125 8.04375 1 9 C-0.32 8.67 -1.64 8.34 -3 8 C-1.125 2.25 -1.125 2.25 0 0 Z " fill="#5E2118" transform="translate(217,239)"/>
<path d="M0 0 C0.99 0.33 1.98 0.66 3 1 C0.61042731 4.24299151 -1.2047869 6.50902342 -5 8 C-3.8141763 4.62496331 -2.72426311 2.35277269 0 0 Z " fill="#FFFEFE" transform="translate(247,217)"/>
<path d="M0 0 C2.125 0.9375 2.125 0.9375 4 2 C4 2.99 4 3.98 4 5 C3.01 5 2.02 5 1 5 C-0.6875 3 -0.6875 3 -2 1 C-1.34 0.67 -0.68 0.34 0 0 Z " fill="#49110D" transform="translate(121,221)"/>
<path d="M0 0 C2.125 0.375 2.125 0.375 4 1 C3.67 1.66 3.34 2.32 3 3 C2.34 3 1.68 3 1 3 C0.67 3.66 0.34 4.32 0 5 C-2.0625 5.625 -2.0625 5.625 -4 6 C-2.84826645 3.53199953 -1.95216435 1.95216435 0 0 Z " fill="#F7D035" transform="translate(199,155)"/>
<path d="M0 0 C0.33 0 0.66 0 1 0 C1 2.64 1 5.28 1 8 C2.98 8.495 2.98 8.495 5 9 C4.67 9.99 4.34 10.98 4 12 C2 11 2 11 0 9 C-0.1953125 6.8359375 -0.1953125 6.8359375 -0.125 4.375 C-0.10695312 3.55773437 -0.08890625 2.74046875 -0.0703125 1.8984375 C-0.04710937 1.27195312 -0.02390625 0.64546875 0 0 Z " fill="#471512" transform="translate(207,258)"/>
<path d="M0 0 C2.14368092 3.21552139 3.51169329 6.4410057 5 10 C5.33 10.66 5.66 11.32 6 12 C3.63189682 11.05275873 2.24792047 10.34708866 0.75 8.25 C-0.19251213 5.42246362 -0.1345485 2.96006696 0 0 Z " fill="#F3CF3D" transform="translate(140,164)"/>
<path d="M0 0 C0.66 0 1.32 0 2 0 C2.33 2.31 2.66 4.62 3 7 C0.525 6.01 0.525 6.01 -2 5 C-2 4.34 -2 3.68 -2 3 C-1.34 3 -0.68 3 0 3 C0 2.01 0 1.02 0 0 Z " fill="#612B20" transform="translate(92,130)"/>
<path d="M0 0 C4.95 0.99 4.95 0.99 10 2 C10 2.33 10 2.66 10 3 C7.36 3.33 4.72 3.66 2 4 C2 3.01 2 2.02 2 1 C1.34 0.67 0.68 0.34 0 0 Z " fill="#6C3323" transform="translate(158,66)"/>
<path d="M0 0 C1.485 0.99 1.485 0.99 3 2 C3.3125 5 3.3125 5 3 8 C2.34 8.66 1.68 9.32 1 10 C-1.125 3.375 -1.125 3.375 0 0 Z " fill="#591E19" transform="translate(94,180)"/>
<path d="M0 0 C1.32 0.66 2.64 1.32 4 2 C1.03 4.475 1.03 4.475 -2 7 C-1.34 4.69 -0.68 2.38 0 0 Z " fill="#490B09" transform="translate(224,231)"/>
<path d="M0 0 C1.65 0 3.3 0 5 0 C4.34 1.32 3.68 2.64 3 4 C2.01 4 1.02 4 0 4 C0 2.68 0 1.36 0 0 Z " fill="#DAAD2C" transform="translate(242,210)"/>
<path d="M0 0 C-0.11362262 1.4800841 -0.24122908 2.95910074 -0.375 4.4375 C-0.47941406 5.67306641 -0.47941406 5.67306641 -0.5859375 6.93359375 C-0.72257812 7.61550781 -0.85921875 8.29742187 -1 9 C-1.99 9.495 -1.99 9.495 -3 10 C-3 7.03 -3 4.06 -3 1 C-1 0 -1 0 0 0 Z " fill="#480C0C" transform="translate(269,171)"/>
<path d="M0 0 C3.82097239 0.53069061 6.06171403 1.49701566 9 4 C7.02 4.33 5.04 4.66 3 5 C2.67 4.01 2.34 3.02 2 2 C1.34 1.34 0.68 0.68 0 0 Z " fill="#FAE070" transform="translate(211,74)"/>
</svg>
