<?xml version="1.0" encoding="UTF-8"?>
<svg version="1.1" xmlns="http://www.w3.org/2000/svg" width="626" height="389">
<path d="M0 0 C206.58 0 413.16 0 626 0 C626 128.37 626 256.74 626 389 C419.42 389 212.84 389 0 389 C0 260.63 0 132.26 0 0 Z " fill="#EEEEEE" transform="translate(0,0)"/>
<path d="M0 0 C144.54 0 289.08 0 438 0 C438 128.37 438 256.74 438 389 C355.17 389 272.34 389 187 389 C187.33 387.35 187.66 385.7 188 384 C187.34 384 186.68 384 186 384 C184.22078592 361.26559784 196.04033452 338.6353333 208 320 C208.58523438 319.04996094 209.17046875 318.09992188 209.7734375 317.12109375 C213.79673579 310.63281693 218.19279942 304.44162913 222.66796875 298.26171875 C223.44602149 297.17498642 224.22338258 296.08775852 225 295 C225.73992187 293.96746094 226.47984375 292.93492187 227.2421875 291.87109375 C233.1742335 282.18208529 228.84307745 268.51311151 227 258 C225.35064453 257.43732422 225.35064453 257.43732422 223.66796875 256.86328125 C199.82238051 248.64476103 199.82238051 248.64476103 198 245 C195.97644683 244.51043069 193.95217774 244.02327793 191.921875 243.5625 C189.55670265 242.87025443 188.61138928 241.83112418 187 240 C185.989375 239.525625 184.97875 239.05125 183.9375 238.5625 C180.68833033 236.83421826 180.54796063 236.09592125 179 233 C178.236875 232.855625 177.47375 232.71125 176.6875 232.5625 C172.90291029 231.77037657 171.54324822 229.86115425 169 227 C168.52949219 226.48566406 168.05898438 225.97132813 167.57421875 225.44140625 C164 221.4040493 164 221.4040493 164 218 C163.34 218 162.68 218 162 218 C162 217.01 162 216.02 162 215 C161.525625 214.54625 161.05125 214.0925 160.5625 213.625 C158.55563236 211.53785765 158.51490734 209.79521125 158 207 C157.34 206.67 156.68 206.34 156 206 C156.33 204.68 156.66 203.36 157 202 C155.68 202 154.36 202 153 202 C152.66127487 200.58461283 152.32925376 199.16762037 152 197.75 C151.814375 196.96109375 151.62875 196.1721875 151.4375 195.359375 C151 193 151 193 151 189 C165.64699606 192.06529918 180.66542347 196.11608504 194 203 C194.77601563 203.34804687 195.55203125 203.69609375 196.3515625 204.0546875 C200.30766694 205.85800012 202.32219271 206.98494873 204 211 C204.61875 210.814375 205.2375 210.62875 205.875 210.4375 C208 210 208 210 210 211 C210 211.66 210 212.32 210 213 C211.32 213.33 212.64 213.66 214 214 C214 214.66 214 215.32 214 216 C215.32 216 216.64 216 218 216 C221 221.625 221 221.625 221 225 C221.99 224.67 222.98 224.34 224 224 C223.34 222.68 222.68 221.36 222 220 C222.66 220 223.32 220 224 220 C224 217.69 224 215.38 224 213 C224.66 212.67 225.32 212.34 226 212 C226 209.36 226 206.72 226 204 C226.33 204 226.66 204 227 204 C227.89909223 198.71783313 228.04707258 197.04670429 225.81616211 192.19067383 C220.60397982 180.75091394 216.91094536 168.96834907 213.57421875 156.86328125 C204.04973243 120.26339069 204.04973243 120.26339069 179.46557617 93.25366211 C170.04564686 88.46394659 160.26607651 88.58746437 149.96630859 88.71875 C147.50472706 88.7499401 145.04379122 88.75974149 142.58203125 88.765625 C135.03319913 88.80331206 127.560372 88.95969137 120.04882812 89.79003906 C118 90 118 90 115 90 C113.68504458 87.39704724 112.37295014 84.79271967 111.0625 82.1875 C110.68931641 81.44951172 110.31613281 80.71152344 109.93164062 79.95117188 C109.57392578 79.23896484 109.21621094 78.52675781 108.84765625 77.79296875 C108.51773682 77.1383667 108.18781738 76.48376465 107.84790039 75.80932617 C107 74 107 74 106 71 C105.34 70.67 104.68 70.34 104 70 C101.67510478 67.32284793 100.12775871 65.38327612 99 62 C97.37897032 60.28891311 95.70496537 58.62746694 94 57 C93.175 56.154375 92.35 55.30875 91.5 54.4375 C88.54633818 51.55767972 85.67369935 48.8114906 81.9375 47 C79.45003002 45.71614453 77.83539183 44.09759066 76 42 C76 41.34 76 40.68 76 40 C75.01 40 74.02 40 73 40 C72.34 39.34 71.68 38.68 71 38 C70.154375 37.690625 69.30875 37.38125 68.4375 37.0625 C67.633125 36.711875 66.82875 36.36125 66 36 C65.67 35.01 65.34 34.02 65 33 C63.43811292 32.54878818 61.87189242 32.11006226 60.29296875 31.72265625 C52.80002217 29.36116542 45.74445892 24.98536209 39 21 C39 20.01 39 19.02 39 18 C38.34 18.66 37.68 19.32 37 20 C36.46117187 19.72929687 35.92234375 19.45859375 35.3671875 19.1796875 C33.64727218 18.32256798 31.92266761 17.47483797 30.1953125 16.6328125 C20.90407777 12.0699415 20.90407777 12.0699415 17.4375 9.625 C15.07222659 7.7226499 15.07222659 7.7226499 12 8 C12 7.34 12 6.68 12 6 C10.6696875 5.814375 10.6696875 5.814375 9.3125 5.625 C6.25398258 5.04792124 3.76356898 4.42126405 1 3 C0.67 2.01 0.34 1.02 0 0 Z " fill="#DBDBDB" transform="translate(188,0)"/>
<path d="M0 0 C144.54 0 289.08 0 438 0 C438 31.93911007 438 31.93911007 432 42 C431.03097845 43.95306668 430.0717218 45.91102697 429.125 47.875 C428.42091188 49.25217865 427.71438234 50.62813303 427 52 C426.34 52 425.68 52 425 52 C424.62875 52.804375 424.62875 52.804375 424.25 53.625 C419.45346537 62.7384158 410.26475576 77.36762212 401 82 C401.6935361 85.95379964 402.81050722 89.62193176 404.109375 93.41796875 C404.53162354 94.66263916 404.95387207 95.90730957 405.38891602 97.18969727 C405.6112088 97.84205353 405.83350159 98.49440979 406.06253052 99.16653442 C409.31764643 108.7356533 412.50123487 118.29420756 415.09448242 128.06738281 C417.06290665 135.41411347 419.31148014 142.67359821 421.5625 149.9375 C421.93898682 151.15896729 422.31547363 152.38043457 422.70336914 153.63891602 C424.72363165 160.12954663 426.86422297 166.53840577 429.28100586 172.89282227 C430 175 430 175 430 177 C418.69094606 174.41246411 407.86607852 171.0547481 397 167 C396.32606201 166.75032471 395.65212402 166.50064941 394.95776367 166.2434082 C374.67376894 158.69548006 356.92853306 149.76721066 345 131 C344.50371094 130.22785156 344.00742187 129.45570313 343.49609375 128.66015625 C334.83665934 112.71128749 333.14756553 82.13654639 338 65 C338.21192095 63.41974995 338.39923371 61.83601539 338.5625 60.25 C338.64628906 59.45078125 338.73007812 58.6515625 338.81640625 57.828125 C338.87699219 57.22484375 338.93757813 56.6215625 339 56 C338.34 56.33 337.68 56.66 337 57 C337.061875 58.423125 337.061875 58.423125 337.125 59.875 C337 63 337 63 335 65 C334.51162567 66.778473 334.08119088 68.57320002 333.6875 70.375 C332.42851427 75.2959087 331.20342602 77.05760178 327 80 C326.525625 81.11375 326.05125 82.2275 325.5625 83.375 C323.67465145 87.75480863 321.41731589 89.73456482 318 93 C318 93.66 318 94.32 318 95 C316.35 94.67 314.7 94.34 313 94 C313 94.99 313 95.98 313 97 C312.34 97.33 311.68 97.66 311 98 C310.65657551 99.33076989 310.32380126 100.66431979 310 102 C307 105 307 105 304.875 105.625 C300.76427923 107.59099689 298.07129753 110.68972542 295 114 C295.33 114.99 295.66 115.98 296 117 C295.29875 117.165 294.5975 117.33 293.875 117.5 C290.85028579 119.07811176 290.11779913 120.01612641 288.25 122.75 C284.96854173 127.45743228 280.89780145 130.12662315 276 133 C276.43570312 133.90878906 276.87140625 134.81757813 277.3203125 135.75390625 C282.6959934 147.05954023 287.87933763 158.44696888 291.24365234 170.53540039 C291.97428926 172.91622018 292.85592877 175.14223459 293.828125 177.43359375 C296.38273434 183.73973952 298.2432523 190.21754504 300.125 196.75 C300.81423462 199.12004471 301.50430994 201.48984514 302.1953125 203.859375 C302.49453613 204.89545898 302.79375977 205.93154297 303.10205078 206.99902344 C304.00662413 210.02213808 304.99893379 213.00769946 306 216 C306.433125 217.5778125 306.433125 217.5778125 306.875 219.1875 C307.81455142 222.37153538 308.88771304 225.39974993 310.0625 228.5 C311.62923822 232.72262159 312.60197218 236.52218701 313 241 C314.65 241.33 316.3 241.66 318 242 C318 243.32 318 244.64 318 246 C313.82764098 246.24543288 310.93166481 245.36163447 307 244 C305.31331605 243.45450156 303.62572116 242.91181609 301.9375 242.37109375 C291.35825649 238.94257717 280.88483889 235.33236086 270.5625 231.1875 C269.61568359 230.81488037 268.66886719 230.44226074 267.69335938 230.05834961 C266.82646484 229.70264893 265.95957031 229.34694824 265.06640625 228.98046875 C264.30271729 228.67004639 263.53902832 228.35962402 262.75219727 228.03979492 C261 227 261 227 260 224 C259.95133643 221.99668303 259.96302539 219.99168864 260.0078125 217.98828125 C260.24404227 202.61408288 259.66829072 187.83220984 257.36376953 172.59179688 C256.77653859 168.40787492 256.3808598 164.20705338 256 160 C255.34 160 254.68 160 254 160 C254 158.35 254 156.7 254 155 C253.34 155 252.68 155 252 155 C252.103125 155.886875 252.20625 156.77375 252.3125 157.6875 C251.9028681 162.02959813 250.20178903 163.18867305 247 166 C246.67 166.66 246.34 167.32 246 168 C245.34 168 244.68 168 244 168 C243.74863281 168.52335938 243.49726563 169.04671875 243.23828125 169.5859375 C241.66082342 172.66123384 239.92122009 175.63635822 238.1875 178.625 C234.90679082 184.31544685 231.83989555 190.0744487 229 196 C220.7045374 189.15708608 218.15468699 172.28304567 215.30331421 162.25286865 C205.37876836 122.6950843 205.37876836 122.6950843 179.46557617 93.25366211 C170.04564686 88.46394659 160.26607651 88.58746437 149.96630859 88.71875 C147.50472706 88.7499401 145.04379122 88.75974149 142.58203125 88.765625 C135.03319913 88.80331206 127.560372 88.95969137 120.04882812 89.79003906 C118 90 118 90 115 90 C113.68504458 87.39704724 112.37295014 84.79271967 111.0625 82.1875 C110.68931641 81.44951172 110.31613281 80.71152344 109.93164062 79.95117188 C109.57392578 79.23896484 109.21621094 78.52675781 108.84765625 77.79296875 C108.51773682 77.1383667 108.18781738 76.48376465 107.84790039 75.80932617 C107 74 107 74 106 71 C105.34 70.67 104.68 70.34 104 70 C101.67510478 67.32284793 100.12775871 65.38327612 99 62 C97.37897032 60.28891311 95.70496537 58.62746694 94 57 C93.175 56.154375 92.35 55.30875 91.5 54.4375 C88.54633818 51.55767972 85.67369935 48.8114906 81.9375 47 C79.45003002 45.71614453 77.83539183 44.09759066 76 42 C76 41.34 76 40.68 76 40 C75.01 40 74.02 40 73 40 C72.34 39.34 71.68 38.68 71 38 C70.154375 37.690625 69.30875 37.38125 68.4375 37.0625 C67.633125 36.711875 66.82875 36.36125 66 36 C65.67 35.01 65.34 34.02 65 33 C63.43811292 32.54878818 61.87189242 32.11006226 60.29296875 31.72265625 C52.80002217 29.36116542 45.74445892 24.98536209 39 21 C39 20.01 39 19.02 39 18 C38.34 18.66 37.68 19.32 37 20 C36.46117187 19.72929687 35.92234375 19.45859375 35.3671875 19.1796875 C33.64727218 18.32256798 31.92266761 17.47483797 30.1953125 16.6328125 C20.90407777 12.0699415 20.90407777 12.0699415 17.4375 9.625 C15.07222659 7.7226499 15.07222659 7.7226499 12 8 C12 7.34 12 6.68 12 6 C10.6696875 5.814375 10.6696875 5.814375 9.3125 5.625 C6.25398258 5.04792124 3.76356898 4.42126405 1 3 C0.67 2.01 0.34 1.02 0 0 Z M312 98 C312.66 98.66 313.32 99.32 314 100 C313.01 99.67 312.02 99.34 311 99 C311.33 98.67 311.66 98.34 312 98 Z " fill="#DEDEDE" transform="translate(188,0)"/>
<path d="M0 0 C4.59120691 0.63085286 8.70371254 1.80982061 13.0625 3.375 C14.24972656 3.79523438 15.43695313 4.21546875 16.66015625 4.6484375 C20.66603609 6.2695304 23.93692683 7.93692683 27 11 C27 10.34 27 9.68 27 9 C43.65539225 13.20388506 61.15867456 21.18114546 73.9765625 32.59375 C74.64429688 33.0578125 75.31203125 33.521875 76 34 C76.99 33.67 77.98 33.34 79 33 C79.69172705 31.34357738 80.35155515 29.67384034 81 28 C82.58748511 25.39049472 84.32738918 22.88808838 86.0625 20.375 C86.97324618 19.05167175 87.88093001 17.72622934 88.78515625 16.3984375 C89.18613525 15.81755371 89.58711426 15.23666992 90.00024414 14.63818359 C91.17340867 12.85356044 91.17340867 12.85356044 92 10 C94.0625 8.3125 94.0625 8.3125 96 7 C96.6290625 7.90621094 97.258125 8.81242187 97.90625 9.74609375 C106.51490288 22.05529877 114.64302735 30.95022944 127.41235352 38.96801758 C129 40 129 40 131.13671875 41.66015625 C133.34424842 43.24754132 135.51802465 44.1145582 138.0625 45.0625 C141.066607 46.18734608 143.30455704 47.20303802 146 49 C146.30883789 51.08105469 146.30883789 51.08105469 146.22265625 53.671875 C146.20267578 54.63585205 146.18269531 55.5998291 146.16210938 56.59301758 C146.11280273 58.15572388 146.11280273 58.15572388 146.0625 59.75 C145.89953689 69.07472109 146.26358701 78.15806094 147.28930664 87.42675781 C147.96021458 93.64060039 148.10725938 99.75139626 148 106 C140.05875714 106.31585596 132.86893327 105.47309061 125.125 103.75 C124.07650879 103.52473633 123.02801758 103.29947266 121.94775391 103.06738281 C115.37409625 101.62286917 108.95793714 99.97442109 102.5859375 97.796875 C99.47601679 96.77558842 99.47601679 96.77558842 94 96 C94.33 107.55 94.66 119.1 95 131 C50.12 131 5.24 131 -41 131 C-40.67 129.35 -40.34 127.7 -40 126 C-40.66 126 -41.32 126 -42 126 C-43.77921408 103.26559784 -31.95966548 80.6353333 -20 62 C-19.41476562 61.04996094 -18.82953125 60.09992188 -18.2265625 59.12109375 C-14.20326421 52.63281693 -9.80720058 46.44162913 -5.33203125 40.26171875 C-4.55446542 39.17463798 -3.77711612 38.0874023 -3 37 C-2.25878906 35.97390625 -1.51757812 34.9478125 -0.75390625 33.890625 C3.90248512 26.21639424 1.80346496 16.82595652 0.47265625 8.3828125 C0.07279984 5.52103025 -0.09309519 2.88047464 0 0 Z " fill="#D5D5D5" transform="translate(416,258)"/>
<path d="M0 0 C35.64 0 71.28 0 108 0 C109.32 3.63 110.64 7.26 112 11 C122.159346 31.01542794 140.77891583 42.54184633 159.5 53.5625 C160.49016113 54.14620361 161.48032227 54.72990723 162.50048828 55.33129883 C168.49438627 58.78149166 174.49965197 61.63534711 181 64 C181 64.66 181 65.32 181 66 C182.72476563 66.36351563 182.72476563 66.36351563 184.484375 66.734375 C189.15537869 67.90520706 193.06503045 69.91373059 197.25 72.25 C198.74939299 73.06622024 200.24939595 73.88132092 201.75 74.6953125 C202.47574219 75.09137695 203.20148438 75.48744141 203.94921875 75.89550781 C206.68540819 77.36914127 209.46163786 78.7530665 212.25 80.125 C225.90970593 86.91742911 238.07188436 94.51307941 250 104 C250.88816406 104.67804688 251.77632812 105.35609375 252.69140625 106.0546875 C261.32808361 112.80547008 268.21468677 120.69319177 274 130 C275.98 129.67 277.96 129.34 280 129 C278.68 130.65 277.36 132.3 276 134 C276.43570312 134.83660156 276.87140625 135.67320312 277.3203125 136.53515625 C282.93758966 147.51437979 287.92806344 158.62311149 291.24365234 170.53515625 C291.97425283 172.91609314 292.85588992 175.14214305 293.828125 177.43359375 C296.38273434 183.73973952 298.2432523 190.21754504 300.125 196.75 C300.81423462 199.12004471 301.50430994 201.48984514 302.1953125 203.859375 C302.49453613 204.89545898 302.79375977 205.93154297 303.10205078 206.99902344 C304.00662413 210.02213808 304.99893379 213.00769946 306 216 C306.433125 217.5778125 306.433125 217.5778125 306.875 219.1875 C307.81455142 222.37153538 308.88771304 225.39974993 310.0625 228.5 C311.62923822 232.72262159 312.60197218 236.52218701 313 241 C314.65 241.33 316.3 241.66 318 242 C318 243.32 318 244.64 318 246 C313.82764098 246.24543288 310.93166481 245.36163447 307 244 C305.31331605 243.45450156 303.62572116 242.91181609 301.9375 242.37109375 C291.35825649 238.94257717 280.88483889 235.33236086 270.5625 231.1875 C269.61568359 230.81488037 268.66886719 230.44226074 267.69335938 230.05834961 C266.82646484 229.70264893 265.95957031 229.34694824 265.06640625 228.98046875 C264.30271729 228.67004639 263.53902832 228.35962402 262.75219727 228.03979492 C261 227 261 227 260 224 C259.95133643 221.99668303 259.96302539 219.99168864 260.0078125 217.98828125 C260.24404227 202.61408288 259.66829072 187.83220984 257.36376953 172.59179688 C256.77653859 168.40787492 256.3808598 164.20705338 256 160 C255.34 160 254.68 160 254 160 C254 158.35 254 156.7 254 155 C253.34 155 252.68 155 252 155 C252.103125 155.886875 252.20625 156.77375 252.3125 157.6875 C251.9028681 162.02959813 250.20178903 163.18867305 247 166 C246.67 166.66 246.34 167.32 246 168 C245.34 168 244.68 168 244 168 C243.74863281 168.52335938 243.49726563 169.04671875 243.23828125 169.5859375 C241.66082342 172.66123384 239.92122009 175.63635822 238.1875 178.625 C234.90679082 184.31544685 231.83989555 190.0744487 229 196 C220.7045374 189.15708608 218.15468699 172.28304567 215.30331421 162.25286865 C205.37876836 122.6950843 205.37876836 122.6950843 179.46557617 93.25366211 C170.04564686 88.46394659 160.26607651 88.58746437 149.96630859 88.71875 C147.50472706 88.7499401 145.04379122 88.75974149 142.58203125 88.765625 C135.03319913 88.80331206 127.560372 88.95969137 120.04882812 89.79003906 C118 90 118 90 115 90 C113.68504458 87.39704724 112.37295014 84.79271967 111.0625 82.1875 C110.68931641 81.44951172 110.31613281 80.71152344 109.93164062 79.95117188 C109.57392578 79.23896484 109.21621094 78.52675781 108.84765625 77.79296875 C108.51773682 77.1383667 108.18781738 76.48376465 107.84790039 75.80932617 C107 74 107 74 106 71 C105.34 70.67 104.68 70.34 104 70 C101.67510478 67.32284793 100.12775871 65.38327612 99 62 C97.37897032 60.28891311 95.70496537 58.62746694 94 57 C93.175 56.154375 92.35 55.30875 91.5 54.4375 C88.54633818 51.55767972 85.67369935 48.8114906 81.9375 47 C79.45003002 45.71614453 77.83539183 44.09759066 76 42 C76 41.34 76 40.68 76 40 C75.01 40 74.02 40 73 40 C72.34 39.34 71.68 38.68 71 38 C70.154375 37.690625 69.30875 37.38125 68.4375 37.0625 C67.633125 36.711875 66.82875 36.36125 66 36 C65.67 35.01 65.34 34.02 65 33 C63.43811292 32.54878818 61.87189242 32.11006226 60.29296875 31.72265625 C52.80002217 29.36116542 45.74445892 24.98536209 39 21 C39 20.01 39 19.02 39 18 C38.34 18.66 37.68 19.32 37 20 C36.46117187 19.72929687 35.92234375 19.45859375 35.3671875 19.1796875 C33.64727218 18.32256798 31.92266761 17.47483797 30.1953125 16.6328125 C20.90407777 12.0699415 20.90407777 12.0699415 17.4375 9.625 C15.07222659 7.7226499 15.07222659 7.7226499 12 8 C12 7.34 12 6.68 12 6 C10.6696875 5.814375 10.6696875 5.814375 9.3125 5.625 C6.25398258 5.04792124 3.76356898 4.42126405 1 3 C0.67 2.01 0.34 1.02 0 0 Z " fill="#CCCCCC" transform="translate(188,0)"/>
<path d="M0 0 C17.82 0 35.64 0 54 0 C54.87082562 30.47889662 54.87082562 30.47889662 48 42 C47.03097845 43.95306668 46.0717218 45.91102697 45.125 47.875 C44.42091188 49.25217865 43.71438234 50.62813303 43 52 C42.34 52 41.68 52 41 52 C40.62875 52.804375 40.62875 52.804375 40.25 53.625 C35.45346537 62.7384158 26.26475576 77.36762212 17 82 C17.6935361 85.95379964 18.81050722 89.62193176 20.109375 93.41796875 C20.53162354 94.66263916 20.95387207 95.90730957 21.38891602 97.18969727 C21.6112088 97.84205353 21.83350159 98.49440979 22.06253052 99.16653442 C25.31764643 108.7356533 28.50123487 118.29420756 31.09448242 128.06738281 C33.06290665 135.41411347 35.31148014 142.67359821 37.5625 149.9375 C37.93898682 151.15896729 38.31547363 152.38043457 38.70336914 153.63891602 C40.72363165 160.12954663 42.86422297 166.53840577 45.28100586 172.89282227 C46 175 46 175 46 177 C34.69094606 174.41246411 23.86607852 171.0547481 13 167 C12.32606201 166.75032471 11.65212402 166.50064941 10.95776367 166.2434082 C-9.32623106 158.69548006 -27.07146694 149.76721066 -39 131 C-39.74443359 129.84177734 -39.74443359 129.84177734 -40.50390625 128.66015625 C-49.16334066 112.71128749 -50.85243447 82.13654639 -46 65 C-45.78807905 63.41974995 -45.60076629 61.83601539 -45.4375 60.25 C-45.35371094 59.45078125 -45.26992188 58.6515625 -45.18359375 57.828125 C-45.09271484 56.92320313 -45.09271484 56.92320313 -45 56 C-45.99 56.495 -45.99 56.495 -47 57 C-46.95875 57.94875 -46.9175 58.8975 -46.875 59.875 C-47 63 -47 63 -49 65 C-49.48837433 66.778473 -49.91880912 68.57320002 -50.3125 70.375 C-51.31256644 74.30825099 -51.74828191 75.74828191 -54.6875 78.6875 C-55.450625 79.120625 -56.21375 79.55375 -57 80 C-58.47016194 76.1025619 -59.92683362 72.20547018 -61.32421875 68.28125 C-67.75677017 50.29559083 -74.98663718 32.00668141 -93 23 C-90.79873361 17.79700672 -87.21363207 13.83699417 -82.75 10.5 C-79.73567397 8.21476889 -79.73567397 8.21476889 -79.125 4.6875 C-79.08375 3.800625 -79.0425 2.91375 -79 2 C-74.31874563 2.64663241 -70.33898257 4.53241318 -66.125 6.5625 C-65.37686035 6.92037598 -64.6287207 7.27825195 -63.85791016 7.64697266 C-51.95183225 13.38996354 -40.75024728 19.59519559 -29.8515625 27.09375 C-27.43311577 29.09262516 -27.43311577 29.09262516 -26 29 C-25.66560913 28.17556396 -25.66560913 28.17556396 -25.32446289 27.33447266 C-23.60201468 24.29851877 -21.28857006 22.06024181 -18.80859375 19.6484375 C-18.05063255 18.89827866 -18.05063255 18.89827866 -17.27735901 18.13296509 C-15.66876916 16.54213057 -14.05363181 14.95816916 -12.4375 13.375 C-10.81869762 11.78382224 -9.20138179 10.19120299 -7.58692932 8.59561157 C-6.58359573 7.60452902 -5.57760092 6.61613192 -4.56871033 5.63070679 C-1.94828535 3.07141319 -1.94828535 3.07141319 0 0 Z " fill="#A2A2A2" transform="translate(572,0)"/>
<path d="M0 0 C0.66 0 1.32 0 2 0 C2 1.65 2 3.3 2 5 C2.66 5 3.32 5 4 5 C4.65140456 8.79073089 5.29508257 12.58273657 5.9375 16.375 C6.21110352 17.96634766 6.21110352 17.96634766 6.49023438 19.58984375 C8.53230455 31.69375058 9.13460341 43.372862 9.0625 55.625 C9.05747303 57.12109225 9.05291225 58.61718613 9.04882812 60.11328125 C9.03792185 63.74222219 9.02072382 67.37110027 9 71 C37.58944153 84.62083467 37.58944153 84.62083467 68 91 C67.97679687 91.61488281 67.95359375 92.22976562 67.9296875 92.86328125 C67.91164063 93.67152344 67.89359375 94.47976562 67.875 95.3125 C67.85179687 96.11300781 67.82859375 96.91351563 67.8046875 97.73828125 C67.84182678 100.28388576 67.84182678 100.28388576 70 103 C69.34 103 68.68 103 68 103 C69.32 104.65 70.64 106.3 72 108 C71.34 109.65 70.68 111.3 70 113 C69.34 113 68.68 113 68 113 C67.92523438 113.6909375 67.85046875 114.381875 67.7734375 115.09375 C66.79074043 118.78630868 64.8504956 121.46459302 62.625 124.5 C59.31690114 129.09449242 59.31690114 129.09449242 56.3359375 133.90625 C55.89507812 134.5971875 55.45421875 135.288125 55 136 C54.34 136 53.68 136 53 136 C52.67 136.66 52.34 137.32 52 138 C51.2471875 137.3709375 50.494375 136.741875 49.71875 136.09375 C35.71147947 124.68440339 19.74397617 118.42885999 3 112 C3 112.66 3 113.32 3 114 C0 113 0 113 -1.72265625 111.62109375 C-4.73550849 109.47643907 -7.98742685 108.3092924 -11.4375 107.0625 C-12.49831787 106.67227661 -12.49831787 106.67227661 -13.58056641 106.27416992 C-20.85062887 103.63221844 -28.21615405 101.31293874 -35.67578125 99.265625 C-41.78985352 97.55406511 -47.56304524 95.32807534 -53 92 C-53.33 91.34 -53.66 90.68 -54 90 C-56.02355317 89.51043069 -58.04782226 89.02327793 -60.078125 88.5625 C-62.44329735 87.87025443 -63.38861072 86.83112418 -65 85 C-66.010625 84.525625 -67.02125 84.05125 -68.0625 83.5625 C-71.31166967 81.83421826 -71.45203937 81.09592125 -73 78 C-74.1446875 77.7834375 -74.1446875 77.7834375 -75.3125 77.5625 C-79.09708971 76.77037657 -80.45675178 74.86115425 -83 72 C-83.47050781 71.48566406 -83.94101562 70.97132813 -84.42578125 70.44140625 C-88 66.4040493 -88 66.4040493 -88 63 C-88.66 63 -89.32 63 -90 63 C-90 62.01 -90 61.02 -90 60 C-90.474375 59.54625 -90.94875 59.0925 -91.4375 58.625 C-93.44436764 56.53785765 -93.48509266 54.79521125 -94 52 C-94.66 51.67 -95.32 51.34 -96 51 C-95.67 49.68 -95.34 48.36 -95 47 C-96.32 47 -97.64 47 -99 47 C-99.33872513 45.58461283 -99.67074624 44.16762037 -100 42.75 C-100.185625 41.96109375 -100.37125 41.1721875 -100.5625 40.359375 C-101 38 -101 38 -101 34 C-86.35300394 37.06529918 -71.33457653 41.11608504 -58 48 C-56.83597656 48.52207031 -56.83597656 48.52207031 -55.6484375 49.0546875 C-51.69233306 50.85800012 -49.67780729 51.98494873 -48 56 C-47.38125 55.814375 -46.7625 55.62875 -46.125 55.4375 C-44 55 -44 55 -42 56 C-42 56.66 -42 57.32 -42 58 C-40.68 58.33 -39.36 58.66 -38 59 C-38 59.66 -38 60.32 -38 61 C-36.68 61 -35.36 61 -34 61 C-31 66.625 -31 66.625 -31 70 C-30.01 69.67 -29.02 69.34 -28 69 C-28.66 67.68 -29.32 66.36 -30 65 C-29.34 65 -28.68 65 -28 65 C-28 62.69 -28 60.38 -28 58 C-27.34 57.67 -26.68 57.34 -26 57 C-26 54.36 -26 51.72 -26 49 C-25.67 49 -25.34 49 -25 49 C-24.30428121 45.5194493 -24.30428121 45.5194493 -24 42 C-14.94300555 20.48152122 -14.94300555 20.48152122 -8 13 C-7.34 13 -6.68 13 -6 13 C-5.7525 12.21625 -5.505 11.4325 -5.25 10.625 C-3.84610901 7.67682892 -2.99324263 7.0975223 0 6 C-0.495 4.515 -0.495 4.515 -1 3 C-0.67 2.01 -0.34 1.02 0 0 Z " fill="#E3E3E3" transform="translate(440,155)"/>
<path d="M0 0 C2.13639561 2.04537711 3.91778927 4.14234257 5.63671875 6.546875 C17.90179012 23.47331838 32.24961569 33.13773629 51 42 C50.98952637 42.61182129 50.97905273 43.22364258 50.96826172 43.85400391 C50.78773749 56.12736614 50.94053114 68.2163294 52.28857422 80.42626953 C52.96115656 86.64016311 53.10726212 92.75123662 53 99 C45.2577113 99.27980771 38.18628656 98.58478029 30.625 96.9375 C29.59568359 96.71779541 28.56636719 96.49809082 27.50585938 96.27172852 C14.17833161 93.3044946 1.11672009 89.35016179 -11 83 C-11 82.34 -11 81.68 -11 81 C-12.00353516 80.72929687 -12.00353516 80.72929687 -13.02734375 80.453125 C-17.33753781 78.34617074 -20.23611258 75.15815702 -23.5625 71.75 C-24.22185547 71.09386719 -24.88121094 70.43773437 -25.56054688 69.76171875 C-35 60.21790986 -35 60.21790986 -35 56 C-35.99 55.67 -36.98 55.34 -38 55 C-39.72162381 52.5105015 -41.28132393 50.04149754 -42.8125 47.4375 C-43.28316895 46.65189697 -43.75383789 45.86629395 -44.23876953 45.05688477 C-45.8375467 42.37801372 -47.420173 39.6900879 -49 37 C-49.59441895 35.99066406 -50.18883789 34.98132813 -50.80126953 33.94140625 C-54.89724947 26.97813276 -58.97628848 20.00531983 -63 13 C-63.50305664 12.12746582 -64.00611328 11.25493164 -64.52441406 10.35595703 C-65.21229004 9.14528564 -65.21229004 9.14528564 -65.9140625 7.91015625 C-66.31834473 7.20125244 -66.72262695 6.49234863 -67.13916016 5.76196289 C-68 4 -68 4 -68 2 C-51.34460775 6.20388506 -33.84132544 14.18114546 -21.0234375 25.59375 C-20.35570312 26.0578125 -19.68796875 26.521875 -19 27 C-18.01 26.67 -17.02 26.34 -16 26 C-15.30827295 24.34357738 -14.64844485 22.67384034 -14 21 C-12.41251489 18.39049472 -10.67261082 15.88808838 -8.9375 13.375 C-8.02675382 12.05167175 -7.11906999 10.72622934 -6.21484375 9.3984375 C-5.81386475 8.81755371 -5.41288574 8.23666992 -4.99975586 7.63818359 C-3.82659133 5.85356044 -3.82659133 5.85356044 -3 3 C-1.4375 1.3125 -1.4375 1.3125 0 0 Z " fill="#C1C1C1" transform="translate(511,265)"/>
<path d="M0 0 C0 38.94 0 77.88 0 118 C-2.97 117.01 -5.94 116.02 -9 115 C-11.32923341 114.31914716 -13.66111638 113.64692526 -16 113 C-15.01 115.31 -14.02 117.62 -13 120 C-13.66 120 -14.32 120 -15 120 C-15.66 118.02 -16.32 116.04 -17 114 C-17.66 114 -18.32 114 -19 114 C-19 113.01 -19 112.02 -19 111 C-20.10214844 110.80531128 -20.10214844 110.80531128 -21.2265625 110.60668945 C-23.78981293 110.04597842 -25.96231763 109.30539588 -28.375 108.29296875 C-32.64258547 106.54145416 -36.93412833 104.86657342 -41.25 103.23828125 C-41.88043213 102.99995575 -42.51086426 102.76163025 -43.16040039 102.51608276 C-45.77588403 101.5279128 -48.39209142 100.54166661 -51.00830078 99.55541992 C-52.94336106 98.8255703 -54.87794509 98.09446913 -56.8125 97.36328125 C-57.95332031 96.93313721 -59.09414063 96.50299316 -60.26953125 96.05981445 C-63 95 -63 95 -65 94 C-64.1086558 85.41494797 -62.84719505 77.7534362 -59.88671875 69.609375 C-58.78942364 66.38033037 -58.30784663 63.38631295 -58 60 C-57.01 60 -56.02 60 -55 60 C-53.50340599 58.04152173 -53.50340599 58.04152173 -52.1875 55.5 C-49.83032982 51.34409148 -47.29478401 47.60186943 -44.296875 43.88671875 C-41.40446959 39.6787916 -40.70702025 35.72314039 -40.375 30.6875 C-40.30023437 29.61886719 -40.22546875 28.55023438 -40.1484375 27.44921875 C-40.09945312 26.64097656 -40.05046875 25.83273438 -40 25 C-40.66 25 -41.32 25 -42 25 C-42 22.03 -42 19.06 -42 16 C-39.79334596 19.30998105 -39.21737905 21.82021436 -38.375 25.6875 C-37.98441406 27.45673828 -37.98441406 27.45673828 -37.5859375 29.26171875 C-37.39257812 30.16535156 -37.19921875 31.06898438 -37 32 C-34.95308905 32.21244032 -34.95308905 32.21244032 -33.59545898 30.83837891 C-33.06766846 30.30647949 -32.53987793 29.77458008 -31.99609375 29.2265625 C-31.42052734 28.6490625 -30.84496094 28.0715625 -30.25195312 27.4765625 C-29.65318359 26.86554688 -29.05441406 26.25453125 -28.4375 25.625 C-27.53354492 24.72007812 -27.53354492 24.72007812 -26.61132812 23.796875 C-23.41447501 20.68853039 -23.41447501 20.68853039 -21 17 C-20.2575 16.566875 -19.515 16.13375 -18.75 15.6875 C-16.30786005 14.18891412 -14.56439359 12.66074089 -12.59765625 10.60546875 C-10.38734119 8.3843453 -8.07188784 6.29140121 -5.75 4.1875 C-4.44289063 3.00220703 -4.44289063 3.00220703 -3.109375 1.79296875 C-1 0 -1 0 0 0 Z " fill="#E5E5E5" transform="translate(626,213)"/>
<path d="M0 0 C10.50494101 5.25247051 24.17116649 18.0794073 29 29 C30.98 28.67 32.96 28.34 35 28 C33.68 29.65 32.36 31.3 31 33 C31.43570312 33.83660156 31.87140625 34.67320312 32.3203125 35.53515625 C37.93758966 46.51437979 42.92806344 57.62311149 46.24365234 69.53515625 C46.97425283 71.91609314 47.85588992 74.14214305 48.828125 76.43359375 C51.38273434 82.73973952 53.2432523 89.21754504 55.125 95.75 C55.81423462 98.12004471 56.50430994 100.48984514 57.1953125 102.859375 C57.64414795 104.41350098 57.64414795 104.41350098 58.10205078 105.99902344 C59.00662413 109.02213808 59.99893379 112.00769946 61 115 C61.28875 116.051875 61.5775 117.10375 61.875 118.1875 C62.81455142 121.37153538 63.88771304 124.39974993 65.0625 127.5 C66.62923822 131.72262159 67.60197218 135.52218701 68 140 C69.65 140.33 71.3 140.66 73 141 C73 142.32 73 143.64 73 145 C68.82764098 145.24543288 65.93166481 144.36163447 62 143 C60.31331605 142.45450156 58.62572116 141.91181609 56.9375 141.37109375 C46.35825649 137.94257717 35.88483889 134.33236086 25.5625 130.1875 C24.61568359 129.81488037 23.66886719 129.44226074 22.69335938 129.05834961 C21.82646484 128.70264893 20.95957031 128.34694824 20.06640625 127.98046875 C19.30271729 127.67004639 18.53902832 127.35962402 17.75219727 127.03979492 C16 126 16 126 15 123 C14.95133643 120.99668303 14.96302539 118.99168864 15.0078125 116.98828125 C15.24404227 101.61408288 14.66829072 86.83220984 12.36376953 71.59179688 C11.77653859 67.40787492 11.3808598 63.20705338 11 59 C10.34 59 9.68 59 9 59 C6.03 39.53 3.06 20.06 0 0 Z " fill="#B4B4B4" transform="translate(433,101)"/>
<path d="M0 0 C17.82 0 35.64 0 54 0 C54.87082562 30.47889662 54.87082562 30.47889662 48 42 C47.03097845 43.95306668 46.0717218 45.91102697 45.125 47.875 C44.42091188 49.25217865 43.71438234 50.62813303 43 52 C42.34 52 41.68 52 41 52 C40.62875 52.804375 40.62875 52.804375 40.25 53.625 C36.69901994 60.37186212 31.82351153 66.13475004 27 72 C26.30003906 72.88429688 25.60007812 73.76859375 24.87890625 74.6796875 C24.19699219 75.50726563 23.51507812 76.33484375 22.8125 77.1875 C21.89404297 78.32251953 21.89404297 78.32251953 20.95703125 79.48046875 C19 81 19 81 16.5 81.19921875 C12.7435749 79.39730859 11.76863206 76.26907008 10.1875 72.625 C3.07262984 57.39454617 -8.22896167 42.9896685 -22.26171875 33.46484375 C-22.83535156 32.98144531 -23.40898438 32.49804688 -24 32 C-24 31.01 -24 30.02 -24 29 C-24.66 29 -25.32 29 -26 29 C-24.42204085 25.10956367 -21.76445619 22.52304632 -18.80859375 19.6484375 C-18.05063255 18.89827866 -18.05063255 18.89827866 -17.27735901 18.13296509 C-15.66876916 16.54213057 -14.05363181 14.95816916 -12.4375 13.375 C-10.81869762 11.78382224 -9.20138179 10.19120299 -7.58692932 8.59561157 C-6.58359573 7.60452902 -5.57760092 6.61613192 -4.56871033 5.63070679 C-1.94828535 3.07141319 -1.94828535 3.07141319 0 0 Z " fill="#B8B8B8" transform="translate(572,0)"/>
<path d="M0 0 C3.05114116 1.65442521 3.31896354 3.84346149 4.36499023 7.09155273 C4.5676651 7.70684845 4.77033997 8.32214417 4.97915649 8.95608521 C5.63614525 10.96632643 6.26851502 12.98337084 6.90014648 15.00170898 C7.34891529 16.39518555 7.79870789 17.7883328 8.24951172 19.18115234 C10.69299571 26.78230517 13.0064289 34.41376951 15.05786133 42.13061523 C17.02309448 49.47843213 19.27407226 56.73763177 21.52514648 64.00170898 C21.9016333 65.22317627 22.27812012 66.44464355 22.66601562 67.703125 C24.68627813 74.19375561 26.82686946 80.60261475 29.24365234 86.95703125 C29.96264648 89.06420898 29.96264648 89.06420898 29.96264648 91.06420898 C18.65359255 88.47667309 7.82872501 85.11895709 -3.03735352 81.06420898 C-3.7112915 80.81453369 -4.38522949 80.5648584 -5.07958984 80.30761719 C-22.4508518 73.84355334 -41.19693865 65.96348412 -52.03735352 50.06420898 C-51.46359781 43.24911072 -43.75342286 37.57416795 -38.91235352 33.37670898 C-38.25750977 32.82499023 -37.60266602 32.27327148 -36.92797852 31.70483398 C-35.06986802 30.09242405 -33.36778828 28.39837422 -31.66235352 26.62670898 C-29.03735352 24.06420898 -29.03735352 24.06420898 -27.03735352 24.06420898 C-27.03735352 23.40420898 -27.03735352 22.74420898 -27.03735352 22.06420898 C-25.77954102 20.75952148 -25.77954102 20.75952148 -23.91235352 19.18920898 C-23.1943457 18.57819336 -22.47633789 17.96717773 -21.73657227 17.33764648 C-20.84583008 16.58741211 -19.95508789 15.83717773 -19.03735352 15.06420898 C-17.22740025 13.52230093 -15.42018426 11.97724537 -13.61401367 10.4309082 C-12.36916395 9.36559483 -11.1227791 8.30207231 -9.87475586 7.24047852 C-9.29290527 6.74402832 -8.71105469 6.24757813 -8.11157227 5.73608398 C-7.59167725 5.29361328 -7.07178223 4.85114258 -6.53613281 4.39526367 C-4.97068544 3.07157605 -4.97068544 3.07157605 -3.59521484 1.3347168 C-2.03735352 0.06420898 -2.03735352 0.06420898 0 0 Z " fill="#C5C5C5" transform="translate(588.037353515625,85.935791015625)"/>
<path d="M0 0 C2.34058637 2.12780579 3.70700306 4.11562221 5 7 C3.68 6.67 2.36 6.34 1 6 C1.01047363 7.01723145 1.02094727 8.03446289 1.03173828 9.08251953 C1.06846109 12.92558142 1.09108671 16.76862848 1.10986328 20.61181641 C1.11980362 22.26223372 1.13336063 23.912634 1.15087891 25.56298828 C1.25818599 35.94652647 0.77893848 45.74524217 -1 56 C-1.21700339 57.47568322 -1.42902252 58.95212157 -1.6328125 60.4296875 C-2.08854167 63.61979167 -2.54427083 66.80989583 -3 70 C-3.33 69.34 -3.66 68.68 -4 68 C-4.66 68 -5.32 68 -6 68 C-6.226875 68.886875 -6.45375 69.77375 -6.6875 70.6875 C-8.20085431 74.50691803 -9.77869701 76.46897622 -13 79 C-16.32726946 78.68246493 -18.00147602 77.37455998 -20.3125 75.05078125 C-20.91320312 74.44943359 -21.51390625 73.84808594 -22.1328125 73.22851562 C-22.74898438 72.59623047 -23.36515625 71.96394531 -24 71.3125 C-24.92425781 70.39307617 -24.92425781 70.39307617 -25.8671875 69.45507812 C-35 60.21447492 -35 60.21447492 -35 56 C-35.99 55.67 -36.98 55.34 -38 55 C-39.72162381 52.5105015 -41.28132393 50.04149754 -42.8125 47.4375 C-43.28316895 46.65189697 -43.75383789 45.86629395 -44.23876953 45.05688477 C-45.8375467 42.37801372 -47.420173 39.6900879 -49 37 C-49.59441895 35.99066406 -50.18883789 34.98132813 -50.80126953 33.94140625 C-54.89724947 26.97813276 -58.97628848 20.00531983 -63 13 C-63.50305664 12.12746582 -64.00611328 11.25493164 -64.52441406 10.35595703 C-65.21229004 9.14528564 -65.21229004 9.14528564 -65.9140625 7.91015625 C-66.31834473 7.20125244 -66.72262695 6.49234863 -67.13916016 5.76196289 C-68 4 -68 4 -68 2 C-51.34460775 6.20388506 -33.84132544 14.18114546 -21.0234375 25.59375 C-20.35570312 26.0578125 -19.68796875 26.521875 -19 27 C-18.01 26.67 -17.02 26.34 -16 26 C-15.30827295 24.34357738 -14.64844485 22.67384034 -14 21 C-12.41251489 18.39049472 -10.67261082 15.88808838 -8.9375 13.375 C-8.02675382 12.05167175 -7.11906999 10.72622934 -6.21484375 9.3984375 C-5.81386475 8.81755371 -5.41288574 8.23666992 -4.99975586 7.63818359 C-3.82659133 5.85356044 -3.82659133 5.85356044 -3 3 C-1.4375 1.3125 -1.4375 1.3125 0 0 Z " fill="#ABABAB" transform="translate(511,265)"/>
<path d="M0 0 C5.51722738 0.38717385 10.54014473 1.33862341 15.875 2.8125 C29.06339444 6.45412128 42.34172602 8.95494369 55.875 10.9375 C101.38983945 17.69594528 101.38983945 17.69594528 116 31 C116 32.32 116 33.64 116 35 C78.05 35 40.1 35 1 35 C-1 7 -1 7 0 0 Z " fill="#EBEBEB" transform="translate(510,354)"/>
<path d="M0 0 C7.19077242 10.78615862 4.23333818 38.65061468 1.875 51.25 C-0.67554462 62.03346537 -5.6587604 71.56051603 -14 79 C-14.66 79 -15.32 79 -16 79 C-16 79.66 -16 80.32 -16 81 C-18.01262775 82.47429571 -20.01057304 83.810401 -22.125 85.125 C-22.74721436 85.5180835 -23.36942871 85.91116699 -24.01049805 86.31616211 C-42.66766598 98 -42.66766598 98 -45 98 C-46.77921408 75.26559784 -34.95966548 52.6353333 -23 34 C-22.41476562 33.04996094 -21.82953125 32.09992188 -21.2265625 31.12109375 C-17.59729461 25.26826032 -13.67064112 19.6630377 -9.64331055 14.08129883 C-6.31228499 9.46262833 -3.10641331 4.77326923 0 0 Z " fill="#B2B2B2" transform="translate(419,286)"/>
<path d="M0 0 C0.33 0 0.66 0 1 0 C1.20898214 11.05720348 1.36867197 22.11393354 1.46630955 33.17271328 C1.51318364 38.30848116 1.57670771 43.44289325 1.67895508 48.57788086 C1.77710091 53.53820575 1.83063114 58.49723096 1.85389519 63.45845222 C1.87046237 65.34636959 1.90281675 67.23421966 1.95157051 69.12158012 C2.31868116 83.92874646 2.31868116 83.92874646 -0.98880005 89.12380981 C-3.21244613 91.35258728 -5.44785283 93.16928426 -8 95 C-9.051875 96.3303125 -9.051875 96.3303125 -10.125 97.6875 C-12.6746462 100.83206364 -15.53675743 103.86259276 -19 106 C-20.485 105.505 -20.485 105.505 -22 105 C-22.7644043 103.14013672 -22.7644043 103.14013672 -23.32421875 100.6796875 C-23.54440674 99.7623584 -23.76459473 98.8450293 -23.99145508 97.89990234 C-24.2211499 96.90168457 -24.45084473 95.9034668 -24.6875 94.875 C-27.04825257 85.17929809 -29.97193106 75.83192791 -33.37182617 66.45263672 C-33.69900635 65.54787598 -34.02618652 64.64311523 -34.36328125 63.7109375 C-34.65501221 62.91993652 -34.94674316 62.12893555 -35.24731445 61.31396484 C-36.04662578 58.85665939 -36.6975274 56.56981575 -37 54 C-35.39294332 52.08190009 -33.8767972 50.62329616 -32 49 C-24.72107902 42.23215219 -18.9654926 34.67927173 -13.625 26.3125 C-13.08875 25.549375 -12.5525 24.78625 -12 24 C-11.34 24 -10.68 24 -10 24 C-9.80857422 23.13387085 -9.80857422 23.13387085 -9.61328125 22.25024414 C-9.00153358 20.005627 -8.19535008 18.08984205 -7.1875 15.99609375 C-6.65769531 14.88524414 -6.65769531 14.88524414 -6.1171875 13.75195312 C-5.56417969 12.60629883 -5.56417969 12.60629883 -5 11.4375 C-4.26931565 9.91609255 -3.54008846 8.39398419 -2.8125 6.87109375 C-2.48894531 6.20005615 -2.16539062 5.52901855 -1.83203125 4.83764648 C-0.8889308 2.83882635 -0.8889308 2.83882635 0 0 Z " fill="#E1E1E1" transform="translate(625,28)"/>
<path d="M0 0 C4.68132266 0.64664185 8.66087607 2.53261017 12.875 4.5625 C13.62096436 4.91892578 14.36692871 5.27535156 15.13549805 5.64257812 C42.26739955 18.71874706 42.26739955 18.71874706 49 25 C49.57330995 27.95901911 49.37450738 29.35522957 47.86328125 31.95703125 C47.09564453 32.87548828 47.09564453 32.87548828 46.3125 33.8125 C42.31328812 38.83037906 38.76590528 43.89154274 36.375 49.875 C35 53 35 53 32 55 C31.95834237 56.99956611 31.95834237 59.00043389 32 61 C31.34 61.66 30.68 62.32 30 63 C29.51162567 64.778473 29.08119088 66.57320002 28.6875 68.375 C27.68743356 72.30825099 27.25171809 73.74828191 24.3125 76.6875 C23.549375 77.120625 22.78625 77.55375 22 78 C20.52983806 74.1025619 19.07316638 70.20547018 17.67578125 66.28125 C11.24322983 48.29559083 4.01336282 30.00668141 -14 21 C-11.79873361 15.79700672 -8.21363207 11.83699417 -3.75 8.5 C-0.73567397 6.21476889 -0.73567397 6.21476889 -0.125 2.6875 C-0.08375 1.800625 -0.0425 0.91375 0 0 Z " fill="#A7A7A7" transform="translate(493,2)"/>
<path d="M0 0 C2.43839836 3.65759754 3.04013174 7.20200862 3.875 11.4375 C4.04499512 12.27716309 4.21499023 13.11682617 4.39013672 13.98193359 C4.74899712 15.7577818 5.10521839 17.53416508 5.45898438 19.31103516 C5.98246972 21.91287071 6.52693777 24.50937689 7.078125 27.10546875 C8.72774572 34.95431081 10.23695503 42.78287187 11.1875 50.75 C11.27153076 51.44311279 11.35556152 52.13622559 11.44213867 52.8503418 C11.82115552 56.2743824 11.993829 59.52402044 11.953125 62.98046875 C11.90665535 74.74890882 16.27726696 81.43741373 22.69970703 90.97021484 C25.32372342 95.0663606 27.20110927 99.48786524 29 104 C28.34 104 27.68 104 27 104 C26.34 102.02 25.68 100.04 25 98 C24.34 98 23.68 98 23 98 C23 97.01 23 96.02 23 95 C21.89785156 94.80531128 21.89785156 94.80531128 20.7734375 94.60668945 C18.21018707 94.04597842 16.03768237 93.30539588 13.625 92.29296875 C9.35741453 90.54145416 5.06587167 88.86657342 0.75 87.23828125 C0.11956787 86.99995575 -0.51086426 86.76163025 -1.16040039 86.51608276 C-3.77588403 85.5279128 -6.39209142 84.54166661 -9.00830078 83.55541992 C-10.94336106 82.8255703 -12.87794509 82.09446913 -14.8125 81.36328125 C-15.95332031 80.93313721 -17.09414063 80.50299316 -18.26953125 80.05981445 C-21 79 -21 79 -23 78 C-22.1086558 69.41494797 -20.84719505 61.7534362 -17.88671875 53.609375 C-16.78942364 50.38033037 -16.30784663 47.38631295 -16 44 C-15.01 44 -14.02 44 -13 44 C-11.50340599 42.04152173 -11.50340599 42.04152173 -10.1875 39.5 C-7.83032982 35.34409148 -5.29478401 31.60186943 -2.296875 27.88671875 C0.59553041 23.6787916 1.29297975 19.72314039 1.625 14.6875 C1.69976563 13.61886719 1.77453125 12.55023438 1.8515625 11.44921875 C1.90054688 10.64097656 1.94953125 9.83273438 2 9 C1.34 9 0.68 9 0 9 C0 6.03 0 3.06 0 0 Z " fill="#F4F4F4" transform="translate(584,229)"/>
<path d="M0 0 C3.01187134 -0.36076355 3.01187134 -0.36076355 6.92822266 -0.34057617 C7.64052536 -0.34101425 8.35282806 -0.34145233 9.0867157 -0.34190369 C11.44610812 -0.3398101 13.80479391 -0.31645325 16.1640625 -0.29296875 C17.79787813 -0.2873748 19.43169878 -0.28310375 21.06552124 -0.28010559 C25.36960702 -0.26864094 29.67338998 -0.23916008 33.97735596 -0.20599365 C38.36767479 -0.17532751 42.75804247 -0.16160767 47.1484375 -0.14648438 C55.7657641 -0.11429171 64.3828444 -0.06307608 73 0 C71.2244305 3.82522509 68.80442419 6.43808436 65.80859375 9.3515625 C65.30328629 9.8516684 64.79797882 10.35177429 64.27735901 10.86703491 C62.66876916 12.45786943 61.05363181 14.04183084 59.4375 15.625 C57.81869762 17.21617776 56.20138179 18.80879701 54.58692932 20.40438843 C53.58359573 21.39547098 52.57760092 22.38386808 51.56871033 23.36929321 C48.94828535 25.92858681 48.94828535 25.92858681 47 29 C47.66 29 48.32 29 49 29 C48.67 29.66 48.34 30.32 48 31 C46.35332211 29.95966892 44.70771339 28.91764553 43.0625 27.875 C42.04671875 27.23175781 41.0309375 26.58851562 39.984375 25.92578125 C37.54970495 24.35471799 35.18136891 22.72897173 32.8125 21.0625 C26.90694691 17.09734292 20.47222907 14.12458666 14.08837891 11.02001953 C10.71317344 9.37147985 7.35734287 7.68453408 4 6 C2.845 5.4225 1.69 4.845 0.5 4.25 C-0.325 3.8375 -1.15 3.425 -2 3 C-1.34 2.01 -0.68 1.02 0 0 Z " fill="#B9B9B9" transform="translate(499,0)"/>
<path d="M0 0 C6.28716649 2.55071447 9.64664501 8.96102922 12.3046875 14.9296875 C14.81653575 21.69517658 16.13569735 27.5659622 16.0625 34.8125 C16.05347656 35.97394531 16.04445313 37.13539063 16.03515625 38.33203125 C16.02355469 39.21246094 16.01195312 40.09289062 16 41 C15.67 40.34 15.34 39.68 15 39 C14.34 39 13.68 39 13 39 C12.773125 39.886875 12.54625 40.77375 12.3125 41.6875 C10.79914569 45.50691803 9.22130299 47.46897622 6 50 C2.68984075 49.68038133 1.00163465 48.38557429 -1.3125 46.0859375 C-1.91320312 45.48910156 -2.51390625 44.89226562 -3.1328125 44.27734375 C-3.74898438 43.64957031 -4.36515625 43.02179688 -5 42.375 C-5.61617188 41.77042969 -6.23234375 41.16585937 -6.8671875 40.54296875 C-10.72068859 36.66465972 -13.80148719 33.03776866 -16 28 C-15.6484375 25.47265625 -15.6484375 25.47265625 -14.375 23.0625 C-13.65183594 21.67611328 -13.65183594 21.67611328 -12.9140625 20.26171875 C-2.47826087 2.47826087 -2.47826087 2.47826087 0 0 Z " fill="#8B8B8B" transform="translate(492,294)"/>
<path d="M0 0 C0 21.45 0 42.9 0 65 C-2.64 64.67 -5.28 64.34 -8 64 C-9.67629563 59.02084348 -11.34851133 54.04034169 -13.01708984 49.05859375 C-13.584351 47.36681887 -14.15269236 45.67540575 -14.72216797 43.984375 C-15.54424159 41.54262917 -16.36232012 39.09957467 -17.1796875 36.65625 C-17.43185028 35.91008423 -17.68401306 35.16391846 -17.94381714 34.3951416 C-19.52962018 29.63873022 -20.83836638 24.87789718 -22 20 C-21.28714844 19.443125 -20.57429687 18.88625 -19.83984375 18.3125 C-14.56163849 14.10698518 -9.73141069 9.94366399 -5.4375 4.7265625 C-1.50226244 0 -1.50226244 0 0 0 Z " fill="#D1D1D1" transform="translate(626,114)"/>
<path d="M0 0 C10.52521927 4.98270575 24.24045307 18.23610156 29 29 C30.98 28.67 32.96 28.34 35 28 C30.93219087 32.97489027 26.58625933 37.39264502 21.8125 41.6875 C18.17461181 44.96731333 14.9373164 48.06763179 12 52 C11.34 52 10.68 52 10 52 C9.67 52.66 9.34 53.32 9 54 C7.12318196 48.07831549 6.15747964 42.17628441 5.2734375 36.03515625 C5.04462387 34.48519203 5.04462387 34.48519203 4.81118774 32.90391541 C4.328033 29.6240756 3.85142324 26.34332367 3.375 23.0625 C3.0473076 20.83001458 2.71918719 18.59759195 2.390625 16.36523438 C1.58879366 10.91087328 0.79232463 5.45574974 0 0 Z " fill="#8E8E8E" transform="translate(433,101)"/>
<path d="M0 0 C2.7635786 3.24021079 3.90717366 6.28543529 5.12109375 10.34765625 C5.49943359 11.59353516 5.87777344 12.83941406 6.26757812 14.12304688 C6.65803735 15.43605371 7.04800894 16.74920564 7.4375 18.0625 C9.84577982 26.1019196 12.28574956 34.08144095 15.28540039 41.92358398 C16 44 16 44 16 46 C4.68952959 43.41214001 -6.1245124 40.03792857 -17 36 C-15.37582489 29.97345551 -13.07794349 25.28897931 -9.48046875 20.19921875 C-7.66914778 17.50852295 -6.32508781 14.70501824 -4.9453125 11.77734375 C-4 10 -4 10 -1.75 7.3125 C0.28684039 4.62096091 0.37656854 3.29497473 0 0 Z " fill="#AAAAAA" transform="translate(602,131)"/>
<path d="M0 0 C2.34058637 2.12780579 3.70700306 4.11562221 5 7 C3.68 6.67 2.36 6.34 1 6 C1.01047363 7.01723145 1.02094727 8.03446289 1.03173828 9.08251953 C1.06846109 12.92558142 1.09108671 16.76862848 1.10986328 20.61181641 C1.11980362 22.26223372 1.13336063 23.912634 1.15087891 25.56298828 C1.42705342 52.28693422 1.42705342 52.28693422 -3 60 C-3.27972656 58.90042969 -3.55945313 57.80085938 -3.84765625 56.66796875 C-6.05233174 48.40441436 -8.34219916 41.40394395 -13.44921875 34.39453125 C-15.27538558 31.57478246 -16.33990717 29.30472281 -17 26 C-15.875 23.32421875 -15.875 23.32421875 -14 20.6875 C-13.34773438 19.74261719 -12.69546875 18.79773438 -12.0234375 17.82421875 C-11.35570312 16.89222656 -10.68796875 15.96023438 -10 15 C-8.86854524 13.33770854 -7.74291866 11.67142473 -6.625 10 C-5.90183594 8.948125 -5.90183594 8.948125 -5.1640625 7.875 C-3.83832586 5.90117995 -3.83832586 5.90117995 -3 3 C-1.4375 1.3125 -1.4375 1.3125 0 0 Z " fill="#9D9D9D" transform="translate(511,265)"/>
<path d="M0 0 C9.9 0 19.8 0 30 0 C28.04499763 3.91000474 25.87512398 6.36932803 22.80859375 9.3515625 C22.30328629 9.8516684 21.79797882 10.35177429 21.27735901 10.86703491 C19.66876916 12.45786943 18.05363181 14.04183084 16.4375 15.625 C14.81869762 17.21617776 13.20138179 18.80879701 11.58692932 20.40438843 C10.58359573 21.39547098 9.57760092 22.38386808 8.56871033 23.36929321 C5.94828535 25.92858681 5.94828535 25.92858681 4 29 C4.66 29 5.32 29 6 29 C5.67 29.66 5.34 30.32 5 31 C1.535 29.02 1.535 29.02 -2 27 C-2.11261173 20.91896639 -1.68604743 15.03891134 -1 9 C-0.67 6.03 -0.34 3.06 0 0 Z " fill="#EDEDED" transform="translate(542,0)"/>
<path d="M0 0 C0.66 0 1.32 0 2 0 C2.31442728 2.60394628 2.62656411 5.20813628 2.9375 7.8125 C3.06801758 8.89047852 3.06801758 8.89047852 3.20117188 9.99023438 C3.91488813 15.99073772 4.45226141 21.97487555 5 28 C-8.53 28 -22.06 28 -36 28 C-32.97338418 24.97338418 -31.46329551 23.48910634 -27.93359375 21.64453125 C-24.45167446 19.7819434 -21.01219145 17.8706678 -17.59765625 15.88671875 C-16.68822266 15.36142578 -15.77878906 14.83613281 -14.84179688 14.29492188 C-12.95997564 13.20656005 -11.07981226 12.11532755 -9.20117188 11.02148438 C-8.30076172 10.50263672 -7.40035156 9.98378906 -6.47265625 9.44921875 C-5.66062744 8.97830811 -4.84859863 8.50739746 -4.01196289 8.0222168 C-2 7 -2 7 0 7 C0 4.69 0 2.38 0 0 Z " fill="#EFEFEF" transform="translate(462,361)"/>
<path d="M0 0 C1.71045375 0.42913519 3.41827882 0.86875249 5.125 1.3125 C6.55199219 1.67794922 6.55199219 1.67794922 8.0078125 2.05078125 C11 3 11 3 17 6 C17 13.92 17 21.84 17 30 C14.56693121 26.75590827 12.61411701 23.69546019 10.64453125 20.17578125 C10.02255859 19.06525391 9.40058594 17.95472656 8.75976562 16.81054688 C8.44048096 16.2368335 8.12119629 15.66312012 7.79223633 15.07202148 C6.80866742 13.30561701 5.81970762 11.54231165 4.83007812 9.77929688 C0 1.13149277 0 1.13149277 0 0 Z " fill="#AEAEAE" transform="translate(609,325)"/>
<path d="M0 0 C1.32 0 2.64 0 4 0 C4 5.94 4 11.88 4 18 C1.03 17.01 -1.94 16.02 -5 15 C-5 14.34 -5 13.68 -5 13 C-6.32 12.34 -7.64 11.68 -9 11 C-8.071875 10.29875 -7.14375 9.5975 -6.1875 8.875 C-3.09904705 6.32684378 -1.55573813 3.71648553 0 0 Z " fill="#ADADAD" transform="translate(505,333)"/>
<path d="M0 0 C8.87585143 1.00861948 17.43844741 3.52666259 26 6 C26.33 6 26.66 6 27 6 C27 8.31 27 10.62 27 13 C25.5 11.625 25.5 11.625 24 10 C24 9.34 24 8.68 24 8 C22.96875 8.020625 21.9375 8.04125 20.875 8.0625 C17.43023432 8.00693926 14.38382167 7.56397028 11 7 C8.66697011 6.96237049 6.33286681 6.95334266 4 7 C4 5.68 4 4.36 4 3 C2.68 2.67 1.36 2.34 0 2 C0 1.34 0 0.68 0 0 Z " fill="#EDEDED" transform="translate(481,240)"/>
<path d="M0 0 C8.54730344 1.32570421 16.72241148 3.51068141 25 6 C25 8.97 25 11.94 25 15 C24.01 15.495 24.01 15.495 23 16 C19 10.375 19 10.375 19 7 C18.15179687 6.87753906 17.30359375 6.75507813 16.4296875 6.62890625 C12.87964842 5.97793097 9.56474576 5.02558284 6.125 3.9375 C4.97257813 3.57527344 3.82015625 3.21304688 2.6328125 2.83984375 C1.76398437 2.56269531 0.89515625 2.28554687 0 2 C0 1.34 0 0.68 0 0 Z " fill="#F1F1F1" transform="translate(601,173)"/>
<path d="M0 0 C1 2 1 2 -0.07421875 5.44921875 C-0.60396986 6.86500193 -1.14212515 8.27766152 -1.6875 9.6875 C-1.94466797 10.38294922 -2.20183594 11.07839844 -2.46679688 11.79492188 C-4.24937907 16.48569714 -6.41339478 20.70026192 -9 25 C-11.04460711 19.91372428 -8.27660834 15.26633025 -6.48046875 10.44140625 C-4.7440069 6.40493425 -2.8013166 3.36157992 0 0 Z " fill="#7F7F7F" transform="translate(536,39)"/>
<path d="M0 0 C0.33 0 0.66 0 1 0 C1.33 3.3 1.66 6.6 2 10 C-0.64 10 -3.28 10 -6 10 C-4.63201951 6.0100569 -2.79608023 3.15686477 0 0 Z " fill="#B3B3B3" transform="translate(566,379)"/>
<path d="M0 0 C0.391875 0.45375 0.78375 0.9075 1.1875 1.375 C3.30832487 3.27642919 5.33042235 4.06204028 8 5 C8 6.32 8 7.64 8 9 C3.44615385 9.36923077 3.44615385 9.36923077 1.1875 7.5 C0.795625 7.005 0.40375 6.51 0 6 C0.66 6 1.32 6 2 6 C1.34 4.02 0.68 2.04 0 0 Z " fill="#999999" transform="translate(498,237)"/>
<path d="M0 0 C1.66666667 1.66666667 3.33333333 3.33333333 5 5 C6.2684375 6.2375 6.2684375 6.2375 7.5625 7.5 C9.89129944 9.88851225 11.96378497 12.360462 14 15 C9.71091766 14.5234353 7.81725451 12.09210861 5 9 C4.29230469 8.22849609 4.29230469 8.22849609 3.5703125 7.44140625 C0 3.39706921 0 3.39706921 0 0 Z " fill="#A3A3A3" transform="translate(352,218)"/>
<path d="M0 0 C0.66 0 1.32 0 2 0 C2.8125 2.6875 2.8125 2.6875 3 6 C0.5625 8.875 0.5625 8.875 -2 11 C-3 9 -3 9 -2.44140625 6.8359375 C-2.15136719 6.02382812 -1.86132812 5.21171875 -1.5625 4.375 C-1.27503906 3.55773437 -0.98757813 2.74046875 -0.69140625 1.8984375 C-0.46324219 1.27195312 -0.23507812 0.64546875 0 0 Z " fill="#6B6B6B" transform="translate(584,78)"/>
<path d="M0 0 C1.98 0 3.96 0 6 0 C6 2.31 6 4.62 6 7 C5.01 7.495 5.01 7.495 4 8 C0 2.25 0 2.25 0 0 Z " fill="#E8E8E8" transform="translate(620,181)"/>
<path d="M0 0 C4.23830976 2.82553984 3.97715348 5.12180888 5 10 C2.69 9.34 0.38 8.68 -2 8 C-1.01 7.67 -0.02 7.34 1 7 C0.67 4.69 0.34 2.38 0 0 Z " fill="#909090" transform="translate(613,167)"/>
<path d="M0 0 C2.34058637 2.12780579 3.70700306 4.11562221 5 7 C3.68 6.67 2.36 6.34 1 6 C0.67 6.66 0.34 7.32 0 8 C-1.5 6.625 -1.5 6.625 -3 5 C-3 3 -3 3 -1.5 1.375 C-1.005 0.92125 -0.51 0.4675 0 0 Z " fill="#ADADAD" transform="translate(511,265)"/>
<path d="M0 0 C0.66 0.33 1.32 0.66 2 1 C1.85769192 2.41702513 1.71099254 3.8336096 1.5625 5.25 C1.48128906 6.03890625 1.40007813 6.8278125 1.31640625 7.640625 C1.02365007 9.82364639 0.57935581 11.8773182 0 14 C-0.33 14 -0.66 14 -1 14 C-1.22142255 12.04310341 -1.4267568 10.08438048 -1.625 8.125 C-1.74101563 7.03445312 -1.85703125 5.94390625 -1.9765625 4.8203125 C-1.98429688 3.88960937 -1.99203125 2.95890625 -2 2 C-1.34 1.34 -0.68 0.68 0 0 Z " fill="#CDCDCD" transform="translate(526,55)"/>
<path d="M0 0 C4 4 8 8 12 12 C9 12 9 12 6.73828125 10.13671875 C5.93777344 9.32847656 5.13726562 8.52023438 4.3125 7.6875 C3.50425781 6.88699219 2.69601562 6.08648437 1.86328125 5.26171875 C0 3 0 3 0 0 Z " fill="#9E9E9E" transform="translate(305,21)"/>
<path d="M0 0 C3.68754757 0.49831724 5.60490662 1.10067643 8 4 C7.236875 3.95875 6.47375 3.9175 5.6875 3.875 C2.77281584 3.77919176 2.77281584 3.77919176 0 6 C0 4.02 0 2.04 0 0 Z " fill="#A0A0A0" transform="translate(493,2)"/>
<path d="M0 0 C0.33 0 0.66 0 1 0 C1 3.96 1 7.92 1 12 C-0.32 11.34 -1.64 10.68 -3 10 C-3 9.34 -3 8.68 -3 8 C-2.34 8 -1.68 8 -1 8 C-1.020625 6.865625 -1.04125 5.73125 -1.0625 4.5625 C-1 1 -1 1 0 0 Z " fill="#C0C0C0" transform="translate(413,212)"/>
<path d="M0 0 C4.3177458 0.50797009 8.03302114 1.19682779 12 3 C12 3.33 12 3.66 12 4 C8.37 3.67 4.74 3.34 1 3 C0.67 2.01 0.34 1.02 0 0 Z " fill="#F4F4F4" transform="translate(481,240)"/>
<path d="M0 0 C0.99 0.495 0.99 0.495 2 1 C2.6328125 3.28515625 2.6328125 3.28515625 3.125 6.0625 C3.29257812 6.98160156 3.46015625 7.90070313 3.6328125 8.84765625 C3.75398438 9.55792969 3.87515625 10.26820313 4 11 C3.34 11 2.68 11 2 11 C-0.32590854 7.36576791 -0.16265833 4.22911669 0 0 Z " fill="#959595" transform="translate(484,189)"/>
<path d="M0 0 C1.62276158 2.43414237 2.61744792 4.31319446 3.625 7 C3.88539063 7.680625 4.14578125 8.36125 4.4140625 9.0625 C5 11 5 11 5 14 C3.68 13.67 2.36 13.34 1 13 C1.33 12.01 1.66 11.02 2 10 C1.35902703 7.99161804 0.69100553 5.99172182 0 4 C0 2.68 0 1.36 0 0 Z " fill="#A8A8A8" transform="translate(331,173)"/>
<path d="M0 0 C3.33523252 1.38009621 5.18607951 2.84950652 7 6 C6.67 6.99 6.34 7.98 6 9 C5.34 7.68 4.68 6.36 4 5 C3.34 5 2.68 5 2 5 C1.34 3.35 0.68 1.7 0 0 Z " fill="#858585" transform="translate(450,117)"/>
<path d="M0 0 C0.66 0.33 1.32 0.66 2 1 C-0.31 4.3 -2.62 7.6 -5 11 C-5.33 10.34 -5.66 9.68 -6 9 C-5.29296875 7.08984375 -5.29296875 7.08984375 -4.1875 4.9375 C-3.83042969 4.22464844 -3.47335937 3.51179688 -3.10546875 2.77734375 C-2 1 -2 1 0 0 Z " fill="#DEDEDE" transform="translate(416,288)"/>
<path d="M0 0 C1.98 0 3.96 0 6 0 C5.67 1.65 5.34 3.3 5 5 C2.5 3.625 2.5 3.625 0 2 C0 1.34 0 0.68 0 0 Z " fill="#EAEAEA" transform="translate(488,288)"/>
<path d="M0 0 C3.375 0.25 3.375 0.25 7 1 C7.66 2.32 8.32 3.64 9 5 C6.03 4.01 3.06 3.02 0 2 C0 1.34 0 0.68 0 0 Z " fill="#D2D2D2" transform="translate(613,181)"/>
<path d="M0 0 C1.32 0 2.64 0 4 0 C2.84826645 2.46800047 1.95216435 4.04783565 0 6 C-0.99 5.67 -1.98 5.34 -3 5 C-1.75 2.5 -1.75 2.5 0 0 Z " fill="#F3F3F3" transform="translate(568,0)"/>
<path d="M0 0 C2.31 0.66 4.62 1.32 7 2 C6.01 2.495 6.01 2.495 5 3 C4.67 3.99 4.34 4.98 4 6 C1.7522025 3.94766315 0.9977758 2.99332739 0 0 Z " fill="#A2A2A2" transform="translate(609,325)"/>
<path d="M0 0 C2.09749995 2.35968744 2.96905704 3.54616994 3.1875 6.75 C3.0946875 7.86375 3.0946875 7.86375 3 9 C2.01 9 1.02 9 0 9 C0 6.03 0 3.06 0 0 Z " fill="#9D9D9D" transform="translate(602,131)"/>
<path d="M0 0 C0.33 0.99 0.66 1.98 1 3 C-0.9375 6.1875 -0.9375 6.1875 -3 9 C-3.33 8.34 -3.66 7.68 -4 7 C-1.55555556 1.55555556 -1.55555556 1.55555556 0 0 Z " fill="#C0C0C0" transform="translate(484,303)"/>
<path d="M0 0 C2.31 0.66 4.62 1.32 7 2 C6.01 2.33 5.02 2.66 4 3 C4 3.66 4 4.32 4 5 C3.34 5 2.68 5 2 5 C1.34 3.35 0.68 1.7 0 0 Z " fill="#A2A2A2" transform="translate(443,267)"/>
<path d="M0 0 C2.64 0.33 5.28 0.66 8 1 C8 1.66 8 2.32 8 3 C5.125 3.1875 5.125 3.1875 2 3 C1.34 2.01 0.68 1.02 0 0 Z " fill="#F7F7F7" transform="translate(618,178)"/>
</svg>
